<svg width="980" height="840" viewBox="0 0 980 840" fill="none" xmlns="http://www.w3.org/2000/svg">
<path id="parachute 1 (Traced)" fill-rule="evenodd" clip-rule="evenodd" d="M411 0.580989C319.199 6.74999 231.715 20.645 166.5 39.416C142.724 46.26 144.655 45.637 125 52.8C77.4 70.147 42.35 91.259 19.191 116.532C6.144 130.772 1.34 141.082 0.337002 157C-0.374998 168.304 1.746 178.057 7.405 189.5C15.101 205.062 20.709 209.694 26.738 205.471C29.792 203.332 32.642 204.297 42.264 210.728C52.576 217.62 93.028 247.933 124.184 272.117C137.21 282.227 153.41 294.77 160.184 299.988C170.884 308.23 214.982 342.414 225 350.231C226.925 351.734 234.183 357.358 241.13 362.731C341.001 439.979 399.543 486.512 410.75 497.557L419 505.687V511.85V518.013L489.75 517.757L560.5 517.5L561.107 511.855C561.84 505.032 563.814 502.061 572.761 494.316C576.456 491.117 580.159 487.857 580.99 487.07C585.043 483.234 626.409 450.512 666.649 419.311C673.167 414.256 684.35 405.58 691.5 400.029C717.978 379.473 768.452 340.399 800 316.035C817.875 302.23 839.7 285.372 848.5 278.571C912.719 228.944 943.023 206.785 948.575 205.392C949.99 205.037 952.26 205.253 953.621 205.873C960.219 208.88 964.946 204.854 972.483 189.812C982.772 169.277 982.317 148.407 971.181 130.074C960.935 113.207 933.554 89.891 907.5 75.846C861.667 51.14 789.826 29.635 707.5 15.979C647.202 5.97699 628.851 4.32999 552 2.02699C516.835 0.972989 419.951 -0.0200108 411 0.580989ZM582.887 98.513C585.247 99.296 585.266 99.414 584.613 108.902C583.424 126.156 577.125 193.709 567.447 293C554.024 430.706 550.006 473.727 550.003 479.75L550 485H490H430V479.916C430 473.241 426.286 433.956 412.945 299.5C406.887 238.45 400.598 173.875 398.969 156C395.842 121.686 395.164 100.635 397.145 99.41C397.775 99.021 404.187 98.369 411.395 97.962C428.488 96.995 579.779 97.481 582.887 98.513ZM385.19 102.25C386.331 103.157 387.068 106.793 387.876 115.5C390.41 142.817 398.578 226.81 406.498 307C417.357 416.934 421.196 458.512 420.794 461.832C420.267 466.193 304 115.58 304 109.628C304 108.813 305.524 108.017 307.75 107.667C310.776 107.193 345.794 103.257 361 101.682C370.082 100.742 383.695 101.061 385.19 102.25ZM623 102.476C650.697 105.286 658.538 106.127 665.5 107.03C669.35 107.529 673.344 107.952 674.375 107.969C675.953 107.995 676.148 108.515 675.605 111.25C674.003 119.315 563.557 453.23 559.59 462L558.007 465.5L558.526 460.5C558.812 457.75 560.85 436.6 563.054 413.5C565.259 390.4 571.978 321.325 577.985 260C583.993 198.675 589.855 138.375 591.013 126C592.17 113.625 593.302 102.938 593.527 102.25C594.085 100.548 604.813 100.63 623 102.476ZM720.081 115.489C744.864 119.667 764.205 123.872 765.753 125.419C766.673 126.34 765.617 128.201 710.959 222C621.451 375.605 568.797 465.13 568.271 464.605C567.869 464.202 571.938 451.577 605.045 350.5C652.56 205.438 677.082 133.483 684.534 117.261C687.672 110.43 688.019 110.05 690.68 110.515C692.231 110.786 705.461 113.025 720.081 115.489ZM294.719 115.5C300.343 125.406 307.711 146.908 366 323.522C391.358 400.355 411.963 463.955 411.789 464.856C411.373 467.016 368.698 394.427 275.774 233.5C213.386 125.457 212.913 124.603 215.002 123.816C217.184 122.994 242.593 118.178 264 114.529C272.525 113.076 280.175 111.73 281 111.537C281.825 111.345 284.738 111.258 287.474 111.344C292.171 111.491 292.574 111.723 294.719 115.5ZM786.447 129.132C802.126 133.111 816.024 137.182 839 144.526C849.236 147.797 859 152.56 859 154.282C859 155.789 858.087 156.849 817.024 203C742.963 286.237 604.178 440.177 582.669 462.944C578.802 467.038 575.97 469.513 576.377 468.444C578.446 463.011 752.44 162.708 769.756 134.682C773.837 128.079 775.605 126.018 776.799 126.476C777.676 126.813 782.018 128.008 786.447 129.132ZM208.872 133.77C210.727 136.921 221.801 155.7 233.481 175.5C284.943 262.74 399.093 459.248 403.973 469L405.223 471.5L402.745 469C392.589 458.757 194.796 239.141 141.209 178.607C129.576 165.467 120.301 154.323 120.597 153.843C123.464 149.205 189.332 128.236 201.5 128.088C205.325 128.042 205.647 128.29 208.872 133.77ZM135.668 184.25C149.891 199.787 170.274 222.175 180.962 234C191.651 245.825 204.276 259.775 209.018 265C253.577 314.094 393.064 469.613 396 473.472C396.825 474.557 393.675 472.51 389 468.925C367.49 452.428 350.074 438.926 291.622 393.43C266.939 374.219 244.363 356.7 241.454 354.5C238.544 352.3 224.365 341.275 209.945 330C195.525 318.725 181.65 307.899 179.113 305.942C173.397 301.533 116.086 256.692 106.433 249.076C102.546 246.009 92.485 238.1 84.076 231.5C55.745 209.266 39 195.881 39 195.471C39 194.475 51.447 186.023 62.944 179.212C79.771 169.244 105.233 156.493 109.154 156.07C109.514 156.032 121.445 168.713 135.668 184.25ZM879.799 159.912C902.166 169.754 927.282 183.884 939.398 193.44C941.05 194.743 941.115 195.158 939.898 196.631C937.805 199.166 860.669 260.465 830.995 283.175C824.326 288.279 801.458 306.071 793.5 312.348C786.649 317.751 761.8 337.018 739 354.604C735.425 357.362 724.4 365.869 714.5 373.509C704.6 381.149 687.275 394.506 676 403.191C664.725 411.876 653.025 420.927 650 423.305C646.975 425.683 636.4 433.871 626.5 441.501C616.6 449.131 603.325 459.411 597 464.346C582.034 476.021 582.104 475.972 584.052 473.483C589.048 467.101 706.185 336.725 804.455 228.172C837.48 191.691 865.57 160.529 866.878 158.922C868.186 157.315 869.628 156 870.083 156C870.538 156 874.91 157.76 879.799 159.912ZM427.964 525.705C419.842 529.753 419.717 530.317 419.228 565L418.812 594.5L441.006 614.887L463.2 635.273L462.542 662.887C461.826 692.942 460.715 707.214 458.367 716.5C457.533 719.8 453.536 732.469 449.485 744.654C439.03 776.105 438.65 778.205 438.677 804.5C438.697 823.486 438.96 827.251 440.6 831.984C442.845 838.462 445.139 839.964 452.827 839.985C457.355 839.998 458.579 839.575 460.991 837.163C464.467 833.687 464.662 832.336 465.941 803C466.568 788.599 467.493 778.34 468.51 774.5C471.063 764.862 475.03 752.947 477.745 746.761C479.862 741.936 480.801 740.873 483.632 740.091C491.327 737.966 495.707 741.496 502.753 755.5C507.513 764.961 508.076 768.163 508.996 791C510.268 822.612 512.406 827.631 524.236 826.785C536.335 825.919 538.404 820.167 537.783 789.123C537.27 763.489 537.06 762.676 524.93 739.487L517 724.328V679.764V635.201L539.089 614.85L561.179 594.5L560.788 564.5C560.462 539.444 560.134 534.004 558.797 531.489C556.989 528.088 550.448 524 546.814 524C543.297 524 536.209 528.963 535.073 532.22C534.535 533.763 533.78 546.464 533.395 560.443L532.695 585.86L522.097 595.386C505.682 610.142 503.095 611.918 496.123 613.214C487.86 614.751 479.363 613.175 473.784 609.072C471.517 607.405 464.338 601.229 457.831 595.347L446 584.653L445.994 561.577C445.991 548.884 445.547 536.909 445.007 534.965C444.032 531.454 438.033 524.82 434.825 523.703C433.904 523.383 430.817 524.284 427.964 525.705ZM480.237 551.889C461.059 560.291 457.432 578.556 472.133 592.703C477.719 598.079 482.424 600 490 600C497.576 600 502.281 598.079 507.867 592.703C522.951 578.187 518.688 559.693 498.385 551.564C490.456 548.39 488.127 548.432 480.237 551.889Z" fill="black"/>
</svg>
