<svg width="4552" height="3877" viewBox="0 0 4552 3877" fill="none" xmlns="http://www.w3.org/2000/svg">
<path d="M2390.34 3270.03C2404.17 3405.38 2418.63 3541.34 2431.84 3676.7C2433.72 3697.34 2440.01 3705.23 2462.02 3710.09C2609.16 3742.86 2758.81 3758.64 2909.72 3760.47C2961.9 3761.07 3014.09 3752.57 3066.28 3751.36C3083.89 3750.75 3107.15 3756.22 3119.1 3767.74C3154.31 3800.52 3184.49 3836.94 3217.82 3872.75C3244.86 3846.65 3252.4 3810.84 3249.88 3765.92C3304.59 3785.35 3312.13 3831.48 3327.23 3877C3386.96 3810.23 3357.41 3745.9 3330.37 3681.55C3368.73 3673.66 3374.38 3676.09 3400.16 3712.51C3416.51 3684.59 3413.37 3655.46 3403.94 3628.15C3386.33 3575.34 3352.38 3530.42 3299.56 3508.57C3131.68 3440.59 2958.13 3388.39 2775.15 3373.82C2756.29 3372.61 2737.43 3373.82 2714.16 3373.82C2717.93 3339.83 2721.08 3305.24 2724.85 3270.63C2650.03 3271.24 2575.83 3271.85 2501.01 3273.06C2501.01 3279.74 2502.89 3287.63 2500.38 3293.7C2497.23 3301.6 2490.94 3307.67 2486.54 3314.94C2478.99 3308.27 2469.56 3302.2 2463.91 3293.7C2460.76 3288.85 2463.28 3280.35 2463.28 3273.06C2438.76 3271.85 2414.24 3271.24 2390.34 3270.03Z" fill="#EE3477"/>
<path d="M2727.36 3230.58C2737.43 3133.46 2748.12 3036.35 2758.17 2939.24C2673.29 2939.24 2587.78 2939.24 2501 2939.24C2501 3039.38 2501 3134.07 2501 3228.75C2576.46 3229.36 2651.91 3229.97 2727.36 3230.58Z" fill="#EE3377"/>
<path d="M2764.46 2889.46C2772.64 2812.99 2780.81 2736.5 2788.98 2660.03C2694.04 2660.03 2599.72 2660.03 2501.63 2660.03C2501.63 2734.08 2501 2804.49 2502.89 2874.89C2502.89 2880.36 2517.98 2889.46 2526.79 2889.46C2605.38 2890.68 2684.61 2890.07 2764.46 2889.46Z" fill="#ED3477"/>
<path d="M2794.64 2618.15C2799.68 2571.41 2804.07 2524.07 2809.74 2471.26C2736.8 2471.26 2666.37 2471.26 2595.95 2471.26C2565.14 2471.26 2534.33 2471.26 2501 2471.26C2501 2522.85 2501 2568.98 2501 2615.11C2512.32 2615.72 2523.64 2616.33 2535.59 2616.33C2621.73 2616.93 2707.87 2617.54 2794.64 2618.15Z" fill="#ED3477"/>
<path d="M2764.46 2889.46C2685.24 2889.46 2605.38 2890.07 2526.16 2889.46C2517.98 2889.46 2502.89 2880.36 2502.26 2874.89C2500.38 2804.49 2501.01 2734.08 2501.01 2660.03C2599.1 2660.03 2694.04 2660.03 2788.36 2660.03C2788.98 2658.21 2789.61 2656.39 2789.61 2654.56C2634.94 2654.56 2480.25 2653.96 2325.58 2653.96C2326.84 2659.42 2327.46 2664.88 2328.72 2670.35C2340.67 2666.1 2351.99 2661.85 2367.07 2656.99C2379.02 2738.93 2390.34 2813.59 2401.66 2890.07C2379.65 2890.07 2365.19 2890.07 2350.73 2890.07C2350.73 2892.5 2350.73 2894.93 2350.73 2897.35C2488.43 2897.35 2626.13 2896.75 2763.83 2896.75C2764.46 2894.32 2764.46 2891.89 2764.46 2889.46Z" fill="#EB6E89"/>
<path d="M2501.01 3228.75C2501.01 3134.07 2501.01 3039.38 2501.01 2939.24C2587.78 2939.24 2672.66 2939.24 2758.18 2939.24C2758.81 2936.81 2759.44 2934.99 2760.07 2932.56C2625.51 2932.56 2490.94 2933.16 2355.75 2933.16C2356.38 2934.99 2356.38 2937.41 2357.01 2939.24C2372.1 2939.24 2387.83 2939.24 2405.43 2939.24C2410.46 2972.01 2414.86 3001.14 2419.26 3030.89C2429.32 3097.04 2440.01 3163.21 2450.7 3229.36C2467.68 3228.75 2484.66 3228.75 2501.01 3228.75Z" fill="#EB6E89"/>
<path d="M2501 2615.11C2501 2568.98 2501 2522.85 2501 2471.26C2534.33 2471.26 2565.14 2471.26 2595.95 2471.26C2538.73 2470.04 2482.14 2468.22 2424.92 2467.01C2411.72 2468.22 2398.51 2471.26 2385.93 2471.26C2341.29 2471.87 2338.78 2476.12 2346.32 2518C2351.98 2550.16 2353.87 2582.94 2357.64 2615.72C2404.79 2615.11 2452.59 2615.11 2501 2615.11Z" fill="#F06E8E"/>
<path d="M2501.01 2615.11C2453.22 2615.11 2405.43 2615.11 2357.01 2615.72C2345.7 2616.33 2335.01 2616.93 2323.69 2618.15C2324.32 2630.29 2324.95 2642.43 2325.58 2654.56C2480.25 2654.56 2634.94 2655.17 2789.61 2655.17C2791.5 2643.03 2792.76 2630.9 2794.65 2618.75C2707.88 2618.15 2621.73 2618.15 2534.96 2617.54C2523.64 2616.33 2512.33 2615.72 2501.01 2615.11Z" fill="#A0CE58"/>
<path d="M2450.71 3228.75C2440.01 3162.6 2429.95 3096.44 2419.26 3030.28C2414.86 3000.53 2410.46 2971.4 2405.43 2938.63C2387.83 2938.63 2372.73 2938.63 2357.01 2938.63C2367.07 3035.74 2377.14 3132.86 2387.83 3229.97C2409.2 3229.97 2429.95 3229.36 2450.71 3228.75Z" fill="#EE3277"/>
<path d="M2356.38 2933.16C2490.94 2933.16 2625.51 2932.56 2760.7 2932.56C2761.95 2920.42 2763.21 2908.88 2765.09 2896.75C2627.39 2896.75 2489.69 2897.35 2351.99 2897.35C2352.62 2908.88 2354.5 2921.02 2356.38 2933.16Z" fill="#A0CC58"/>
<path d="M2450.7 3228.75C2429.94 3229.36 2408.57 3229.97 2387.82 3229.97C2388.45 3243.32 2389.08 3256.68 2390.34 3270.03C2414.86 3270.63 2438.75 3271.85 2463.28 3272.46C2475.85 3272.46 2488.43 3272.46 2501 3272.46C2575.83 3271.85 2650.03 3271.24 2724.85 3270.03C2725.48 3256.68 2726.73 3243.32 2727.36 3229.97C2651.91 3229.36 2576.46 3228.75 2501 3228.15C2484.65 3228.75 2467.67 3228.75 2450.7 3228.75Z" fill="#A4C559"/>
<path d="M2351.35 2889.46C2365.82 2889.46 2380.27 2889.46 2402.29 2889.46C2390.97 2812.38 2379.64 2738.32 2367.7 2656.39C2352.61 2661.85 2340.67 2666.1 2329.34 2669.74C2336.26 2743.18 2343.8 2816.63 2351.35 2889.46Z" fill="#ED3979"/>
<path d="M2323.69 2617.54C2335 2616.93 2345.69 2616.33 2357.01 2615.11C2353.24 2582.34 2351.36 2549.56 2345.69 2517.39C2338.15 2475.51 2340.67 2471.26 2385.31 2470.65C2398.51 2470.65 2411.72 2467.62 2424.29 2466.4C2385.94 2466.4 2347.58 2466.4 2305.45 2466.4C2312.37 2518.6 2318.02 2567.77 2323.69 2617.54Z" fill="#ED3E7B"/>
<path d="M2501.01 3272.46C2488.43 3272.46 2475.85 3272.46 2463.28 3272.46C2463.28 3279.13 2460.76 3287.63 2463.91 3293.1C2469.56 3301.6 2478.99 3307.06 2486.54 3314.34C2491.57 3307.67 2497.86 3300.99 2500.38 3293.1C2502.89 3287.03 2501.01 3279.74 2501.01 3272.46Z" fill="#F06E8E"/>
<path d="M2119.56 3270.03C2105.73 3405.38 2091.27 3541.34 2078.07 3676.7C2076.18 3697.34 2069.89 3705.23 2047.88 3710.09C1900.75 3742.86 1751.1 3758.64 1600.19 3760.47C1548 3761.07 1495.82 3752.57 1443.63 3751.36C1426.02 3750.75 1402.75 3756.22 1390.81 3767.74C1355.6 3800.52 1325.41 3836.94 1292.09 3872.75C1265.05 3846.65 1257.51 3810.84 1260.02 3765.92C1205.32 3785.35 1197.77 3831.48 1182.68 3877C1122.95 3810.23 1152.49 3745.9 1179.53 3681.55C1141.18 3673.67 1135.52 3676.09 1109.74 3712.51C1093.39 3684.59 1096.54 3655.46 1105.97 3628.15C1123.58 3575.34 1157.53 3530.42 1210.35 3508.57C1378.23 3440.59 1551.77 3388.39 1734.75 3373.82C1753.62 3372.61 1772.48 3373.82 1795.74 3373.82C1791.97 3339.83 1788.83 3305.24 1785.05 3270.63C1859.88 3271.24 1934.07 3271.85 2008.9 3273.06C2008.9 3279.74 2007.01 3287.63 2009.53 3293.7C2012.67 3301.6 2018.96 3307.67 2023.36 3314.94C2030.9 3308.27 2040.34 3302.2 2046 3293.7C2049.14 3288.85 2046.63 3280.35 2046.63 3273.06C2071.15 3271.85 2095.67 3271.24 2119.56 3270.03Z" fill="#EE3477"/>
<path d="M1782.54 3230.58C1772.48 3133.46 1761.79 3036.35 1751.73 2939.24C1836.62 2939.24 1922.13 2939.24 2008.9 2939.24C2008.9 3039.38 2008.9 3134.07 2008.9 3228.75C1933.45 3229.36 1857.99 3229.97 1782.54 3230.58Z" fill="#EE3377"/>
<path d="M1745.44 2889.46C1737.27 2812.99 1729.1 2736.5 1720.92 2660.03C1815.87 2660.03 1910.18 2660.03 2008.27 2660.03C2008.27 2734.08 2008.9 2804.49 2007.01 2874.89C2007.01 2880.36 1991.93 2889.46 1983.12 2889.46C1904.53 2890.68 1825.3 2890.07 1745.44 2889.46Z" fill="#ED3477"/>
<path d="M1715.26 2618.15C1710.23 2571.41 1705.83 2524.07 1700.17 2471.26C1773.11 2471.26 1843.53 2471.26 1913.96 2471.26C1944.76 2471.26 1975.58 2471.26 2008.9 2471.26C2008.9 2522.85 2008.9 2568.98 2008.9 2615.11C1997.58 2615.72 1986.27 2616.33 1974.32 2616.33C1888.18 2616.93 1802.03 2617.54 1715.26 2618.15Z" fill="#ED3477"/>
<path d="M1745.44 2889.46C1824.66 2889.46 1904.52 2890.07 1983.75 2889.46C1991.93 2889.46 2007.01 2880.36 2007.64 2874.89C2009.53 2804.49 2008.9 2734.08 2008.9 2660.03C1910.81 2660.03 1815.86 2660.03 1721.54 2660.03C1720.91 2658.21 1720.29 2656.39 1720.29 2654.56C1874.97 2654.56 2029.65 2653.96 2184.33 2653.96C2183.07 2659.42 2182.44 2664.88 2181.18 2670.35C2169.24 2666.1 2157.92 2661.85 2142.83 2656.99C2130.88 2738.93 2119.56 2813.59 2108.25 2890.07C2130.25 2890.07 2144.71 2890.07 2159.18 2890.07C2159.18 2892.5 2159.18 2894.93 2159.18 2897.35C2021.47 2897.35 1883.77 2896.75 1746.06 2896.75C1745.44 2894.32 1745.44 2891.89 1745.44 2889.46Z" fill="#EB6E89"/>
<path d="M2008.9 3228.76C2008.9 3134.07 2008.9 3039.39 2008.9 2939.24C1922.13 2939.24 1837.24 2939.24 1751.73 2939.24C1751.1 2936.81 1750.47 2934.99 1749.84 2932.56C1884.4 2932.56 2018.96 2933.16 2154.15 2933.16C2153.52 2934.99 2153.52 2937.41 2152.9 2939.24C2137.8 2939.24 2122.08 2939.24 2104.47 2939.24C2099.45 2972.01 2095.04 3001.15 2090.65 3030.89C2080.58 3097.05 2069.89 3163.21 2059.2 3229.37C2042.23 3228.76 2025.25 3228.76 2008.9 3228.76Z" fill="#EB6E89"/>
<path d="M2008.9 2615.11C2008.9 2568.98 2008.9 2522.85 2008.9 2471.26C1975.58 2471.26 1944.76 2471.26 1913.96 2471.26C1971.17 2470.04 2027.77 2468.22 2084.99 2467.01C2098.19 2468.22 2111.4 2471.26 2123.97 2471.26C2168.61 2471.87 2171.13 2476.12 2163.59 2518C2157.92 2550.16 2156.04 2582.94 2152.27 2615.72C2105.1 2615.11 2057.32 2615.11 2008.9 2615.11Z" fill="#F06E8E"/>
<path d="M2008.9 2615.11C2056.68 2615.11 2104.48 2615.11 2152.89 2615.72C2164.21 2616.33 2174.9 2616.93 2186.22 2618.15C2185.59 2630.29 2184.96 2642.43 2184.33 2654.56C2029.65 2654.56 1874.97 2655.17 1720.29 2655.17C1718.4 2643.03 1717.14 2630.9 1715.26 2618.75C1802.03 2618.15 1888.17 2618.15 1974.94 2617.54C1986.26 2616.33 1997.58 2615.72 2008.9 2615.11Z" fill="#A0CE58"/>
<path d="M2059.2 3228.75C2069.89 3162.6 2079.95 3096.44 2090.64 3030.28C2095.04 3000.53 2099.44 2971.4 2104.47 2938.63C2122.08 2938.63 2137.17 2938.63 2152.89 2938.63C2142.83 3035.74 2132.77 3132.86 2122.08 3229.97C2100.7 3229.97 2079.95 3229.36 2059.2 3228.75Z" fill="#EE3277"/>
<path d="M2153.52 2933.16C2018.95 2933.16 1884.4 2932.56 1749.21 2932.56C1747.95 2920.42 1746.69 2908.88 1744.81 2896.75C1882.51 2896.75 2020.21 2897.35 2157.92 2897.35C2157.29 2908.88 2155.4 2921.02 2153.52 2933.16Z" fill="#A0CC58"/>
<path d="M2059.2 3228.75C2079.95 3229.36 2101.34 3229.97 2122.08 3229.97C2121.45 3243.32 2120.82 3256.68 2119.57 3270.03C2095.04 3270.63 2071.15 3271.85 2046.63 3272.46C2034.05 3272.46 2021.48 3272.46 2008.9 3272.46C1934.08 3271.85 1859.88 3271.24 1785.05 3270.03C1784.42 3256.68 1783.17 3243.32 1782.54 3229.97C1857.99 3229.36 1933.45 3228.75 2008.9 3228.15C2025.25 3228.75 2042.23 3228.75 2059.2 3228.75Z" fill="#A4C559"/>
<path d="M2158.55 2889.46C2144.09 2889.46 2129.63 2889.46 2107.62 2889.46C2118.94 2812.38 2130.25 2738.32 2142.2 2656.39C2157.29 2661.85 2169.24 2666.1 2180.56 2669.74C2173.64 2743.18 2166.1 2816.63 2158.55 2889.46Z" fill="#ED3979"/>
<path d="M2186.22 2617.54C2174.9 2616.93 2164.21 2616.33 2152.9 2615.11C2156.66 2582.34 2158.55 2549.56 2164.21 2517.39C2171.75 2475.51 2169.24 2471.26 2124.6 2470.65C2111.39 2470.65 2098.19 2467.62 2085.61 2466.4C2123.97 2466.4 2162.33 2466.4 2204.45 2466.4C2197.54 2518.6 2191.87 2567.77 2186.22 2617.54Z" fill="#ED3E7B"/>
<path d="M2008.9 3272.46C2021.48 3272.46 2034.05 3272.46 2046.63 3272.46C2046.63 3279.13 2049.15 3287.63 2046 3293.1C2040.35 3301.6 2030.91 3307.06 2023.36 3314.34C2018.33 3307.67 2012.05 3300.99 2009.53 3293.1C2007.01 3287.03 2008.9 3279.74 2008.9 3272.46Z" fill="#F06E8E"/>
<path d="M1709.08 139.845C1557.52 30.1216 1322.01 -53.3641 1115.56 41.0339C1018.25 85.5368 1001.36 163.998 1005.93 199.183L1006.7 205.068C1007.84 214.263 1012.92 222.599 1020.54 228.116C1028.29 233.633 1037.94 235.839 1047.34 234.246L1053.31 233.264C1054.21 233.02 1145.29 218.799 1272.58 241.356C1384.5 261.217 1546.98 314.055 1702.61 451.729C1626.39 393.006 1544.96 343.722 1462.64 316.138C1283.52 256.314 1032.74 246.013 866.071 396.684C787.686 467.544 796.2 547.232 811.569 579.596L814.11 584.99C818.175 593.326 825.543 599.824 834.563 602.766C843.582 605.708 853.619 604.973 862.005 600.682L867.338 597.985C870.511 596.391 1171.21 451.975 1540.24 608.896C1449.4 575.55 1356.8 552.868 1270.03 550.907C1080.87 546.984 838.472 611.102 727.574 803.455C662.786 915.993 730.623 990.29 733.672 993.724L737.737 998.016C744.089 1004.76 753.109 1008.68 762.636 1008.93H763.526C772.672 1008.93 781.438 1005.49 788.044 999.238L792.236 995.313C792.871 994.706 857.021 935.495 973.645 884.242C1083.53 835.942 1263.92 784.696 1499.06 814.734C1511.12 816.327 1522.94 818.044 1534.76 819.76C1477.59 816.696 1421.69 819.147 1371.01 829.813C1071.97 892.458 1024.95 1069.61 1009.47 1127.84C987.619 1209.98 1028.78 1261.23 1056.6 1278.51L1061.3 1281.46C1067.14 1285.13 1073.74 1286.85 1080.1 1286.85C1091.27 1286.85 1102.2 1281.7 1109.07 1272.14L1112.24 1267.73C1113.76 1265.64 1252.62 1076.97 1516.74 1015.55C1513.94 1016.77 1510.9 1017.87 1508.22 1019.22C1363.02 1091.56 1295.57 1183.62 1295.57 1309.17C1295.57 1378.55 1339.4 1411.53 1365.31 1419.99L1370.13 1421.58C1373.82 1422.81 1377.63 1423.42 1381.45 1423.42C1394.4 1423.42 1406.6 1416.43 1412.69 1404.78L1414.85 1400.49C1415.99 1398.41 1528.42 1188.9 1714.92 1122.33C1906.48 1053.79 2036.82 1064.09 2037.59 1064.09C2056.51 1066.17 2073.54 1053.3 2076.08 1035.04L2077.61 1024C2077.86 1021.92 2077.99 1019.84 2077.86 1017.75C2080.52 1014.81 2082.68 1011.37 2084.08 1007.57L2088.14 997.034C2089.42 993.6 2090.05 990.165 2090.18 986.731C2092.34 984.893 2094.75 983.296 2096.4 980.851L2101.11 974.348C2105.05 973.25 2108.98 971.653 2112.54 969.2L2121.82 962.58C2126.64 959.146 2129.82 954.613 2132.23 949.707L2132.61 949.582C2150.14 943.944 2160.05 926.047 2155.35 908.883C2153.83 903.486 1997.57 348.514 1709.06 139.84L1709.08 139.845ZM1130.29 161.053C1110.86 161.053 1094.22 161.789 1080.75 162.648C1088.13 144.136 1105.53 120.473 1145.54 102.085C1323.78 20.4351 1531.86 96.0776 1667.15 193.909C1812.35 298.975 1923.26 503.708 1994.65 670.2C1941.8 600.441 1872.95 519.774 1785.04 434.449C1606.93 261.59 1414.97 197.838 1285.28 174.916C1224.68 164.127 1171.45 161.062 1130.29 161.062V161.053ZM1186.96 467.664C1039.34 467.664 926.024 502.115 871.395 522.831C872.543 502.971 881.559 475.265 913.955 445.965C1057.89 315.769 1279.95 326.556 1439.76 379.884C1611 437.136 1781.11 599.331 1901.66 736.757C1829.5 686.002 1738.55 629.73 1627.89 574.195C1465.67 493.038 1313.61 467.661 1186.94 467.661L1186.96 467.664ZM944.702 822.684C863.392 858.479 805.083 897.955 772.816 922.596C767.481 903.477 766.972 874.171 788.823 836.175C884.604 670.052 1099.17 614.518 1268.64 618.318C1447 622.242 1656.98 723.629 1814.64 817.905C1726.73 789.217 1622.3 762.37 1508.36 747.779C1256.57 715.538 1062.98 770.827 944.693 822.684H944.702ZM1078.34 1200.52C1073.26 1188.26 1070.47 1170.12 1077.2 1144.75C1101.33 1053.9 1158.25 943.686 1385.77 895.993C1499.97 872.092 1645.3 894.646 1769.91 926.397C1714.27 925.299 1653.29 927.253 1589.39 934.613C1310.8 966.73 1138.29 1132.6 1078.32 1200.52H1078.34ZM1690.53 1059.05C1524.87 1118.26 1413.33 1271.63 1371.15 1338.44C1367.85 1331.45 1365.57 1322.14 1365.57 1309.26C1365.57 1209.11 1417.91 1140.33 1540.37 1079.4C1594.1 1052.67 1669.94 1037.72 1766.24 1034.77C1742.23 1041.63 1716.82 1049.73 1690.53 1059.05Z" fill="#F2994A"/>
<path d="M231.603 860.998C185.995 782.208 139.203 703.999 94.7782 624.624C84.7263 606.541 82.757 583.998 77.2375 563.204C65.9815 519.322 55.5144 475.051 42.6172 424.3C85.3884 471.38 124.159 513.711 162.736 556.617C163.92 556.034 165.698 555.638 166.882 555.056C153.752 500.101 140.026 444.959 125.263 384.09C173.031 436.866 217.202 485.655 261.567 533.869C263.145 533.093 264.328 532.51 265.907 531.733C250.942 470.483 236.372 409.039 219.572 341.495C229.158 351.17 235.147 356.859 240.539 362.361C271.922 397.294 303.891 431.458 334.484 466.779C345.881 479.881 355.901 494.142 363.949 509.373C403.608 587.255 442.479 665.525 481.744 743.601C473.638 745.193 466.127 746.971 458.02 748.564C371.208 763.954 296.074 802.386 231.603 860.998Z" fill="#219653"/>
<path d="M726.107 1720.69C683.106 1645.9 640.105 1571.1 597.105 1496.3C659.055 1444.2 730.47 1410.96 810.947 1395.81C849.608 1472.74 888.661 1549.49 927.121 1626.04C896.707 1636.22 865.084 1643.15 836.478 1656.75C798.61 1675.39 762.962 1699.19 726.107 1720.69Z" fill="#219653"/>
<path d="M385.537 1130.69C350.166 1068.45 314.199 1006.03 278.829 943.794C348.613 881.124 429.672 840.732 524.815 826.999C557.836 892.317 590.663 958.206 623.683 1023.52C534.094 1038.36 454.774 1073.58 385.537 1130.69Z" fill="#7A9B6D"/>
<path d="M1134.32 2036.98C1178.81 2124.96 1223.31 2212.93 1268 2301.29C1212.78 2328.48 1159.92 2354.51 1104.69 2381.69C1054.85 2293.95 1005.41 2206.97 955.971 2119.99C1008.91 2079.05 1068.9 2052.4 1134.32 2036.98Z" fill="#219653"/>
<path d="M549.686 1414.08C510.91 1347.28 472.529 1280.28 433.552 1213.11C438.278 1209.81 443.004 1206.53 447.528 1202.86C511.073 1151.91 583.888 1120.37 665.177 1107.7C699.606 1175.68 733.639 1243.86 768.068 1311.83C763.721 1313.02 759.575 1314.58 755.421 1315.19C677.922 1331.27 608.874 1363.35 549.686 1414.08Z" fill="#219653"/>
<path d="M907.151 2035.1C862.737 1957.64 818.136 1880.75 773.727 1803.29C780.425 1799.03 786.922 1794.4 793.62 1790.14C847.181 1753.21 904.166 1723.71 969.418 1710.79C1010.09 1791.52 1050.76 1872.26 1091.64 1953.39C1024.03 1968.44 964.076 1997.96 907.151 2035.1Z" fill="#7A9B6D"/>
<path d="M524.816 827C430.068 840.54 348.613 881.123 278.829 943.794C263.152 916.001 247.281 888.791 231.604 860.998C296.075 802.386 371.209 763.954 458.415 748.37C466.128 746.972 474.032 744.999 482.139 743.407C496.037 771.593 510.523 799.009 524.816 827Z" fill="#9FCC58"/>
<path d="M665.378 1108.08C583.888 1120.37 511.273 1152.28 447.729 1203.24C443.205 1206.91 438.278 1209.81 433.753 1213.48C417.682 1185.89 401.811 1158.68 386.133 1130.88C454.975 1073.96 534.488 1038.17 623.884 1023.9C637.581 1051.7 651.48 1079.9 665.378 1108.08Z" fill="#9FCC59"/>
<path d="M549.686 1414.08C609.471 1363.53 677.923 1331.27 755.623 1315.56C760.17 1314.76 763.922 1313.4 768.269 1312.22C782.562 1340.21 797.25 1368 811.542 1395.99C731.066 1411.15 659.651 1444.39 597.7 1496.49C581.234 1469.09 565.162 1441.48 549.686 1414.08Z" fill="#9FCD58"/>
<path d="M969.018 1710.98C903.57 1723.53 846.584 1753.02 793.225 1790.33C786.728 1794.97 780.03 1799.23 773.332 1803.49C757.26 1775.89 741.784 1748.48 725.711 1720.88C762.567 1699.39 798.215 1675.59 836.679 1657.13C865.084 1643.15 896.707 1636.22 927.325 1626.42C941.614 1654.41 955.52 1682.59 969.018 1710.98Z" fill="#9FCC59"/>
<path d="M907.143 2035.1C964.272 1998.33 1024.03 1968.44 1091.64 1953.39C1105.93 1981.38 1120.22 2009.37 1134.91 2037.16C1069.29 2052.2 1009.5 2079.23 956.567 2120.18C939.896 2091.43 923.422 2063.08 907.143 2035.1Z" fill="#9FCD58"/>
<path d="M2750.08 139.845C2901.64 30.1216 3137.15 -53.3641 3343.59 41.0339C3440.91 85.5368 3457.8 163.998 3453.23 199.183L3452.47 205.068C3451.32 214.263 3446.24 222.599 3438.62 228.116C3430.87 233.633 3421.21 235.839 3411.81 234.246L3405.84 233.264C3404.96 233.02 3313.87 218.799 3186.58 241.356C3074.66 261.217 2912.18 314.055 2756.55 451.729C2832.77 393.006 2914.21 343.722 2996.52 316.138C3175.64 256.314 3426.42 246.013 3593.09 396.684C3671.48 467.544 3662.97 547.232 3647.6 579.596L3645.05 584.99C3640.99 593.326 3633.62 599.824 3624.6 602.766C3615.58 605.708 3605.55 604.973 3597.16 600.682L3591.83 597.985C3588.65 596.391 3287.95 451.975 2918.93 608.896C3009.75 575.55 3102.37 552.868 3189.13 550.907C3378.29 546.984 3620.69 611.102 3731.59 803.455C3796.38 915.993 3728.54 990.29 3725.49 993.724L3721.42 998.016C3715.08 1004.76 3706.05 1008.68 3696.53 1008.93H3695.63C3686.49 1008.93 3677.72 1005.49 3671.12 999.238L3666.93 995.313C3666.29 994.706 3602.14 935.495 3485.52 884.242C3375.63 835.942 3195.24 784.696 2960.1 814.734C2948.03 816.327 2936.22 818.044 2924.41 819.76C2981.57 816.696 3037.46 819.147 3088.16 829.813C3387.2 892.458 3434.22 1069.61 3449.7 1127.84C3471.55 1209.98 3430.39 1261.23 3402.57 1278.51L3397.87 1281.46C3392.02 1285.13 3385.41 1286.85 3379.06 1286.85C3367.88 1286.85 3356.96 1281.7 3350.1 1272.14L3346.93 1267.73C3345.4 1265.64 3206.55 1076.97 2942.43 1015.55C2945.22 1016.77 2948.27 1017.87 2950.93 1019.22C3096.13 1091.56 3163.6 1183.62 3163.6 1309.17C3163.6 1378.55 3119.77 1411.53 3093.85 1419.99L3089.02 1421.58C3085.34 1422.81 3081.53 1423.42 3077.72 1423.42C3064.76 1423.42 3052.57 1416.43 3046.47 1404.78L3044.31 1400.49C3043.16 1398.41 2930.74 1188.9 2744.25 1122.33C2552.68 1053.79 2422.34 1064.09 2421.58 1064.09C2402.64 1066.17 2385.62 1053.3 2383.08 1035.04L2381.56 1024C2381.3 1021.92 2381.18 1019.84 2381.3 1017.75C2378.63 1014.81 2376.47 1011.37 2375.08 1007.57L2371.01 997.034C2369.74 993.6 2369.11 990.165 2368.98 986.731C2366.82 984.893 2364.4 983.296 2362.75 980.851L2358.06 974.348C2354.12 973.25 2350.18 971.653 2346.62 969.2L2337.35 962.58C2332.52 959.146 2329.34 954.613 2326.93 949.707L2326.55 949.582C2309.02 943.944 2299.11 926.047 2303.81 908.883C2305.33 903.486 2461.59 348.514 2750.1 139.84L2750.08 139.845ZM3328.86 161.053C3348.31 161.053 3364.94 161.789 3378.41 162.648C3371.04 144.136 3353.64 120.473 3313.62 102.085C3135.39 20.4351 2927.3 96.0776 2792.01 193.909C2646.81 298.975 2535.9 503.708 2464.52 670.2C2517.37 600.441 2586.22 519.774 2674.13 434.449C2852.24 261.59 3044.19 197.838 3173.88 174.916C3234.48 164.127 3287.71 161.062 3328.87 161.062L3328.86 161.053ZM3272.21 467.664C3419.83 467.664 3533.14 502.115 3587.76 522.831C3586.62 502.971 3577.6 475.265 3545.21 445.965C3401.28 315.769 3179.21 326.556 3019.4 379.884C2848.16 437.136 2678.06 599.331 2557.5 736.757C2629.66 686.002 2720.61 629.73 2831.26 574.195C2993.49 493.038 3145.56 467.661 3272.23 467.661L3272.21 467.664ZM3514.46 822.684C3595.77 858.479 3654.08 897.955 3686.35 922.596C3691.68 903.477 3692.19 874.171 3670.34 836.175C3574.55 670.052 3359.99 614.518 3190.52 618.318C3012.16 622.242 2802.18 723.629 2644.51 817.905C2732.42 789.217 2836.85 762.37 2950.81 747.779C3202.59 715.538 3396.18 770.827 3514.46 822.684ZM3380.82 1200.52C3385.9 1188.26 3388.7 1170.12 3381.96 1144.75C3357.83 1053.9 3300.91 943.686 3073.39 895.993C2959.18 872.092 2813.85 894.646 2689.25 926.397C2744.89 925.299 2805.87 927.253 2869.77 934.613C3148.36 966.73 3320.88 1132.6 3380.84 1200.52H3380.82ZM2768.64 1059.05C2934.3 1118.26 3045.83 1271.63 3088.01 1338.44C3091.31 1331.45 3093.6 1322.14 3093.6 1309.26C3093.6 1209.11 3041.26 1140.33 2918.8 1079.4C2865.06 1052.67 2789.21 1037.72 2692.93 1034.77C2716.94 1041.63 2742.34 1049.73 2768.64 1059.05Z" fill="#F2994A"/>
<path d="M4298.31 746.372C4348.1 669.973 4399.03 594.216 4447.67 517.174C4458.68 499.62 4461.85 477.206 4468.49 456.716C4482.09 413.458 4494.92 369.771 4510.54 319.735C4465.29 364.607 4424.29 404.938 4383.46 445.852C4382.31 445.211 4380.55 444.726 4379.4 444.085C4395.47 389.862 4412.15 335.483 4430.16 275.437C4379.62 325.747 4332.88 372.256 4285.98 418.181C4284.45 417.326 4283.3 416.685 4281.76 415.83C4300.01 355.413 4317.86 294.783 4338.27 228.172C4328.18 237.354 4321.89 242.735 4316.21 247.959C4282.99 281.272 4249.23 313.787 4216.77 347.527C4204.69 360.04 4193.91 373.78 4185.06 388.587C4141.27 464.376 4098.24 540.592 4054.83 616.594C4062.83 618.59 4070.24 620.743 4078.25 622.739C4164.12 642.461 4237.08 684.606 4298.31 746.372Z" fill="#219653"/>
<path d="M3758.23 1580.11C3805.2 1507.57 3852.16 1435.03 3899.13 1362.49C3840.06 1307.36 3770.53 1270.59 3690.98 1251.43C3648.23 1326.31 3605.1 1400.99 3562.58 1475.51C3592.41 1487.2 3623.61 1495.71 3651.45 1510.73C3688.26 1531.25 3722.59 1556.8 3758.23 1580.11Z" fill="#219653"/>
<path d="M4130.08 1007.99C4168.75 947.603 4208.02 887.07 4246.7 826.687C4180.38 760.604 4101.6 716.206 4007.32 697.721C3970.84 761.294 3934.5 825.451 3898.02 889.024C3986.69 908.334 4064 947.478 4130.08 1007.99Z" fill="#7A9B6D"/>
<path d="M3333.56 1875.52C3284.39 1961.15 3235.22 2046.78 3185.83 2132.77C3239.52 2162.7 3290.91 2191.34 3344.6 2221.26C3399.09 2136.13 3453.14 2051.74 3507.19 1967.36C3456.53 1923.82 3398.07 1894.19 3333.56 1875.52Z" fill="#219653"/>
<path d="M3950.91 1282.76C3993.22 1218 4035.15 1153.01 4077.7 1087.88C4073.16 1084.35 4068.61 1080.84 4064.28 1076.95C4003.57 1022.87 3932.55 987.737 3852.05 971.005C3814.01 1037.17 3776.36 1103.55 3738.32 1169.71C3742.6 1171.11 3746.66 1172.87 3750.77 1173.69C3827.29 1193.64 3894.53 1229.13 3950.91 1282.76Z" fill="#219653"/>
<path d="M3560.52 1885.04C3609.04 1809.9 3657.72 1735.35 3706.23 1660.22C3699.78 1655.63 3693.53 1650.68 3687.08 1646.09C3635.57 1606.53 3580.24 1574.21 3515.78 1558.03C3470.82 1636.62 3425.87 1715.21 3380.68 1794.18C3447.38 1812.6 3505.67 1845.08 3560.52 1885.04Z" fill="#7A9B6D"/>
<path d="M4007.32 697.724C4101.21 715.995 4180.38 760.606 4246.7 826.689C4263.85 799.723 4281.16 773.341 4298.31 746.374C4237.08 684.608 4164.12 642.463 4077.87 622.527C4070.24 620.745 4062.45 618.378 4054.44 616.382C4039.04 643.833 4023.1 670.487 4007.32 697.724Z" fill="#9FCC58"/>
<path d="M3851.83 971.379C3932.55 987.737 4003.35 1023.25 4064.06 1077.32C4068.39 1081.21 4073.16 1084.35 4077.48 1088.25C4095.01 1061.49 4112.32 1035.11 4129.47 1008.14C4063.78 947.844 3986.31 908.118 3897.79 889.39C3882.62 916.475 3867.23 943.927 3851.83 971.379Z" fill="#9FCC59"/>
<path d="M3950.91 1282.76C3893.92 1229.29 3827.29 1193.64 3750.54 1174.06C3746.04 1173.03 3742.38 1171.47 3738.1 1170.08C3722.31 1197.32 3706.15 1224.34 3690.38 1251.58C3769.93 1270.74 3839.46 1307.52 3898.53 1362.65C3916.45 1336.11 3933.98 1309.36 3950.91 1282.76Z" fill="#9FCD58"/>
<path d="M3516.16 1558.23C3580.86 1574.05 3636.17 1606.37 3687.46 1646.29C3693.69 1651.25 3700.16 1655.84 3706.61 1660.43C3724.15 1633.68 3741.08 1607.08 3758.61 1580.33C3722.97 1557 3688.64 1531.46 3651.23 1511.1C3623.61 1495.71 3592.41 1487.2 3562.36 1475.89C3546.58 1503.12 3531.18 1530.58 3516.16 1558.23Z" fill="#9FCC59"/>
<path d="M3560.52 1885.03C3505.45 1845.45 3447.38 1812.59 3380.68 1794.17C3364.9 1821.42 3349.12 1848.65 3332.95 1875.67C3397.69 1893.98 3455.93 1923.97 3506.59 1967.51C3524.79 1939.65 3542.77 1912.15 3560.52 1885.03Z" fill="#9FCD58"/>
<path d="M1043.92 2539.2C1069.58 2397.27 1097.59 2256.09 1120.54 2113.79C1142.32 1980.12 1158.66 1845.7 1178.5 1711.66C1196.39 1591.13 1213.12 1470.61 1234.51 1350.83C1257.07 1223.17 1290.91 1097.76 1346.53 978.739C1440.66 777.859 1598.97 650.949 1818.35 593.126C1909.76 569.096 2003.11 556.33 2097.63 551.074C2197.98 545.441 2298.33 545.066 2398.3 555.203C2579.17 573.977 2747.59 624.291 2890.34 738.81C2980.58 811.276 3047.48 900.642 3100 1000.89C3175.45 1145.07 3220.57 1299.39 3251.69 1457.08C3286.7 1633.56 3317.43 1810.41 3349.33 1987.26C3378.5 2150.59 3409.61 2313.54 3452.01 2474.62C3466.4 2529.44 3474.57 2585.01 3458.24 2640.95C3454.73 2652.59 3448.12 2663.48 3443.06 2675.12C3444.24 2657.1 3445.4 2639.45 3446.18 2621.43C3397.17 2747.96 3362.94 2878.25 3330.27 3013.05C3215.91 2937.2 3103.11 2864.36 2981.75 2805.04C2989.14 2812.92 2996.15 2820.43 3003.53 2828.31C2964.63 2831.69 2925.74 2835.45 2886.85 2838.83C2890.73 2818.92 2894.62 2799.02 2898.12 2779.12C2895.79 2778.38 2893.06 2777.63 2890.73 2776.88C2840.55 2896.65 2790.38 3016.43 2739.42 3138.08C2730.48 3128.32 2721.92 3117.8 2712.2 3108.04C2641.79 3037.45 2571.39 2966.86 2500.6 2896.65C2488.15 2884.63 2472.59 2875.62 2458.59 2865.11C2457.03 2862.86 2455.48 2860.23 2453.92 2857.98L2454.31 2858.73C2453.92 2857.6 2453.53 2856.85 2453.15 2855.72C2452.36 2856.47 2451.59 2857.23 2450.81 2857.6C2426.3 2858.73 2401.8 2859.47 2377.3 2860.61C2370.68 2857.6 2369.52 2857.6 2363.68 2865.11C2301.45 2950.72 2239.21 3036.33 2176.97 3121.93C2165.3 3138.08 2154.42 3154.22 2143.14 3170.37C2095.3 3092.27 2048.62 3015.3 2000.78 2939.08C1980.55 2906.41 1957.6 2875.25 1935.82 2844.08C1934.65 2842.21 1929.59 2842.96 1926.09 2842.21C1919.48 2840.7 1912.87 2839.2 1905.87 2837.7C1910.15 2826.81 1914.03 2815.92 1918.31 2804.66C1919.09 2803.16 1920.26 2801.65 1921.03 2800.16C1921.03 2800.16 1920.26 2799.41 1919.48 2799.02C1918.7 2800.53 1917.92 2802.41 1917.15 2803.91C1913.26 2806.91 1908.59 2809.16 1905.87 2812.92C1838.97 2904.53 1772.45 2996.52 1705.94 3088.52C1699.71 3097.15 1693.1 3106.17 1686.88 3115.17C1684.15 3112.92 1682.99 3112.17 1682.21 3111.05C1627.37 3021.68 1572.52 2931.94 1516.9 2842.58C1504.46 2822.68 1488.12 2805.04 1473.73 2786.26V2786.63C1473.73 2784.76 1473.34 2782.88 1473.34 2781.38C1472.17 2781.75 1471.01 2782.13 1469.83 2782.51C1455.83 2777.25 1441.83 2772.37 1428.22 2767.11C1430.55 2764.49 1432.88 2761.86 1434.82 2759.23C1310.36 2808.79 1196.01 2874.49 1077.37 2941.33C1077.37 2914.29 1078.92 2891.02 1076.97 2868.11C1071.14 2791.9 1065.31 2716.05 1057.91 2639.83C1055.19 2606.41 1048.98 2572.99 1043.92 2539.2ZM2213.54 2324.8C2210.04 2327.06 2205.37 2328.94 2203.04 2331.94C2149.75 2406.28 2096.46 2480.62 2044.34 2555.34C2025.28 2582.38 2008.55 2610.91 1989.49 2640.58C1919.87 2527.93 1848.69 2419.8 1763.89 2320.68C1824.18 2473.87 1903.53 2617.3 1989.49 2759.98C1993 2755.47 1995.33 2752.84 1996.88 2750.22C2065.73 2634.57 2131.85 2517.42 2187.09 2394.64C2197.21 2371.74 2205.76 2348.46 2214.71 2325.18C2215.49 2323.68 2216.65 2322.17 2217.43 2320.68C2217.43 2320.68 2216.65 2319.92 2215.88 2319.55C2214.71 2321.43 2214.32 2323.31 2213.54 2324.8ZM2504.48 2324.43C2587.73 2184.38 2667.46 2043.57 2725.42 1891.89C2641.4 1989.14 2571.78 2096.14 2502.93 2206.16C2432.92 2093.14 2361.73 1985.38 2276.94 1882.5C2285.89 1935.81 2455.87 2264.73 2504.48 2324.43ZM1646.82 2384.88C1698.94 2309.04 1875.14 1983.87 1867.75 1948.96C1785.67 2049.2 1716.05 2155.84 1647.2 2265.86C1577.19 2152.84 1506.01 2045.08 1421.22 1945.58C1481.12 2098.77 1561.25 2241.82 1646.82 2384.88ZM3152.9 2221.92C3069.27 2319.55 2999.25 2425.43 2931.18 2535.44C2906.29 2496.77 2883.34 2459.97 2859.23 2423.93C2835.11 2387.88 2810.6 2351.84 2785.32 2316.54C2760.43 2282 2733.98 2248.21 2708.3 2214.41C2706.75 2215.54 2705.19 2216.29 2703.25 2217.42C2765.48 2369.11 2844.84 2512.54 2931.18 2655.97C3015.59 2514.05 3094.94 2373.24 3152.9 2221.92Z" fill="#56CCF2"/>
<path d="M3003.54 2828.31C2996.15 2820.43 2989.14 2812.92 2981.75 2805.04C3103.11 2864.36 3215.91 2937.2 3330.27 3013.05C3363.33 2878.63 3397.17 2747.96 3446.18 2621.42C3445.01 2639.45 3443.84 2657.1 3443.07 2675.12C3434.12 2732.57 3425.95 2790.02 3415.45 2847.08C3400.28 2926.69 3383.17 3006.29 3367.22 3085.89C3366.44 3089.27 3364.88 3092.64 3363.33 3098.27C3308.09 3058.85 3253.25 3020.93 3200.35 2981.13C3139.67 2935.33 3080.55 2887.64 3020.65 2840.7C3015.21 2836.2 3009.37 2832.45 3003.54 2828.31Z" fill="#9B51E0"/>
<path d="M1043.92 2539.2C1048.98 2572.99 1055.19 2606.41 1058.31 2640.2C1065.7 2716.05 1071.53 2792.27 1077.37 2868.49C1078.92 2891.39 1077.76 2914.29 1077.76 2941.7C1196.39 2874.88 1311.13 2809.16 1435.22 2759.61C1432.89 2762.23 1430.55 2764.86 1428.61 2767.49C1311.13 2854.98 1188.61 2934.95 1062.19 3010.05C1052.86 3015.68 1043.52 3020.93 1031.08 3028.44C1030.3 3017.17 1029.13 3008.17 1029.13 2999.53C1025.25 2855.35 1027.19 2711.16 1039.64 2567.36C1040.41 2557.97 1042.36 2548.59 1043.92 2539.2Z" fill="#9B51E0"/>
<path d="M1926.49 2842.58C1929.98 2842.96 1935.04 2842.58 1936.21 2844.46C1958.38 2876 1980.94 2907.16 2001.16 2939.45C2049 3015.67 2095.68 3092.64 2143.52 3170.74C2154.81 3154.97 2165.7 3138.45 2177.36 3122.31C2239.6 3036.7 2301.84 2951.09 2364.07 2865.49C2369.52 2857.98 2370.68 2857.98 2377.69 2860.98C2310.79 2996.9 2233.38 3127.56 2151.3 3255.22C2148.19 3260.48 2144.31 3265.36 2139.24 3272.5C2120.58 3238.33 2102.3 3207.17 2086.35 3174.87C2035 3069.37 1984.83 2963.11 1934.26 2857.59C1931.93 2852.72 1929.21 2847.84 1926.49 2842.58Z" fill="#9B51E0"/>
<path d="M1918.7 2805.41C1914.43 2816.3 1910.54 2827.18 1906.25 2838.45C1876.31 2892.9 1847.52 2948.09 1816.01 3001.78C1773.62 3073.87 1729.67 3145.21 1684.55 3219.56C1681.04 3214.3 1679.1 3211.67 1677.55 3208.67C1605.58 3078 1537.13 2945.84 1480.34 2808.41C1477.61 2801.65 1476.06 2794.14 1474.11 2787.01C1488.51 2805.79 1504.84 2823.43 1517.29 2843.33C1572.92 2932.32 1627.37 3022.06 1682.6 3111.8C1683.38 3112.92 1684.55 3113.3 1687.27 3115.93C1693.88 3106.91 1700.1 3098.28 1706.33 3089.27C1772.84 2997.27 1839.35 2905.66 1906.25 2813.67C1908.98 2809.92 1913.64 2807.66 1917.54 2804.65L1918.7 2805.41Z" fill="#9B51E0"/>
<path d="M2458.59 2865.11C2472.59 2875.62 2488.15 2884.64 2500.6 2896.65C2571.78 2966.49 2641.79 3037.46 2712.2 3108.05C2721.92 3117.81 2730.48 3128.32 2739.42 3138.08C2790.38 3016.43 2840.56 2896.65 2890.73 2776.88C2893.06 2777.63 2895.79 2778.38 2898.12 2779.13C2894.24 2799.03 2890.34 2818.93 2886.85 2838.83C2863.51 2918.43 2840.94 2998.4 2816.83 3078.01C2800.49 3130.95 2781.43 3183.51 2763.15 3237.58C2759.26 3234.95 2757.32 3234.2 2755.76 3232.32C2653.07 3118.18 2553.5 3001.41 2464.82 2876.75C2462.48 2873 2460.92 2869.25 2458.59 2865.11Z" fill="#9B51E0"/>
<path d="M1470.22 2782.88C1471.39 2782.51 1472.56 2782.13 1473.73 2781.76C1473.73 2783.63 1474.11 2785.51 1474.11 2787.02C1472.94 2785.51 1471.78 2784.39 1470.22 2782.88Z" fill="#9B51E0"/>
<path d="M2453.92 2857.98C2455.48 2860.23 2457.03 2862.86 2458.59 2865.11C2457.42 2862.86 2455.48 2860.61 2453.92 2857.98Z" fill="#9B51E0"/>
<path d="M2451.2 2857.98C2451.98 2857.23 2452.76 2856.47 2453.53 2856.1C2453.92 2857.23 2454.31 2857.98 2454.7 2859.1H2452.76L2451.2 2857.98Z" fill="#9B51E0"/>
<path d="M2504.48 2324.43C2456.26 2265.11 2286.27 1936.2 2276.94 1882.5C2361.73 1985.38 2432.92 2093.14 2502.93 2206.16C2572.17 2096.14 2641.4 1989.14 2725.42 1891.89C2667.46 2043.2 2587.73 2184.38 2504.48 2324.43Z" fill="#9B51E0"/>
<path d="M1646.82 2384.88C1561.25 2241.82 1481.12 2098.77 1421.61 1945.58C1506.4 2045.08 1577.58 2152.84 1647.59 2265.86C1716.44 2155.84 1786.06 2049.21 1868.14 1948.96C1874.75 1983.88 1698.55 2309.41 1646.82 2384.88Z" fill="#9B51E0"/>
<path d="M3152.9 2221.92C3094.94 2373.24 3015.59 2514.05 2930.79 2655.97C2844.45 2512.54 2765.09 2369.11 2702.86 2217.42C2704.42 2216.29 2705.97 2215.55 2707.92 2214.41C2733.59 2248.59 2760.04 2282 2784.94 2316.55C2810.21 2351.84 2834.72 2387.88 2858.84 2423.93C2882.95 2459.97 2905.91 2496.77 2930.79 2535.44C2999.25 2425.8 3069.27 2319.55 3152.9 2221.92Z" fill="#9B51E0"/>
<path d="M2214.32 2325.55C2204.98 2348.84 2196.82 2372.11 2186.7 2395.02C2131.47 2517.42 2065.34 2634.57 1996.49 2750.59C1994.94 2753.22 1992.61 2755.47 1989.11 2760.35C1903.15 2618.05 1823.79 2474.24 1763.51 2321.05C1848.3 2420.55 1919.48 2528.31 1989.11 2640.95C2008.16 2610.91 2025.28 2582.75 2043.95 2555.72C2096.46 2481 2149.75 2406.66 2202.65 2332.31C2204.98 2328.94 2209.65 2327.43 2213.16 2325.18L2214.32 2325.55Z" fill="#9B51E0"/>
<path d="M2213.54 2324.81C2214.32 2323.31 2214.71 2321.43 2215.49 2319.93C2215.88 2320.3 2217.04 2321.05 2217.04 2321.05C2216.26 2322.56 2215.09 2324.05 2214.32 2325.56L2213.54 2324.81Z" fill="#9B51E0"/>
<path d="M1917.54 2804.65C1918.31 2803.16 1919.1 2801.28 1919.87 2799.77C1920.26 2800.16 1921.43 2800.9 1921.43 2800.9C1920.65 2802.4 1919.48 2803.91 1918.7 2805.41L1917.54 2804.65Z" fill="#9B51E0"/>
<path d="M2541.91 1228.64C2641.1 1223.51 2729.67 1184.18 2783.24 1089.72C2839.92 990.115 2808.93 867.867 2711.51 796.91C2598.6 714.412 2437.85 721.678 2332.9 813.153C2206.7 923.86 2235.92 1116.21 2390.91 1194.87C2436.08 1217.52 2483.9 1227.78 2541.91 1228.64ZM2758.45 984.136C2758.89 1025.6 2744.72 1062.36 2718.15 1094.84C2641.99 1187.18 2492.31 1205.13 2390.91 1134.6C2276.66 1054.67 2279.32 902.92 2398.44 829.823C2486.56 775.965 2578.67 775.965 2667.22 829.823C2724.8 864.45 2757.12 916.6 2758.45 984.136Z" fill="#7C9D6F"/>
<path d="M2758.45 984.136C2757.57 916.592 2725.24 864.441 2667.22 829.822C2578.67 775.963 2486.56 775.963 2398.44 829.822C2278.87 902.92 2276.66 1054.23 2390.91 1134.59C2491.87 1205.12 2641.99 1187.18 2718.15 1094.84C2744.28 1062.36 2758.45 1025.59 2758.45 984.136ZM2487.89 1126.9C2464.86 1120.92 2440.51 1117.49 2418.81 1108.52C2368.32 1087.57 2336.45 1049.96 2333.78 996.103C2331.13 945.665 2358.59 907.619 2404.19 883.685C2466.63 851.194 2529.52 854.611 2587.08 893.939C2657.04 941.815 2661.92 1029.44 2598.59 1085.01C2567.59 1112.37 2530.4 1123.48 2487.89 1126.9Z" fill="#FBFCFB"/>
<path d="M2487.89 1126.9C2530.4 1123.06 2567.59 1111.94 2598.59 1085.01C2661.47 1029.44 2657.04 941.815 2587.08 893.939C2529.07 854.612 2466.64 850.769 2404.19 883.685C2358.59 907.195 2331.57 945.665 2333.78 996.103C2336.45 1049.96 2368.32 1087.58 2418.81 1108.52C2440.51 1117.5 2464.86 1120.92 2487.89 1126.9ZM2502.06 895.219C2525.08 903.344 2550.33 907.619 2570.7 919.586C2618.07 946.946 2625.16 1003.8 2588.85 1041.84C2545.45 1087.15 2456.89 1086.72 2414.38 1041.41C2382.49 1007.65 2384.71 960.194 2419.7 928.991C2442.72 908.9 2469.73 899.926 2502.06 895.219Z" fill="#8CCDBE"/>
<path d="M2502.06 895.219C2469.73 899.926 2442.28 909.332 2419.7 929.416C2384.71 960.194 2382.94 1007.65 2414.38 1041.84C2456.89 1087.57 2545.9 1087.57 2588.85 1042.27C2625.16 1004.22 2618.07 947.37 2570.7 920.018C2550.33 907.619 2525.53 902.92 2502.06 895.219ZM2433.42 949.94C2433.42 931.129 2451.57 914.455 2471.94 914.455C2490.99 914.031 2508.7 930.705 2509.15 949.083C2509.15 967.886 2491.43 984.136 2470.17 984.56C2450.69 984.56 2433.42 968.743 2433.42 949.94ZM2552.1 992.253C2562.72 1006.36 2574.68 1016.19 2572.91 1022.61C2570.25 1031.58 2558.74 1042.27 2549.43 1044.4C2536.6 1046.96 2524.2 1036.71 2527.3 1022.61C2529.52 1013.63 2540.14 1006.36 2552.1 992.253Z" fill="#272525"/>
<path d="M2433.42 949.94C2433.42 968.743 2450.69 984.56 2470.62 984.136C2491.87 983.704 2509.59 967.462 2509.59 948.659C2509.59 930.272 2491.87 914.031 2472.39 914.031C2451.13 914.463 2432.98 931.561 2433.42 949.94Z" fill="#F2F2F2"/>
<path d="M2552.1 992.252C2540.14 1005.93 2529.52 1013.2 2527.3 1022.61C2524.2 1036.71 2536.6 1046.54 2549.43 1044.4C2558.74 1042.69 2570.7 1031.58 2572.91 1022.61C2574.68 1016.62 2562.72 1006.79 2552.1 992.252Z" fill="#EEEDEC"/>
<path d="M1912.43 1228.64C1813.24 1223.51 1724.67 1184.18 1671.09 1089.72C1614.41 990.115 1645.41 867.867 1742.83 796.91C1855.75 714.412 2016.49 721.678 2121.44 813.153C2247.64 923.86 2218.42 1116.21 2063.43 1194.87C2018.27 1217.52 1970.44 1227.78 1912.43 1228.64ZM1695.89 984.136C1695.45 1025.6 1709.62 1062.36 1736.19 1094.84C1812.35 1187.18 1962.03 1205.13 2063.43 1134.6C2177.68 1054.67 2175.02 902.92 2055.9 829.823C1967.78 775.965 1875.68 775.965 1787.11 829.823C1729.55 864.45 1697.22 916.6 1695.89 984.136Z" fill="#7C9D6F"/>
<path d="M1695.89 984.136C1696.78 916.592 1729.11 864.441 1787.11 829.822C1875.68 775.963 1967.78 775.963 2055.9 829.822C2175.46 902.92 2177.68 1054.23 2063.43 1134.59C1962.47 1205.12 1812.35 1187.18 1736.19 1094.84C1710.06 1062.36 1695.89 1025.59 1695.89 984.136ZM1966.45 1126.9C1989.48 1120.92 2013.83 1117.49 2035.53 1108.52C2086.01 1087.57 2117.9 1049.96 2120.55 996.103C2123.21 945.665 2095.76 907.619 2050.14 883.685C1987.71 851.194 1924.83 854.611 1867.26 893.939C1797.3 941.815 1792.43 1029.44 1855.75 1085.01C1886.75 1112.37 1923.94 1123.48 1966.45 1126.9Z" fill="#FBFCFB"/>
<path d="M1966.45 1126.9C1923.94 1123.06 1886.75 1111.94 1855.75 1085.01C1792.87 1029.44 1797.3 941.815 1867.26 893.939C1925.27 854.612 1987.71 850.769 2050.14 883.685C2095.76 907.195 2122.77 945.665 2120.55 996.103C2117.9 1049.96 2086.01 1087.58 2035.53 1108.52C2013.83 1117.5 1989.48 1120.92 1966.45 1126.9ZM1952.28 895.219C1929.26 903.344 1904.02 907.619 1883.65 919.586C1836.26 946.946 1829.18 1003.8 1865.5 1041.84C1908.89 1087.15 1997.45 1086.72 2039.96 1041.41C2071.84 1007.65 2069.63 960.194 2034.65 928.991C2011.62 908.9 1984.61 899.926 1952.28 895.219Z" fill="#8CCDBE"/>
<path d="M1952.28 895.219C1984.61 899.926 2012.07 909.332 2034.65 929.416C2069.63 960.194 2071.4 1007.65 2039.96 1041.84C1997.45 1087.57 1908.45 1087.57 1865.5 1042.27C1829.18 1004.22 1836.26 947.37 1883.65 920.018C1904.02 907.619 1928.82 902.92 1952.28 895.219ZM2020.92 949.94C2020.92 931.129 2002.76 914.455 1982.39 914.455C1963.36 914.031 1945.64 930.705 1945.2 949.083C1945.2 967.886 1962.91 984.136 1984.17 984.56C2003.65 984.56 2020.92 968.743 2020.92 949.94ZM1902.25 992.253C1891.61 1006.36 1879.66 1016.19 1881.43 1022.61C1884.09 1031.58 1895.6 1042.27 1904.9 1044.4C1917.74 1046.96 1930.14 1036.71 1927.04 1022.61C1924.83 1013.63 1914.2 1006.36 1902.25 992.253Z" fill="#272525"/>
<path d="M2020.92 949.94C2020.92 968.743 2003.65 984.56 1983.73 984.136C1962.47 983.704 1944.76 967.462 1944.76 948.659C1944.76 930.272 1962.47 914.031 1981.95 914.031C2003.2 914.463 2021.36 931.561 2020.92 949.94Z" fill="#F2F2F2"/>
<path d="M1902.25 992.252C1914.2 1005.93 1924.83 1013.2 1927.04 1022.61C1930.14 1036.71 1917.74 1046.54 1904.9 1044.4C1895.6 1042.69 1883.65 1031.58 1881.43 1022.61C1879.67 1016.62 1891.61 1006.79 1902.25 992.252Z" fill="#EEEDEC"/>
<path d="M2588.27 1312.28H1830.66C1807.64 1312.28 1788.98 1330.53 1788.98 1353.03V1840.05C1788.98 1862.55 1807.64 1880.8 1830.66 1880.8H2588.27C2611.28 1880.8 2629.94 1862.55 2629.94 1840.05V1353.03C2629.94 1330.53 2611.28 1312.28 2588.27 1312.28Z" fill="#262322"/>
<path d="M2556.73 1358.57C2540.56 1373.32 2524.4 1388.08 2506.98 1404.01C2497.45 1382.56 2488.25 1361.62 2478.4 1339.69C2493.16 1341.52 2506.81 1343.2 2520.18 1344.91L2519.88 1344.67C2521.87 1345.28 2523.85 1345.9 2525.87 1346.78C2534.58 1348.64 2543.26 1350.24 2552.03 1352.63C2554.01 1353.24 2555.14 1356.33 2556.73 1358.57Z" fill="#F5F4F4"/>
<path d="M1884.96 1834.71C1898.81 1817.9 1912.65 1801.09 1927.57 1782.94C1940.14 1802.86 1952.32 1822.33 1965.29 1842.71C1950.4 1842.91 1936.65 1843.1 1923.16 1843.25L1923.49 1843.45C1921.43 1843.1 1919.38 1842.77 1917.26 1842.17C1908.36 1841.52 1899.52 1841.13 1890.5 1839.96C1888.44 1839.62 1886.88 1836.72 1884.96 1834.71Z" fill="#F5F4F4"/>
<path d="M2453.96 1338.68C2453.74 1341.18 2454.46 1344.01 2453.19 1345.67C2441.46 1362.85 2429.39 1379.84 2416.73 1397.8C2404.34 1382.21 2389.63 1364.17 2375.19 1346.06C2396.32 1343.81 2417.47 1341.56 2438.94 1339.49C2443.99 1339.39 2448.97 1339.04 2453.96 1338.68Z" fill="#F7F6F6"/>
<path d="M1985.79 1845.32C1986.35 1842.86 1986.02 1839.98 1987.51 1838.49C2001.49 1822.95 2015.77 1807.64 2030.78 1791.46C2040.94 1808.5 2053.05 1828.25 2064.88 1848.04C2043.62 1847.58 2022.36 1847.12 2000.8 1846.42C1995.77 1845.88 1990.79 1845.6 1985.79 1845.32Z" fill="#F7F6F6"/>
<path d="M1956.08 1336.08C1957.17 1338.2 1959.37 1341.1 1958.81 1342.42C1949.77 1360.41 1940.19 1378.39 1930.33 1396.9C1913.89 1379.98 1898 1363.31 1882.11 1346.92C1888.14 1345.86 1894.17 1344.54 1900.2 1343.49C1918.82 1340.84 1937.45 1338.46 1956.08 1336.08Z" fill="#F5F4F4"/>
<path d="M2477.69 1844.1C2477.1 1841.81 2475.61 1838.51 2476.44 1837.33C2489.29 1821.66 2502.68 1806.11 2516.45 1790.09C2528.71 1810.04 2540.5 1829.62 2552.33 1848.94C2546.21 1848.72 2540.04 1848.75 2533.91 1848.53C2515.13 1847.22 2496.41 1845.66 2477.69 1844.1Z" fill="#F5F4F4"/>
<path d="M2246.99 1336.08C2234.11 1354.85 2221.79 1372.57 2208.37 1392.14C2194.94 1373.62 2182.07 1355.91 2167.82 1336.08C2194.94 1336.08 2219.87 1336.08 2246.99 1336.08Z" fill="#F3F2F1"/>
<path d="M2192.75 1852.24C2205.63 1833.47 2217.95 1815.75 2231.37 1796.18C2244.79 1814.69 2257.67 1832.4 2271.92 1852.24C2244.79 1852.24 2219.87 1852.24 2192.75 1852.24Z" fill="#F3F2F1"/>
<path d="M2347.25 1344.81C2331.36 1362.79 2316.84 1378.91 2300.95 1396.63C2289.72 1376.53 2279.31 1357.76 2267.53 1336.08C2294.65 1339.25 2319.85 1341.9 2347.25 1344.81Z" fill="#F5F4F4"/>
<path d="M2092.49 1843.51C2108.38 1825.53 2122.9 1809.4 2138.79 1791.69C2150.02 1811.78 2160.43 1830.56 2172.21 1852.24C2145.09 1849.07 2119.89 1846.42 2092.49 1843.51Z" fill="#F5F4F4"/>
<path d="M2155.77 1336.08C2142.62 1354.85 2130.57 1372.57 2117.15 1391.87C2103.45 1373.1 2090.58 1355.38 2076.6 1336.08C2103.73 1336.08 2128.93 1336.08 2155.77 1336.08Z" fill="#F5F4F4"/>
<path d="M2283.97 1852.24C2297.12 1833.47 2309.17 1815.74 2322.59 1796.44C2336.29 1815.22 2349.16 1832.93 2363.14 1852.24C2336.01 1852.24 2310.81 1852.24 2283.97 1852.24Z" fill="#F5F4F4"/>
<path d="M1986.75 1336.34C2012.51 1336.34 2038.53 1336.34 2064.28 1336.08C2051.96 1354.32 2039.62 1372.57 2026.2 1392.14C2012.51 1372.83 1999.63 1354.59 1986.75 1336.34Z" fill="#F9F8F8"/>
<path d="M2452.99 1851.97C2427.23 1851.97 2401.21 1851.97 2375.46 1852.24C2387.78 1833.99 2400.12 1815.75 2413.54 1796.18C2427.23 1815.48 2440.11 1833.72 2452.99 1851.97Z" fill="#F9F8F8"/>
</svg>
