<svg width="7086" height="6248" viewBox="0 0 7086 6248" fill="none" xmlns="http://www.w3.org/2000/svg">
<g filter="url(#filter0_d_0_1)">
<path d="M1878.36 1154.52C1817.2 1118.54 1750.14 1090.73 1679.45 1072.06C1393.99 1015.58 1164.37 1090.23 996.166 1294.79C936.534 1371.04 903.401 1460.58 900.767 1552.66C898.08 1644.76 926 1735.57 981.205 1814.29C1035.83 1887.49 1117.17 1942.64 1212.25 1970.99C1307.33 1999.39 1410.64 1999.3 1505.61 1970.81C1601.91 1943.55 1676.28 1876.62 1704.16 1792.24C1739.35 1666.59 1710.53 1511.71 1564.46 1467.56C1474.54 1440.94 1416.87 1497.42 1374.56 1538.65C1332.21 1579.88 1321.36 1584.77 1309.03 1577.28H1308.98C1277.53 1558.56 1262.62 1525 1271.52 1492.86C1294.7 1426.97 1353.39 1374.92 1428.82 1353.23H1432.61C1519.63 1324.83 1617.09 1334.24 1694.78 1378.58C1801.35 1438.02 1872.09 1535.23 1888.11 1644.18C1901.59 1731.75 1886.32 1820.88 1844.07 1901.29C1801.77 1981.69 1734.24 2050.13 1649.11 2098.77C1544.71 2147.62 1426.6 2170.13 1308.24 2163.7C1136.03 2144.93 978.953 2069.04 869.964 1951.98C864.591 1946.22 856.795 1942.53 848.313 1941.75C839.78 1940.93 831.299 1943.12 824.609 1947.78C810.648 1957.78 807.752 1975.35 817.866 1988.37C922.799 2119 1088.1 2203.6 1270.79 2220.18L1305.61 2222.78C1397.79 2231.14 1490.98 2221.96 1578.69 2195.84C1614.56 2184.11 1648.96 2169.18 1681.3 2151.37C1727.82 2129.55 1771.07 2102.97 1810.21 2072.11C1818.05 2065.62 1825.96 2059.46 1833.44 2052.61L1833.38 2052.66C1949.75 1946.77 2006.38 1801.85 1988.1 1656.51C1974.99 1494.42 1874.69 1347.07 1717.29 1258.78C1647.96 1228 1570 1214.72 1492.4 1220.47C1414.76 1226.22 1340.59 1250.74 1278.27 1291.24C1216.43 1328.64 1167.86 1380.23 1137.94 1440.23C1108.07 1500.22 1098.01 1566.2 1108.97 1630.86C1119.45 1695.79 1172.29 1750.98 1265.95 1793.23H1265.9C1304.62 1812.09 1348.66 1821.13 1393.01 1819.44C1437.37 1817.7 1480.24 1805.24 1516.91 1783.5C1561.1 1757.93 1588.81 1715.84 1591.82 1669.86C1595.71 1689.49 1595.71 1709.63 1591.82 1729.26C1583.44 1767.75 1563.47 1803.68 1533.92 1833.32C1504.42 1862.95 1466.34 1885.32 1423.62 1898.11C1364.98 1915 1301.67 1915 1243.03 1898.11C1173.02 1875.6 1115.13 1831.4 1080.46 1774.05C1066.08 1751.27 1053.6 1727.62 1043.01 1703.28C994.812 1605.8 990.545 1496.22 1031 1396.14C1095.11 1255.15 1240.44 1154 1413.12 1130.22C1581.01 1110.86 1751.1 1147.66 1888.85 1233.13C1994.26 1302.49 2067.95 1402.02 2096.77 1513.98C2099.98 1529.23 2116.52 1539.55 2134.22 1537.36C2152.92 1534.57 2165.46 1519.18 2162.3 1502.97C2131.8 1356.14 2027.81 1228.52 1878.36 1154.54V1154.52Z" fill="#1DFF7B" fill-opacity="0.18"/>
</g>
<g filter="url(#filter1_d_0_1)">
<path d="M4263.85 4578.66C4174.93 4526.42 4077.45 4486.05 3974.67 4458.93C3559.68 4376.93 3225.87 4485.32 2981.33 4782.31C2894.64 4893.02 2846.47 5023.02 2842.64 5156.72C2838.74 5290.43 2879.33 5422.28 2959.58 5536.58C3039 5642.84 3157.24 5722.91 3295.47 5764.08C3433.7 5805.32 3583.88 5805.19 3721.96 5763.82C3861.95 5724.24 3970.08 5627.06 4010.6 5504.56C4061.76 5322.12 4019.87 5097.26 3807.51 5033.16C3676.79 4994.51 3592.94 5076.52 3531.44 5136.38C3469.87 5196.24 3454.09 5203.33 3436.17 5192.46H3436.09C3390.38 5165.28 3368.7 5116.56 3381.65 5069.89C3415.34 4974.23 3500.65 4898.65 3610.32 4867.17H3615.83C3742.34 4825.94 3884.03 4839.59 3996.97 4903.96C4151.89 4990.28 4254.73 5131.41 4278.02 5289.59C4297.63 5416.74 4275.42 5546.14 4214 5662.88C4152.51 5779.62 4054.33 5878.98 3930.58 5949.6C3778.79 6020.53 3607.09 6053.21 3435.02 6043.87C3184.67 6016.62 2956.31 5906.44 2797.86 5736.47C2790.05 5728.12 2778.72 5722.75 2766.39 5721.63C2753.98 5720.43 2741.65 5723.61 2731.93 5730.38C2711.63 5744.89 2707.42 5770.42 2722.12 5789.31C2874.67 5978.97 3114.99 6101.81 3380.57 6125.87L3431.19 6129.65C3565.21 6141.78 3700.68 6128.46 3828.19 6090.54C3880.35 6073.5 3930.35 6051.83 3977.37 6025.97C4045 5994.28 4107.87 5955.7 4164.77 5910.89C4176.18 5901.48 4187.67 5892.53 4198.54 5882.58L4198.47 5882.65C4367.63 5728.92 4449.96 5518.51 4423.39 5307.49C4404.32 5072.16 4258.51 4858.23 4029.69 4730.03C3928.91 4685.35 3815.56 4666.06 3702.76 4674.41C3589.88 4682.77 3482.04 4718.36 3391.45 4777.17C3301.54 4831.46 3230.94 4906.37 3187.44 4993.47C3144.02 5080.58 3129.39 5176.37 3145.32 5270.25C3160.56 5364.52 3237.37 5444.66 3373.54 5505.99H3373.47C3429.75 5533.37 3493.78 5546.49 3558.26 5544.04C3622.74 5541.52 3685.08 5523.43 3738.38 5491.87C3802.63 5454.75 3842.91 5393.63 3847.28 5326.87C3852.94 5355.37 3852.94 5384.61 3847.28 5413.11C3835.1 5469 3806.08 5521.17 3763.11 5564.19C3720.23 5607.22 3664.86 5639.7 3602.75 5658.26C3517.52 5682.79 3425.47 5682.79 3340.22 5658.26C3238.45 5625.58 3154.28 5561.41 3103.89 5478.15C3082.98 5445.07 3064.83 5410.73 3049.44 5375.4C2979.37 5233.87 2973.16 5074.76 3031.98 4929.46C3125.18 4724.76 3336.46 4577.91 3587.5 4543.38C3831.56 4515.27 4078.84 4568.7 4279.1 4692.8C4432.34 4793.49 4539.47 4938.01 4581.37 5100.55C4586.04 5122.69 4610.09 5137.68 4635.82 5134.49C4663.01 5130.45 4681.23 5108.11 4676.64 5084.58C4632.3 4871.39 4481.12 4686.1 4263.86 4578.7L4263.85 4578.66Z" fill="#1DFF7B" fill-opacity="0.18"/>
</g>
<g filter="url(#filter2_d_0_1)">
<path d="M6795.58 714.759C6779.46 651.558 6752.43 590.824 6715.38 534.621C6550.57 321.597 6321.46 238.563 6033.16 287.96C5927.95 308.216 5831.57 354.166 5755.6 420.308C5679.59 486.425 5627.15 569.985 5604.52 661.047C5585.91 747.692 5601.47 837.113 5648.7 915.089C5695.89 993.096 5772.04 1055.09 5864.89 1091.19C5957.71 1128.99 6066.29 1124.44 6154.65 1079.13C6281.57 1007.86 6384.85 876.642 6312.77 756.424C6267.95 682.829 6180.07 689.719 6115.78 694.628C6051.44 699.508 6039.52 696.583 6036.47 683.67L6036.43 683.639C6028.32 650.979 6044.32 617.341 6076.71 599.049C6146.75 564.517 6231.81 561.486 6304.79 590.855L6307.58 593.133C6394.49 624.524 6458.7 689.988 6480.27 769.265C6510.96 877.004 6484.92 990.99 6409.13 1080.74C6348.66 1153.25 6265.77 1209.62 6170.02 1243.38C6074.23 1277.1 5969.49 1286.87 5867.7 1271.5C5751.54 1244.71 5646.47 1190.32 5564.48 1114.48C5452.75 997.224 5398.08 847.051 5411.92 695.48C5412.59 688.021 5409.82 680.618 5404.2 674.952C5398.58 669.221 5390.57 665.738 5381.9 665.144C5363.58 664.112 5347.32 675.3 5344.3 690.947C5316.56 850.059 5370.28 1011.58 5491.49 1133.52L5515.04 1156.35C5576.21 1217.87 5652.22 1267.1 5737.8 1300.59C5773.65 1313.51 5810.98 1323.19 5849.12 1329.52C5900.92 1341.41 5954.13 1347.85 6007.76 1348.66C6018.75 1348.61 6029.53 1348.82 6040.54 1348.28H6040.47C6211.28 1340.31 6369.48 1267.75 6472.86 1149.88C6593.49 1022.79 6638.08 854.172 6593.15 694.679C6566.84 630.401 6520.11 573.793 6458.34 531.41C6396.53 488.997 6322.2 462.471 6243.75 454.822C6168.15 445.173 6090.91 453.942 6020.65 480.093C5950.42 506.275 5889.98 548.752 5846.07 602.89C5801.59 656.939 5796.13 729.274 5831.15 816.61L5831.11 816.579C5844.46 853.707 5869.63 886.81 5903.65 912.214C5937.71 937.583 5979.3 954.175 6023.77 960.216C6076.88 967.96 6131.12 953.644 6170.3 921.633C6157.38 938.415 6141.2 953.223 6122.54 965.321C6085.43 988.598 6041.84 1003.03 5996.26 1007.07C5950.72 1011.14 5904.68 1004.72 5862.95 988.458C5806.19 965.661 5759.56 927.623 5729.96 879.975C5696.5 821.364 5689.4 754.08 5709.97 691.08C5717.69 665.685 5727.51 640.79 5739.28 616.532C5782.15 515.883 5867.1 432.725 5977.34 383.425C6137.89 318.245 6326.22 331.166 6472.51 417.407C6611.7 504.021 6707.37 633.266 6740.11 778.881C6761.98 893.212 6736.23 1010.68 6667.46 1110.33C6657.56 1123.48 6661.45 1141.01 6676.25 1150.03C6692.26 1159.21 6713.86 1155.43 6724.56 1141.61C6820.14 1015.3 6846.15 858.97 6795.56 714.783L6795.58 714.759Z" fill="#1DFF7B" fill-opacity="0.18"/>
</g>
<path d="M108 5110.24C1135.79 5115.72 3853.46 5391.25 3354.59 4255.22C2863.59 3137.11 1455.65 2066.42 3622.53 1331.93C4824.87 924.388 5236.08 2159.94 5092.82 2330.24" stroke="#BB6BD9" stroke-width="216" stroke-linecap="round"/>
<path d="M4052.96 2781.94C4052.96 2661.76 4052.96 2540.55 4052.96 2420.38C4052.96 2290.88 4124.9 2194.53 4261.57 2151.02C4387.46 2111.66 4521.74 2083.68 4654.82 2072.29C4980.93 2045.35 5309.43 2041.21 5630.74 2110.62C5778.21 2142.74 5917.28 2195.57 5960.45 2341.64C5970.04 2375.83 5972.43 2413.13 5971.24 2449.39C5967.64 2688.7 5961.64 2928.01 5956.85 3167.32C5953.25 3318.58 5887.31 3454.29 5796.19 3578.61C5688.29 3725.72 5551.61 3850.04 5372.97 3936.02C5099.62 4067.59 4831.06 4052.05 4578.09 3901.84C4326.32 3752.66 4157.27 3546.49 4087.73 3287.5C4064.95 3203.58 4068.55 3113.45 4064.95 3025.39C4061.36 2944.59 4063.75 2863.78 4063.75 2782.97C4060.16 2781.94 4056.56 2781.94 4052.96 2781.94Z" fill="#9B51E0"/>
<path d="M4348.16 2837.53C4348.72 2717.88 4377.67 2627.17 4449.19 2549.69C4584.85 2403.07 4798.28 2406.01 4931.1 2555.57C5070.17 2712.49 5056.55 2971.89 4902.15 3109.69C4765.92 3231.3 4566.12 3221 4447.49 3086.15C4377.67 3006.22 4347.02 2915.5 4348.16 2837.53ZM4415.7 2816.94C4415.7 2904.22 4444.65 2984.64 4498.58 3046.43C4601.88 3164.12 4767.63 3165.59 4873.2 3049.86C4986.16 2926.29 4989 2719.36 4880.02 2593.82C4772.17 2469.27 4605.86 2468.29 4496.87 2592.35C4438.41 2658.55 4416.27 2735.05 4415.7 2816.94Z" fill="#7991B3"/>
<path d="M5791.05 2822.82C5790.48 2928.25 5756.42 3023.38 5674.69 3104.29C5548.67 3229.83 5340.92 3226.4 5219.45 3096.45C5080.95 2947.87 5074.14 2715.92 5204.13 2562.44C5262.02 2493.79 5338.09 2449.65 5437.99 2444.26C5514.62 2440.34 5582.73 2463.87 5640.06 2507.52C5739.39 2582.54 5791.05 2691.9 5791.05 2822.82ZM5723.5 2827.24C5723.5 2737.01 5699.09 2658.55 5638.92 2590.39C5538.46 2477.11 5380.66 2473.19 5273.38 2581.07C5147.37 2707.59 5148.5 2939.04 5276.78 3064.08C5380.09 3164.61 5529.94 3163.14 5629.84 3060.16C5696.82 2991.02 5722.37 2910.11 5723.5 2827.24Z" fill="#7991B3"/>
<path d="M4415.7 2816.94C4416.27 2735.05 4438.97 2658.06 4496.87 2591.86C4605.86 2467.8 4772.17 2469.27 4880.02 2593.33C4989 2718.86 4986.16 2926.29 4873.2 3049.37C4767.63 3165.1 4601.31 3163.63 4498.58 3045.94C4444.08 2984.64 4415.13 2904.71 4415.7 2816.94ZM4714.27 2731.61C4725.06 2765.45 4731.87 2801.25 4748.9 2833.12C4767.63 2867.94 4802.82 2866.95 4827.8 2835.08C4864.69 2788.01 4864.12 2688.46 4827.23 2640.41C4803.39 2609.51 4769.33 2608.53 4750.03 2640.9C4733.57 2668.36 4726.76 2699.25 4714.27 2731.61Z" fill="#242022"/>
<path d="M5723.5 2827.24C5722.37 2910.11 5696.82 2991.02 5629.84 3060.16C5529.94 3163.14 5380.09 3164.61 5276.78 3064.08C5148.5 2939.04 5146.8 2707.59 5273.38 2581.07C5381.23 2473.19 5538.46 2477.11 5638.92 2590.39C5699.09 2658.55 5723.5 2737.01 5723.5 2827.24ZM5471.48 2734.56C5482.83 2767.41 5489.07 2800.27 5504.97 2828.71C5525.4 2865 5565.13 2865 5586.14 2828.71C5623.03 2766.43 5623.03 2701.7 5585 2639.43C5563.43 2604.12 5525.97 2604.12 5505.53 2639.92C5489.64 2668.85 5482.83 2702.19 5471.48 2734.56Z" fill="#242022"/>
<path d="M4714.27 2731.62C4726.76 2698.76 4733.57 2667.87 4749.46 2641.39C4768.76 2608.53 4803.39 2610.01 4826.66 2640.9C4863.56 2688.95 4863.56 2788.5 4827.23 2835.57C4802.25 2866.96 4767.06 2867.94 4748.33 2833.12C4731.87 2801.25 4725.06 2765.45 4714.27 2731.62Z" fill="#FAFAFA"/>
<path d="M5471.48 2734.56C5482.83 2702.19 5489.64 2668.85 5506.1 2639.42C5525.97 2603.63 5564 2603.63 5585.57 2638.93C5623.6 2701.21 5623.6 2765.94 5586.7 2828.22C5565.13 2864.5 5525.4 2864.99 5505.53 2828.22C5489.64 2800.27 5482.83 2767.9 5471.48 2734.56Z" fill="#F2F2F2"/>
<path d="M5037.01 4063.81C4948.24 4065.14 4864.78 4090.43 4781.95 4120.37C4738.81 4136 4695.36 4151.31 4650.98 4161.95C4605.65 4172.93 4580.64 4149.31 4575.64 4099.08C4569.39 4033.87 4581.58 3970.99 4602.21 3910.44C4649.1 3774.71 4723.81 3659.27 4833.21 3571.44C4896.35 3520.87 4967 3488.6 5047.02 3485.28C5117.35 3482.28 5182.36 3503.91 5242.69 3541.83C5330.53 3597.39 5397.11 3675.57 5450.56 3767.06C5493.69 3840.91 5526.2 3919.76 5538.71 4006.26C5543.08 4037.2 5544.02 4069.13 5540.89 4100.07C5535.58 4150.31 5504.95 4173.26 5458.68 4163.28C5413.67 4153.64 5368.66 4141.33 5324.59 4127.02C5255.19 4104.4 5185.8 4081.11 5113.6 4070.8C5087.96 4067.14 5062.64 4066.14 5037.01 4063.81ZM5072.33 4001.6C5088.9 4003.6 5105.78 4003.26 5121.72 4007.59C5182.05 4023.22 5242.07 4040.86 5302.71 4056.16C5337.72 4065.14 5373.35 4074.46 5408.98 4078.12C5437.12 4081.11 5455.87 4062.81 5458.68 4032.54C5461.19 4005.26 5462.12 3976.65 5456.81 3950.37C5423.68 3791.34 5343.34 3666.25 5210.18 3584.08C5115.47 3525.53 5017.01 3526.53 4922.3 3584.41C4800.08 3658.94 4724.43 3774.04 4683.8 3915.77C4672.86 3954.03 4667.85 3993.95 4674.42 4033.87C4680.05 4069.13 4695.67 4083.44 4728.5 4077.78C4758.5 4072.79 4788.2 4063.48 4816.96 4053.17C4885.1 4028.88 4953.24 4005.59 5025.45 4001.27C5041.08 4001.6 5056.71 4001.6 5072.33 4001.6Z" fill="#EC3477"/>
<path d="M5025.45 4001.6C4952.93 4005.92 4884.79 4029.21 4816.96 4053.5C4788.2 4063.81 4758.5 4073.46 4728.49 4078.12C4695.67 4083.44 4680.04 4069.13 4674.42 4034.2C4667.85 3994.28 4672.86 3954.36 4683.8 3916.1C4724.43 3774.38 4800.08 3659.6 4922.3 3584.75C5017.01 3526.86 5115.78 3525.86 5210.18 3584.41C5343.34 3666.59 5423.68 3791.68 5456.81 3950.7C5462.44 3976.98 5461.19 4005.59 5458.68 4032.87C5455.87 4063.15 5437.12 4081.44 5408.98 4078.45C5373.04 4074.46 5337.72 4065.48 5302.71 4056.49C5242.38 4040.86 5182.36 4023.56 5121.72 4007.92C5105.78 4003.93 5088.59 4003.93 5072.33 4001.93C5073.59 4000.27 5074.52 3998.94 5075.46 3997.28C5106.09 3996.94 5136.73 3997.61 5167.05 3995.61C5192.99 3994.28 5218.31 3988.96 5241.75 3970.66C5225.19 3950.37 5210.5 3929.41 5193.3 3911.11C5149.23 3864.2 5102.97 3844.57 5039.2 3881.5C5038.58 3880.5 5037.64 3879.17 5037.01 3878.17C5041.08 3874.52 5044.83 3870.52 5049.2 3866.53C4990.13 3834.59 4919.17 3881.5 4871.66 3968C4888.22 3974.99 4903.85 3985.3 4920.42 3988.29C4955.12 3993.95 4990.44 3995.61 5025.45 3998.94C5025.45 3999.6 5025.45 4000.6 5025.45 4001.6ZM5267.7 3635.65C5265.2 3636.31 5263.01 3636.98 5260.51 3637.64C5243.32 3681.23 5224.87 3724.14 5208.93 3768.39C5200.81 3791.34 5212.06 3801.66 5234.56 3795.67C5238.63 3794.67 5242.38 3792.67 5246.13 3790.68C5281.76 3772.05 5309.27 3742.77 5336.15 3711.17C5312.71 3685.22 5290.2 3660.6 5267.7 3635.65ZM4797.58 3706.18C4809.45 3719.15 4816.02 3729.13 4824.77 3735.45C4846.96 3751.09 4869.16 3768.06 4893.23 3778.7C4914.48 3787.68 4925.73 3775.37 4917.92 3753.08C4904.17 3713.16 4886.97 3674.9 4870.41 3633.32C4843.84 3660.27 4820.71 3683.22 4797.58 3706.18Z" fill="#252021"/>
<path d="M5025.45 4001.6C5025.14 4000.6 5025.14 3999.6 5025.45 3998.61C5042.33 3997.94 5058.89 3997.61 5075.77 3996.94C5074.84 3998.61 5073.59 3999.94 5072.65 4001.6C5056.71 4001.6 5041.08 4001.6 5025.45 4001.6Z" fill="#674256"/>
<path d="M5075.77 3996.94C5058.89 3997.61 5042.33 3997.94 5025.45 3998.61C4990.44 3995.28 4955.12 3993.62 4920.42 3987.96C4903.85 3985.3 4888.22 3974.99 4871.66 3967.67C4919.17 3881.17 4989.81 3834.26 5049.2 3866.2C5045.14 3870.19 5041.08 3874.18 5037.01 3877.84C5035.45 3878.51 5033.89 3879.51 5032.32 3880.17C5032.32 3880.84 5032.64 3881.5 5032.64 3882.17C5034.83 3881.83 5037.01 3881.5 5039.2 3881.17C5103.28 3844.24 5149.54 3864.2 5193.3 3910.78C5210.5 3929.08 5225.19 3949.7 5241.75 3970.33C5218.31 3988.29 5192.99 3993.62 5167.05 3995.28C5136.73 3997.28 5106.09 3996.61 5075.77 3996.94Z" fill="#BB6BD9"/>
<path d="M5267.7 3635.65C5290.2 3660.6 5313.02 3685.55 5336.15 3711.17C5308.96 3743.1 5281.76 3772.38 5246.13 3790.68C5242.38 3792.67 5238.63 3794.67 5234.56 3795.67C5212.06 3801.66 5200.81 3791.01 5208.93 3768.39C5224.56 3724.14 5243 3681.23 5260.51 3637.64C5262.7 3636.98 5265.2 3636.31 5267.7 3635.65Z" fill="#F9F8F8"/>
<path d="M4797.58 3706.18C4821.02 3682.89 4843.84 3659.93 4870.72 3633.32C4887.29 3674.57 4904.48 3713.16 4918.23 3753.08C4926.05 3775.37 4914.48 3787.68 4893.54 3778.7C4869.16 3768.39 4846.96 3751.09 4825.08 3735.45C4816.02 3729.46 4809.45 3719.48 4797.58 3706.18Z" fill="#F9F8F8"/>
<path d="M5039.2 3881.5C5037.01 3881.83 5034.83 3882.17 5032.64 3882.5C5032.64 3881.83 5032.32 3881.17 5032.32 3880.5C5033.89 3879.84 5035.45 3878.84 5037.01 3878.17C5037.95 3879.17 5038.58 3880.5 5039.2 3881.5Z" fill="#252021"/>
<path d="M4112.98 2005.76C4223.87 2026.37 4277.09 2050.11 4258.31 2073.63C4239.53 2097.16 4274.39 2469.91 4053.16 2428.33C3831.94 2386.75 3714.03 2276.26 3637.87 2179.85C3499.62 2004.09 3523.71 1832.08 3637.87 1659.02C3658.88 1632.78 3685.65 1609.67 3717.1 1590.85C3733.83 1583.21 3752.3 1578.09 3771.44 1576C3781.74 1638.53 3796.87 1700.54 3816.81 1761.6C3858.29 1875.99 3968.98 1967.28 4112.98 2005.76Z" fill="black"/>
<path d="M4065.3 2040.15C3982.23 2133.12 3934.4 2243.66 3927.66 2358.24C4009.16 2388.16 4012.45 2387.47 4041.67 2335.26C4061.57 2299.8 4079.62 2263.3 4103.25 2229.11C4133.76 2184.07 4169.27 2141.1 4206.66 2091.78L4065.3 2040.15ZM3924.36 1969.46V1969.58C3861.2 2025.82 3815.37 2093.39 3790.74 2166.62C3769.54 2218.6 3795.46 2275.54 3853.46 2303.95L3991.96 2008.27L3924.36 1969.46ZM3736.62 2116.74L3874.69 1925.59L3802.22 1853.86C3682.77 1941.29 3664.15 2018.22 3736.62 2116.74H3736.62ZM3661.57 1890.36C3765.4 1820.37 3769.99 1808.24 3719.86 1739.86C3657.13 1771.63 3632.5 1835.5 3661.57 1890.36Z" fill="#F2F2F2"/>
<path d="M5934.31 2011.78C5829.12 2032.69 5778.63 2056.75 5796.45 2080.61C5814.27 2104.47 5781.19 2482.44 5991.05 2440.28C6200.91 2398.12 6312.76 2286.08 6385 2188.32C6516.15 2010.09 6493.3 1835.67 6385 1660.19C6365.07 1633.57 6339.68 1610.14 6309.84 1591.06C6293.98 1583.32 6276.46 1578.12 6258.3 1576C6248.53 1639.4 6234.18 1702.28 6215.26 1764.2C6175.91 1880.2 6070.91 1972.76 5934.31 2011.78Z" fill="black"/>
<path d="M5979.54 2046.65C6058.34 2140.93 6103.72 2253.02 6110.11 2369.21C6032.8 2399.54 6029.68 2398.84 6001.96 2345.9C5983.08 2309.95 5965.95 2272.94 5943.54 2238.27C5914.6 2192.59 5880.91 2149.02 5845.45 2099.01L5979.54 2046.65ZM6113.24 1974.98V1975.09C6173.16 2032.13 6216.63 2100.65 6239.99 2174.9C6260.1 2227.6 6235.51 2285.35 6180.49 2314.16L6049.11 2014.33L6113.24 1974.98ZM6291.33 2124.32L6160.36 1930.49L6229.11 1857.76C6342.41 1946.42 6360.07 2024.42 6291.33 2124.32H6291.33ZM6362.52 1894.77C6264.02 1823.79 6259.68 1811.5 6307.23 1742.16C6366.73 1774.37 6390.1 1839.14 6362.52 1894.77Z" fill="#F2F2F2"/>
<defs>
<filter id="filter0_d_0_1" x="699.85" y="951.803" width="1566.94" height="1387.97" filterUnits="userSpaceOnUse" color-interpolation-filters="sRGB">
<feFlood flood-opacity="0" result="BackgroundImageFix"/>
<feColorMatrix in="SourceAlpha" type="matrix" values="0 0 0 0 0 0 0 0 0 0 0 0 0 0 0 0 0 0 127 0" result="hardAlpha"/>
<feOffset dx="-4" dy="6"/>
<feGaussianBlur stdDeviation="54"/>
<feColorMatrix type="matrix" values="0 0 0 0 0.40262 0 0 0 0 0.804167 0 0 0 0 0.0871181 0 0 0 1 0"/>
<feBlend mode="normal" in2="BackgroundImageFix" result="effect1_dropShadow_0_1"/>
<feBlend mode="normal" in="SourceGraphic" in2="effect1_dropShadow_0_1" result="shape"/>
</filter>
<filter id="filter1_d_0_1" x="2601.38" y="4330.42" width="2179.97" height="1917.57" filterUnits="userSpaceOnUse" color-interpolation-filters="sRGB">
<feFlood flood-opacity="0" result="BackgroundImageFix"/>
<feColorMatrix in="SourceAlpha" type="matrix" values="0 0 0 0 0 0 0 0 0 0 0 0 0 0 0 0 0 0 127 0" result="hardAlpha"/>
<feOffset dx="-4" dy="6"/>
<feGaussianBlur stdDeviation="54"/>
<feColorMatrix type="matrix" values="0 0 0 0 0.40262 0 0 0 0 0.804167 0 0 0 0 0.0871181 0 0 0 1 0"/>
<feBlend mode="normal" in2="BackgroundImageFix" result="effect1_dropShadow_0_1"/>
<feBlend mode="normal" in="SourceGraphic" in2="effect1_dropShadow_0_1" result="shape"/>
</filter>
<filter id="filter2_d_0_1" x="5225.14" y="172.125" width="1699.73" height="1290.53" filterUnits="userSpaceOnUse" color-interpolation-filters="sRGB">
<feFlood flood-opacity="0" result="BackgroundImageFix"/>
<feColorMatrix in="SourceAlpha" type="matrix" values="0 0 0 0 0 0 0 0 0 0 0 0 0 0 0 0 0 0 127 0" result="hardAlpha"/>
<feOffset dx="-4" dy="6"/>
<feGaussianBlur stdDeviation="54"/>
<feColorMatrix type="matrix" values="0 0 0 0 0.40262 0 0 0 0 0.804167 0 0 0 0 0.0871181 0 0 0 1 0"/>
<feBlend mode="normal" in2="BackgroundImageFix" result="effect1_dropShadow_0_1"/>
<feBlend mode="normal" in="SourceGraphic" in2="effect1_dropShadow_0_1" result="shape"/>
</filter>
</defs>
</svg>
