<svg width="4146" height="4188" viewBox="0 0 4146 4188" fill="none" xmlns="http://www.w3.org/2000/svg">
<path d="M1901.7 4102.3C1890.54 4096.99 1878.82 4093.02 1868.78 4085.73C1858.17 4077.46 1853.7 4063.88 1856.49 4047.99C1859 4033.09 1867.66 4023.49 1879.38 4022.83C1900.58 4021.17 1922.91 4017.86 1942.72 4024.48C1979.28 4036.4 2013.6 4038.39 2050.43 4024.15C2077.49 4013.55 2107.91 4014.22 2138.88 4009.58C2118.24 3434.08 2097.86 2856.61 2077.22 2278.13C2169.57 2278.13 2260.26 2278.13 2351.79 2278.13C2350.11 2323.17 2348.44 2367.2 2346.48 2410.91C2343.14 2485.09 2339.79 2559.59 2336.44 2633.76C2331.14 2754.29 2325.55 2874.81 2320.25 2995.34C2317.18 3064.55 2314.39 3134.09 2311.32 3203.29C2306.02 3324.81 2300.45 3446.34 2295.15 3568.19C2292.35 3631.43 2289.56 3694.68 2286.77 3757.92C2282.86 3848.32 2279.23 3938.38 2274.77 4028.78C2273.93 4043.68 2275.61 4055.28 2287.89 4062.89C2293.19 4066.2 2297.38 4071.83 2301.28 4077.13C2323.32 4107.59 2318.58 4143.02 2287.33 4157.93C2263.33 4169.51 2236.83 4177.46 2210.88 4180.44C2145.58 4188.38 2079.72 4190.38 2015.27 4174.48C1990.15 4168.19 1970.62 4184.75 1948.02 4186.4C1930.16 4187.72 1912.02 4189.05 1894.45 4186.73C1877.42 4184.08 1869.33 4171.83 1868.22 4155.61C1867.1 4138.38 1875.19 4122.49 1889.71 4114.87C1895.01 4111.9 1901.14 4110.91 1907 4108.92C1919 4108.59 1931.28 4108.25 1943.27 4107.93C1943.27 4106.27 1943 4104.28 1943 4102.62C1929.33 4102.3 1915.37 4102.3 1901.7 4102.3Z" fill="#A0CE58"/>
<path d="M2961.51 4075.8C2972.67 4070.51 2984.39 4066.54 2994.44 4059.25C3005.04 4050.98 3009.5 4037.4 3006.71 4021.5C3004.2 4006.6 2995.55 3997 2983.83 3996.34C2962.62 3994.68 2940.3 3991.37 2920.49 3997.99C2883.94 4009.91 2849.61 4011.9 2812.79 3997.66C2785.71 3987.07 2755.3 3987.72 2724.33 3983.09C2744.98 3407.6 2765.34 2830.11 2786 2251.65C2693.63 2251.65 2602.94 2251.65 2511.42 2251.65C2513.09 2296.67 2514.77 2340.72 2516.72 2384.43C2520.07 2458.59 2523.42 2533.1 2526.76 2607.27C2532.07 2727.8 2537.65 2848.33 2542.95 2968.86C2546.02 3038.06 2548.81 3107.6 2551.88 3176.81C2557.18 3298.33 2562.77 3419.85 2568.07 3541.7C2570.85 3604.95 2573.64 3668.2 2576.44 3731.44C2580.34 3821.83 2583.97 3911.9 2588.43 4002.29C2589.27 4017.2 2587.6 4028.79 2575.32 4036.41C2570.01 4039.72 2565.83 4045.35 2561.93 4050.64C2539.88 4081.11 2544.62 4116.54 2575.88 4131.44C2599.87 4143.02 2626.39 4150.97 2652.34 4153.95C2717.63 4161.9 2783.48 4163.88 2847.94 4147.99C2873.05 4141.7 2892.58 4158.26 2915.19 4159.91C2933.05 4161.24 2951.18 4162.56 2968.77 4160.25C2985.78 4157.59 2993.88 4145.34 2995 4129.12C2996.11 4111.9 2988.01 4096 2973.51 4088.39C2968.21 4085.41 2962.07 4084.42 2956.21 4082.42C2944.21 4082.1 2931.93 4081.77 2919.93 4081.43C2919.93 4079.78 2920.21 4077.8 2920.21 4076.14C2933.89 4075.8 2947.84 4075.8 2961.51 4075.8Z" fill="#A0CE58"/>
<path d="M1611.86 1439.12C1592.54 1456.67 1572.08 1472.87 1555.03 1494.47C1431.14 1648.35 1419.77 1860.28 1524.34 2033.07C1533.43 2047.91 1534.57 2074.92 1532.29 2093.81C1526.62 2132.95 1514.11 2172.1 1506.16 2211.25C1480.01 2336.79 1528.88 2423.18 1635.73 2444.77C1800.54 2477.18 1957.39 2466.38 2086.97 2305.74C2173.36 2438.03 2288.15 2483.92 2422.28 2479.88C2552.99 2475.83 2672.34 2440.73 2763.27 2312.49C2897.4 2481.23 3054.25 2470.43 3217.92 2409.68C3307.72 2375.94 3321.36 2325.99 3294.08 2196.4C3289.53 2174.81 3277.03 2155.91 3269.07 2135.66C3382.73 1927.78 3374.78 1808.99 3237.25 1711.8C3295.22 1640.26 3304.31 1553.86 3287.26 1463.42C3270.21 1374.33 3232.7 1301.44 3145.18 1271.74C3211.11 1181.3 3221.34 1081.41 3192.92 974.769C3163.37 864.079 3081.53 816.833 3005.38 768.238C3004.24 760.138 3001.97 754.74 3003.1 750.689C3100.86 550.909 2969.01 363.276 2795.1 337.63C2753.04 330.88 2725.76 313.331 2697.34 275.535C2525.72 50.1068 2250.65 52.8065 2094.93 290.384C2049.46 359.227 2001.73 387.575 1939.21 410.522C1810.77 457.768 1735.75 611.653 1765.31 777.687C1774.4 826.282 1760.76 846.53 1733.48 870.828C1651.64 941.021 1581.17 1022.02 1551.62 1144.85C1528.88 1240.7 1552.75 1320.34 1594.81 1398.63C1598.22 1409.43 1601.63 1418.88 1611.86 1439.12Z" fill="#AED137"/>
<path d="M2748.02 722.801H2440.3" stroke="black" stroke-width="10" stroke-linecap="round"/>
<path d="M2504.41 721.85C2504.41 779.62 2543.52 826.453 2591.76 826.453C2640 826.453 2679.11 779.62 2679.11 721.85H2504.41Z" fill="black"/>
<path d="M2355.36 722.801H2047.64" stroke="black" stroke-width="10" stroke-linecap="round"/>
<path d="M2111.74 721.85C2111.74 779.62 2150.85 826.453 2199.09 826.453C2247.33 826.453 2286.44 779.62 2286.44 721.85H2111.74Z" fill="black"/>
<path d="M2425.22 1756.07L2337.6 1756.61L2293.42 1666.9L2336.84 1576.63L2424.4 1576.05L2468.64 1665.78L2425.22 1756.07ZM2425.02 1767.82L2511.05 2152.76L2383.65 2251.65L2255.37 2154.39L2337.97 1768.44L2425.02 1767.82ZM2209.51 1417.35L2211.3 1455.14L2325.09 1568.07L2254.4 1708.22L2170.41 1500.07L2209.51 1417.35ZM2437.73 1569.36L2550.47 1455.04L2551.89 1417.21L2591.76 1499.36L2509.58 1708.58L2437.73 1569.36Z" fill="#2D9CDB"/>
<path d="M348.275 2130.25L661.077 2282.33L705.89 2152.52C712.748 2132.66 731.981 2123.09 748.706 2131.22L1149.51 2326.08C1166.24 2334.21 1174.28 2357.05 1167.43 2376.91L1122.62 2506.71L1435.42 2658.78C1452.14 2666.91 1460.19 2689.75 1453.33 2709.6L1158.9 3562.44C1152.03 3582.3 1132.81 3591.86 1116.08 3583.73L30.4853 3055.94C13.7595 3047.81 5.71162 3024.98 12.5686 3005.12L307.008 2152.3C312.323 2131.68 331.609 2122.15 348.275 2130.25ZM1094.25 2383.45L752.624 2217.36L720.261 2311.1L1061.88 2477.18L1094.25 2383.45Z" fill="#F2994A"/>
<path d="M2346.73 1023.82C2300.69 1023.82 2254.64 1022.16 2208.88 1024.15C2148.61 1026.8 2088.34 1032.09 2030.86 1056.6C1973.09 1081.43 1931.24 1123.82 1919.24 1199.32C1917.29 1211.57 1916.45 1224.48 1915.61 1237.07C1913.66 1276.14 1933.47 1301.3 1970.31 1300.64C2009.1 1299.97 2048.16 1295.67 2086.39 1289.38C2191.02 1271.84 2294.27 1244.01 2400.86 1248.98C2470.34 1251.96 2539.83 1256.27 2609.58 1257.27C2650.33 1257.59 2691.06 1253.62 2730.41 1238.39C2775.33 1220.51 2796.82 1180.11 2787.89 1127.8C2784.54 1108.59 2775.05 1094.02 2761.94 1082.43C2731.52 1055.6 2695.52 1046.34 2659.26 1039.72C2555.73 1021.17 2451.09 1023.15 2346.73 1023.82ZM2348.96 1056.27C2348.96 1057.26 2348.96 1058.26 2348.96 1059.25C2399.46 1059.25 2449.97 1057.59 2500.48 1059.58C2552.1 1061.9 2604 1065.54 2655.07 1073.48C2682.13 1077.46 2708.64 1089.38 2734.31 1101.3C2751.33 1109.25 2762.5 1126.8 2762.21 1150.3C2761.94 1173.81 2751.05 1189.38 2733.48 1198.65C2723.71 1203.62 2713.66 1208.26 2703.62 1211.24C2662.32 1224.48 2619.62 1222.5 2577.22 1221.83C2532.28 1220.84 2487.36 1219.51 2442.44 1218.19C2437.7 1218.19 2433.23 1217.52 2428.48 1217.86C2382.72 1218.19 2336.96 1216.53 2291.2 1219.84C2254.64 1222.5 2218.1 1231.76 2181.82 1238.06C2127.68 1247.66 2073.55 1258.58 2019.14 1266.53C1999.32 1269.52 1978.68 1266.21 1958.31 1264.21C1953.85 1263.89 1946.87 1256.27 1946.59 1251.3C1945.47 1235.08 1945.19 1217.86 1947.99 1201.96C1957.75 1145.68 1989.28 1112.23 2033.09 1092.03C2094.48 1063.55 2159.22 1060.24 2223.95 1056.93C2265.25 1054.61 2307.11 1056.27 2348.96 1056.27Z" fill="#2F80ED"/>
<path d="M2348.96 1056.27C2307.11 1056.27 2265.25 1054.61 2223.67 1056.6C2159.22 1059.91 2094.48 1063.22 2032.81 1091.7C1989.01 1111.9 1957.47 1145.35 1947.7 1201.63C1944.92 1217.53 1945.47 1234.42 1946.31 1250.97C1946.59 1255.94 1953.85 1263.56 1958.03 1263.89C1978.12 1266.21 1998.77 1269.19 2018.86 1266.21C2073.28 1258.26 2127.4 1247.34 2181.54 1237.73C2218.1 1231.44 2254.37 1222.16 2290.92 1219.51C2336.4 1216.2 2382.45 1217.86 2428.21 1217.53C2432.95 1217.53 2437.41 1217.86 2442.16 1217.86C2487.09 1219.19 2532.01 1220.51 2576.93 1221.51C2619.35 1222.16 2661.76 1224.15 2703.34 1211.24C2713.66 1207.93 2723.71 1203.63 2733.2 1198.65C2750.77 1189.38 2761.66 1173.82 2761.94 1150.31C2762.21 1126.8 2751.06 1109.25 2734.04 1101.3C2708.36 1089.38 2681.85 1077.47 2654.79 1073.49C2603.45 1065.87 2551.82 1061.9 2500.2 1059.59C2449.7 1057.27 2399.19 1059.25 2348.68 1059.25C2348.96 1058.26 2348.96 1057.27 2348.96 1056.27ZM2660.64 1104.95C2666.79 1106.27 2672.93 1107.92 2679.06 1109.25C2691.34 1113.55 2704.45 1115.55 2715.34 1122.83C2736.82 1137.06 2736.82 1167.2 2715.06 1180.77C2701.11 1189.71 2684.92 1195.34 2669.3 1198.32C2598.14 1210.91 2526.71 1205.61 2455.27 1203.29C2384.68 1200.97 2314.08 1198.99 2243.76 1209.58C2174.84 1220.18 2106.2 1233.09 2037.27 1243.69C2017.74 1246.67 1997.37 1246.01 1977.84 1244.68C1959.98 1243.36 1955.23 1234.08 1958.59 1213.89C1962.49 1190.05 1974.21 1173.16 1990.95 1160.57C1992.35 1157.93 1993.19 1153.62 1995.42 1152.63C2003.79 1148.66 2012.72 1145.68 2021.37 1142.37C2023.33 1141.37 2025.27 1140.37 2027.23 1139.06L2026.95 1139.38C2043.97 1132.76 2061.27 1125.8 2078.29 1119.18C2083.32 1118.19 2088.34 1117.2 2093.36 1115.87C2115.97 1110.58 2138.29 1104.95 2160.89 1099.65C2190.75 1096.01 2220.6 1090.38 2250.74 1089.72C2331.38 1087.4 2411.74 1087.4 2492.39 1086.41C2525.87 1088.39 2559.63 1090.04 2593.12 1092.04C2596.75 1092.36 2600.38 1092.69 2604.01 1093.03C2621.58 1095.35 2639.16 1097.33 2656.74 1099.98C2658.13 1100.31 2659.26 1103.3 2660.64 1104.95Z" fill="#2D9CDB"/>
<path d="M1990.95 1160.57C1974.21 1173.16 1962.49 1190.05 1958.59 1213.88C1955.23 1234.08 1959.98 1243.69 1977.84 1244.68C1997.65 1246.01 2017.74 1246.67 2037.27 1243.69C2106.2 1233.09 2174.84 1220.18 2243.76 1209.58C2314.08 1198.99 2384.68 1200.97 2455.27 1203.29C2526.71 1205.61 2598.14 1211.24 2669.3 1198.32C2684.92 1195.68 2701.11 1189.71 2715.06 1180.77C2736.82 1167.19 2736.82 1137.06 2715.34 1122.83C2704.45 1115.55 2691.34 1113.55 2679.06 1109.25C2662.87 1129.78 2646.7 1150.64 2629.95 1171.83C2619.91 1148.66 2610.42 1126.14 2600.93 1103.62C2600.38 1101.97 2602.61 1098.32 2603.72 1095.67C2603.72 1094.68 2603.72 1093.69 2603.72 1093.03C2600.09 1092.69 2596.46 1092.36 2592.84 1092.04C2586.15 1092.36 2579.16 1092.36 2572.47 1092.69C2559.36 1115.55 2546.24 1138.39 2532.28 1162.89C2518.89 1138.39 2506.34 1115.55 2493.5 1092.69C2492.95 1090.71 2492.39 1088.72 2492.11 1086.41C2411.47 1087.4 2330.83 1087.4 2250.46 1089.72C2220.6 1090.38 2190.46 1096.34 2160.61 1099.65C2159.77 1101.63 2158.66 1103.62 2157.82 1105.94C2148.06 1132.1 2138.01 1158.25 2129.64 1180.77C2112.9 1162.56 2096.71 1145.34 2080.52 1127.8C2078.85 1126.14 2078.85 1122.17 2078.02 1119.52C2060.99 1126.14 2043.69 1133.09 2026.67 1139.71C2040.07 1136.07 2053.74 1132.42 2068.53 1128.46C2060.72 1156.93 2053.46 1184.08 2045.93 1211.9C2026.67 1193.69 2008.81 1177.13 1990.95 1160.57ZM2307.38 1094.35C2335.01 1094.35 2360.4 1094.35 2388.31 1094.35C2373.79 1118.86 2360.68 1141.04 2347.01 1164.55C2333.06 1140.05 2320.78 1117.86 2307.38 1094.35ZM2205.25 1102.29C2233.16 1098.66 2258.83 1095.35 2286.73 1091.7C2274.73 1118.52 2263.86 1142.37 2252.69 1167.53C2236.23 1145.01 2221.72 1124.81 2205.25 1102.29ZM2400.31 1093.69C2427.65 1093.69 2453.32 1093.69 2480.95 1093.69C2466.72 1117.86 2453.6 1139.71 2439.65 1163.56C2425.98 1139.38 2413.42 1117.2 2400.31 1093.69Z" fill="#262324"/>
<path d="M1990.95 1160.57C2008.81 1177.13 2026.67 1193.69 2045.93 1211.57C2053.46 1183.75 2060.72 1156.6 2068.53 1128.12C2053.74 1132.1 2040.07 1135.74 2026.67 1139.38L2026.95 1139.05C2025 1140.05 2023.04 1141.04 2021.09 1142.37C2012.44 1145.68 2003.79 1148.65 1995.14 1152.62C1993.19 1153.62 1992.35 1157.59 1990.95 1160.57Z" fill="#F5F4F4"/>
<path d="M2078.02 1119.18C2078.85 1122.16 2078.85 1125.8 2080.52 1127.46C2096.44 1145.01 2112.61 1162.23 2129.64 1180.43C2138.01 1157.93 2148.06 1131.76 2157.82 1105.6C2136.33 1108.92 2114.85 1112.23 2093.08 1115.87C2088.06 1117.19 2083.04 1118.18 2078.02 1119.18Z" fill="#F7F6F6"/>
<path d="M2603.72 1096.01C2602.61 1098.66 2600.38 1102.29 2600.93 1103.95C2610.14 1126.47 2619.91 1148.99 2629.95 1172.17C2646.7 1150.97 2662.87 1130.12 2679.06 1109.58C2672.93 1108.26 2666.79 1106.61 2660.64 1105.28C2641.67 1101.97 2622.7 1098.98 2603.72 1096.01Z" fill="#F5F4F4"/>
<path d="M2492.11 1086.41C2492.66 1088.39 2493.22 1090.38 2493.5 1092.69C2519.74 1092.69 2546.24 1092.69 2572.47 1093.03C2579.16 1092.69 2586.15 1092.69 2592.84 1092.36C2559.36 1090.04 2525.59 1088.39 2492.11 1086.41Z" fill="#636971"/>
<path d="M2093.08 1115.87C2114.57 1112.56 2136.06 1109.25 2157.82 1105.61C2158.66 1103.62 2159.77 1101.64 2160.61 1099.32C2138.01 1104.95 2115.68 1110.58 2093.08 1115.87Z" fill="#424449"/>
<path d="M2603.72 1096C2622.7 1098.98 2641.67 1101.97 2660.64 1105.28C2659.25 1103.62 2657.86 1100.64 2656.46 1100.31C2638.88 1097.66 2621.3 1095.67 2603.72 1093.35C2603.72 1094.02 2603.72 1095.01 2603.72 1096Z" fill="#424449"/>
<path d="M2021.09 1142.37C2023.04 1141.37 2025 1140.37 2026.96 1139.06C2025 1140.05 2023.04 1141.04 2021.09 1142.37Z" fill="#262324"/>
<path d="M2307.38 1094.36C2320.5 1117.86 2333.06 1140.05 2346.73 1164.55C2360.4 1141.37 2373.52 1119.18 2388.02 1094.36C2360.4 1094.36 2335.01 1094.36 2307.38 1094.36Z" fill="#F3F2F1"/>
<path d="M2205.25 1102.29C2221.44 1124.81 2236.23 1145.01 2252.42 1167.19C2263.86 1142.03 2274.46 1118.52 2286.46 1091.37C2258.83 1095.35 2233.16 1098.66 2205.25 1102.29Z" fill="#F5F4F4"/>
<path d="M2400.31 1093.68C2413.7 1117.19 2425.98 1139.38 2439.64 1163.56C2453.6 1140.05 2466.72 1117.86 2480.95 1093.68C2453.32 1093.68 2427.65 1093.68 2400.31 1093.68Z" fill="#F5F4F4"/>
<path d="M2572.47 1092.69C2546.24 1092.69 2519.74 1092.69 2493.51 1092.36C2506.06 1115.21 2518.61 1138.05 2532.28 1162.56C2546.24 1138.38 2559.36 1115.54 2572.47 1092.69Z" fill="#F9F8F8"/>
<path d="M773.874 1986.93C745.7 1778.76 803.186 1597.92 902.788 1432.99C964.062 1331.09 1048.92 1256.88 1136.64 1189.87C1240.81 1110.09 1350.8 1043.57 1470.13 1002.99C1510.55 989.559 1553.08 980.87 1594.68 977.694C1651 973.498 1673.48 1000.32 1681.8 1067.21C1693.91 1166.32 1686.52 1264.63 1674.63 1362.53C1657.06 1510.86 1627.4 1655.39 1579.57 1793.88C1517.81 1973.9 1423.08 2123.3 1287.39 2234.64C1281.59 2239.48 1276.34 2252.84 1277.5 2261.22C1285.07 2325.66 1270.55 2383.53 1243.59 2437.34C1222.26 2479.94 1192.8 2480.1 1173.96 2436.17C1158.96 2401.46 1152.19 2361.32 1142.41 2323.81C1140.65 2317.46 1140.48 2311.1 1138.55 2298.39C1130.3 2332.46 1127.74 2362.87 1115.88 2387.29C1102.71 2415.07 1085.16 2443.17 1063.64 2461.33C1021.2 2497.49 971.981 2475.43 955.445 2415.86C949.179 2392.92 948.38 2368.63 944.522 2343.21C906.679 2374.84 863.972 2407.69 820.051 2363.58C779.563 2322.77 792.271 2267.24 806.762 2221.81C781.125 2227.43 752.735 2239 724.863 2239.15C682.992 2239 657.366 2199.77 660.625 2149.98C664.095 2095.98 689.465 2056.52 724.516 2025.19C740.841 2011.72 757.789 1999.97 773.874 1986.93ZM1156.42 1569.68C1118.12 1589.76 1076.54 1672.06 1081.69 1708.47C1119.75 1672.63 1145.82 1629.97 1156.42 1569.68ZM1210.69 1243.06C1168.63 1281.39 1143.66 1324.91 1133.17 1384.03C1170.62 1362.67 1204.92 1298.38 1210.69 1243.06ZM1330.25 1803.83C1290.21 1835.64 1263.53 1878.44 1253.69 1943.07C1297.7 1905 1320.83 1860.06 1330.25 1803.83ZM1386.5 1249.49C1346.22 1281.73 1321.37 1325.97 1309.94 1388.72C1355.41 1351.79 1377.45 1306 1386.5 1249.49ZM1469.65 1591.33C1510.01 1554.18 1534.5 1511.54 1545.49 1455.29C1511.27 1467.95 1472.86 1535.9 1469.65 1591.33ZM1481.58 1669.76C1448.34 1684.43 1419.07 1737.67 1418.47 1784.56C1455.62 1757.99 1476.26 1720.45 1481.58 1669.76ZM1424 1930.9C1394.28 1943.93 1362.13 2002.42 1364.24 2039.57C1394.33 2026.82 1426.49 1968.33 1424 1930.9ZM1221.5 1688.8C1254.59 1671.52 1282.9 1618.14 1281.48 1577.79C1248.2 1601.14 1222.76 1647.41 1221.5 1688.8ZM1458.16 1353.78C1424.64 1379.44 1401.91 1414.1 1398.76 1462.74C1434.11 1438.51 1452.94 1401.42 1458.16 1353.78ZM1334.39 1679.96C1365.94 1668.36 1391.38 1622.09 1385.16 1588.59C1357.68 1592.78 1330.59 1645.86 1334.39 1679.96ZM1133.07 1834.37C1099.13 1852.22 1084.88 1881.01 1091.95 1913.92C1124.21 1899.12 1139.68 1870.03 1133.07 1834.37ZM1213.92 1514.7C1243.29 1503.25 1263.42 1462.84 1253.72 1436.6C1227.87 1446.42 1208.45 1483.65 1213.92 1514.7ZM1008.59 1622.99C975.601 1637.23 957.613 1671.84 964.209 1705.63C991.953 1688.56 1006.35 1662.37 1008.59 1622.99Z" fill="#9B51E0"/>
<path d="M1156.08 1569.08C1145.45 1629.33 1119.34 1671.96 1081.24 1707.77C1076.09 1671.41 1117.73 1589.15 1156.08 1569.08Z" fill="#9B51E0"/>
<path d="M1210.48 1242.68C1204.68 1297.96 1170.09 1362.65 1132.86 1383.58C1143.37 1324.49 1168.62 1280.56 1210.48 1242.68Z" fill="#9B51E0"/>
<path d="M1329.97 1802.98C1320.53 1859.16 1297.12 1904.51 1253.32 1942.13C1263.54 1877.83 1289.89 1834.77 1329.97 1802.98Z" fill="#9B51E0"/>
<path d="M1386.42 1249.03C1377.35 1305.51 1355.28 1351.28 1309.76 1388.19C1321.23 1325.48 1346.1 1281.27 1386.42 1249.03Z" fill="#9B51E0"/>
<path d="M1469.53 1590.58C1472.76 1535.18 1510.86 1466.98 1545.49 1454.62C1534.83 1511.11 1509.93 1553.43 1469.53 1590.58Z" fill="#9B51E0"/>
<path d="M1481.46 1668.94C1475.51 1719.75 1455.09 1756.82 1418.26 1783.67C1418.88 1736.83 1448.2 1683.61 1481.46 1668.94Z" fill="#9B51E0"/>
<path d="M1423.76 1929.89C1425.86 1967.01 1394.03 2025.75 1363.93 2038.5C1361.81 2001.38 1394.01 1942.93 1423.76 1929.89Z" fill="#BB6BD9"/>
<path d="M1221.17 1688.06C1222.07 1646.42 1247.68 1600.9 1281.24 1577.13C1282.64 1617.44 1254.3 1670.79 1221.17 1688.06Z" fill="#9387AE"/>
<path d="M1458.1 1353.22C1452.86 1400.82 1434.02 1437.89 1398.63 1462.11C1401.8 1413.52 1424.69 1379.59 1458.1 1353.22Z" fill="#9387AE"/>
<path d="M1334.14 1679.19C1330.35 1645.12 1357.48 1592.07 1384.97 1587.87C1391.2 1621.34 1365.73 1667.58 1334.14 1679.19Z" fill="#9286AD"/>
<path d="M1132.63 1833.56C1139.24 1869.19 1123.74 1898.27 1091.46 1913.07C1084.38 1880.19 1099.03 1851.7 1132.63 1833.56Z" fill="#9B51E0"/>
<path d="M1213.64 1514.11C1208.16 1483.09 1227.61 1445.88 1253.48 1436.06C1263.18 1462.27 1242.79 1503.1 1213.64 1514.11Z" fill="#9B51E0"/>
<path d="M1008.11 1622.41C1005.85 1661.75 991.439 1687.92 963.676 1704.99C956.713 1670.95 974.719 1636.35 1008.11 1622.41Z" fill="#BB6BD9"/>
<path d="M3705.31 2423.71C3698.66 2448.3 3695.09 2474.51 3685.54 2496.79C3661.94 2552.6 3610.93 2562.53 3571.89 2520.07C3542.5 2487.98 3527.68 2446.76 3524.51 2399.81C3523.58 2387.16 3522.83 2374.97 3517.44 2360.92C3515.48 2368.96 3514.68 2377.47 3511.56 2385.04C3497.9 2419.5 3486.56 2456.03 3468.07 2487.02C3447.43 2522.14 3420.11 2516.98 3404.31 2478.05C3380.62 2420.23 3373.23 2359.7 3386.37 2296.26C3387.75 2289.13 3386.04 2276.94 3381.79 2272.55C3245.3 2131.27 3163.96 1951.78 3124.76 1744.6C3086.33 1540.43 3070.78 1334.26 3096.9 1125.95C3100.27 1099.27 3106.93 1072.39 3115.14 1046.88C3128.04 1005.99 3146.3 988.337 3182.92 994.919C3226.71 1002.44 3271.85 1013.18 3311.92 1033.81C3503.58 1133.42 3671.85 1274.36 3798.69 1473.57C3901.4 1634.73 3944.73 1820.53 3921.91 2024.02C3918.93 2049.31 3905.29 2076.87 3910.85 2098.28C3916.24 2118.09 3941.21 2130.37 3955.7 2147.67C3982.76 2179.97 4001.46 2217.77 4002.5 2265.39C4003.71 2324.98 3967.93 2363.26 3918.73 2352.04C3895.28 2346.89 3873.61 2332.09 3852.12 2322.35C3860.52 2373.68 3870.84 2431.91 3818.79 2464.84C3771.42 2495.04 3737.01 2457.87 3705.31 2423.71ZM3380.07 1292.83C3383.02 1349.67 3401.7 1396.66 3441.72 1437.98C3436.84 1375.4 3417.39 1328.86 3380.07 1292.83ZM3613.99 1460.01C3613.18 1400.2 3582.34 1329.92 3551.17 1315.54C3556.46 1373.3 3576.3 1419.61 3613.99 1460.01ZM3635.26 1780.52C3638.67 1736.6 3603.99 1655.95 3576.5 1641.13C3575.02 1685.06 3601.22 1748.87 3635.26 1780.52ZM3381.16 1841.7C3384.7 1897.61 3402.6 1943.91 3439.54 1979.01C3434.45 1925.16 3415.95 1878.62 3381.16 1841.7ZM3207.09 1465.88C3205.79 1521.77 3236.03 1592.96 3266.62 1608.25C3260.17 1553.49 3241.68 1509.25 3207.09 1465.88ZM3295.38 1805.5C3302.26 1771.02 3273.94 1700.98 3246.82 1691.68C3240.91 1730.76 3265.95 1790.67 3295.38 1805.5ZM3270.98 1947.33C3278.01 1998.88 3292.83 2038.97 3323.18 2072.2C3330.46 2031.75 3308.89 1978.99 3270.98 1947.33ZM3498.3 1743.44C3496.49 1696.27 3483.8 1656.67 3449.17 1630.55C3452.34 1676.34 3466.2 1715.26 3498.3 1743.44ZM3348.12 1503.43C3351.15 1453.98 3326.87 1399.38 3296.28 1385.23C3301.97 1432.41 3315.83 1471.33 3348.12 1503.43ZM3348 1623.5C3342.47 1663.51 3361.55 1706.82 3388.66 1717.27C3392.81 1684.4 3374.13 1639.7 3348 1623.5ZM3524.72 1576.3C3529.87 1534.23 3514.06 1499.89 3487.9 1494.05C3486.07 1529 3500.71 1562.88 3524.72 1576.3ZM3751.73 1791.76C3755.72 1750.37 3742.41 1722.03 3716.08 1712.27C3710.18 1743.29 3726.75 1781.78 3751.73 1791.76ZM3570.59 1900.13C3563.91 1937.36 3576.62 1966.63 3603.53 1981.22C3611.74 1953.42 3596.53 1914.71 3570.59 1900.13Z" fill="#9B51E0"/>
<path d="M3380.07 1292.84C3417.39 1328.86 3437.04 1375.86 3441.72 1437.99C3401.7 1396.67 3382.83 1349.21 3380.07 1292.84Z" fill="#9286AD"/>
<path d="M3613.99 1460.01C3576.3 1419.62 3556.45 1373.31 3551.17 1315.55C3582.34 1329.93 3613.18 1400.2 3613.99 1460.01Z" fill="#9286AD"/>
<path d="M3635.26 1780.53C3601.8 1749.12 3575.61 1685.3 3576.49 1641.13C3603.59 1656.18 3638.28 1736.83 3635.26 1780.53Z" fill="#BB6BD9"/>
<path d="M3381.16 1841.7C3415.76 1878.17 3434.64 1924.48 3439.54 1979.01C3402.41 1944.6 3384.7 1897.61 3381.16 1841.7Z" fill="#BB6BD9"/>
<path d="M3207.09 1465.88C3241.68 1509.25 3260.17 1553.49 3266.62 1608.25C3236.03 1592.96 3205.79 1521.77 3207.09 1465.88Z" fill="#BB6BD9"/>
<path d="M3295.38 1805.5C3265.76 1790.21 3240.91 1730.77 3246.82 1691.68C3274.33 1700.76 3302.26 1771.02 3295.38 1805.5Z" fill="#9B51E0"/>
<path d="M3270.98 1947.33C3308.88 1978.99 3330.46 2031.75 3323.18 2072.2C3292.83 2038.97 3277.63 1999.12 3270.98 1947.33Z" fill="#BB6BD9"/>
<path d="M3498.3 1743.45C3466.2 1715.26 3452.34 1676.34 3449.16 1630.55C3484.18 1656.44 3497.07 1696.52 3498.3 1743.45Z" fill="#BB6BD9"/>
<path d="M3348.12 1503.43C3315.83 1471.34 3301.97 1432.42 3296.28 1385.23C3326.87 1399.38 3350.96 1454.68 3348.12 1503.43Z" fill="#BB6BD9"/>
<path d="M3348 1623.5C3374.13 1639.71 3392.81 1684.4 3388.66 1717.28C3361.55 1706.83 3342.08 1663.74 3348 1623.5Z" fill="#BB6BD9"/>
<path d="M3524.72 1576.31C3500.32 1563.11 3485.87 1529.7 3487.9 1494.05C3513.87 1499.44 3529.86 1534.23 3524.72 1576.31Z" fill="#BB6BD9"/>
<path d="M3751.73 1791.76C3726.75 1781.78 3710.18 1743.3 3716.08 1712.27C3742.41 1722.03 3755.72 1750.37 3751.73 1791.76Z" fill="#BB6BD9"/>
<path d="M3570.59 1900.13C3596.53 1914.72 3611.93 1953.88 3603.53 1981.23C3576.23 1966.86 3563.9 1937.37 3570.59 1900.13Z" fill="#BB6BD9"/>
<path d="M2100.74 413.109C2099.95 413.45 2099.27 413.535 2098.42 413.688C2094.17 413.828 2090.84 409.975 2090.58 405.016C2090 384.976 2086.44 359.248 2080.96 336.035C2075.49 313.451 2050.1 302.396 2049.89 302.278C2045.96 300.582 2043.9 295.556 2045.34 290.919C2046.79 286.281 2051.04 283.816 2054.97 285.511C2056.35 285.969 2087.86 299.465 2095.38 331.1C2101.26 355.62 2105.13 382.909 2105.62 404.461C2105.92 408.35 2103.76 411.817 2100.74 413.109Z" fill="#AF1C1C"/>
<path d="M2130.46 404.347C2130.3 404.415 2129.99 404.551 2129.83 404.619C2125.76 405.946 2121.65 403.062 2120.54 398.257C2116.21 378.78 2107.78 354.72 2097.77 333.668C2088.15 313.295 2061.31 309.204 2061.15 309.272C2057.04 308.715 2054.08 304.284 2054.56 299.427C2055.04 294.569 2058.8 291.051 2062.91 291.608C2064.4 291.811 2097.69 296.508 2111.11 325.184C2121.52 347.543 2130.56 373.029 2135.14 393.882C2136.13 398.314 2134.1 402.782 2130.46 404.347Z" fill="#CD3333"/>
<path d="M2162.76 397.628C2162.61 397.696 2162.3 397.832 2162.13 397.9C2158.07 399.227 2153.96 396.343 2152.85 391.539C2148.63 372.435 2140.23 354.914 2127.06 337.549C2115.89 322.696 2089.48 321.17 2080.18 321.788C2075.99 322.113 2072.5 318.328 2072.25 313.37C2071.98 308.411 2075.2 304.282 2079.38 303.956C2080.98 303.903 2120.14 301.43 2138.24 325.551C2152.68 344.698 2162.42 365.444 2167.33 386.79C2168.39 391.408 2166.4 396.063 2162.76 397.628Z" fill="#AF1C1C"/>
<path d="M2189.6 383.55C2186 384.045 2182.54 381.517 2181.28 377.408C2175.78 358.221 2166.01 340.871 2151.56 324.05C2139.19 309.929 2111.97 310.441 2102.53 311.756C2098.24 312.336 2094.49 308.874 2093.85 303.864C2093.38 298.787 2096.32 294.351 2100.56 293.584C2102.41 293.209 2142.19 287.508 2162.41 310.931C2178.43 329.398 2189.7 349.906 2195.95 371.521C2197.37 376.191 2195.09 381.61 2191.09 383.125C2190.77 383.261 2190.08 383.346 2189.6 383.55Z" fill="#CD3333"/>
<path d="M1927.14 346.842C1915.16 307.619 1949.86 267.751 2001.1 245.704C2052.35 223.657 2100.47 227.681 2112.5 267.092C2124.49 306.315 2097.12 346.194 2046.04 368.174C1994.79 390.221 1939.13 386.066 1927.14 346.842Z" fill="#C62222"/>
<path d="M2046.85 232.577C2104.84 217.981 2109.6 255.239 2109.6 255.239C2109.6 255.239 2031.58 211.886 1945.68 371.201C1945.68 371.201 1920.16 389.578 1916.92 346.17C1942.87 302.25 1988.85 247.174 2046.85 232.577Z" fill="#EAA16A"/>
<path d="M1915.97 113.48C1916.13 113.411 1916.28 113.344 1916.45 113.275L1916.5 113.462L1915.97 113.48Z" fill="white" stroke="#1D1D1B" stroke-width="0.2698" stroke-miterlimit="10" stroke-linecap="round" stroke-linejoin="round"/>
<path d="M1915.87 113.734C1915.49 113.683 1915.49 113.683 1915.87 113.734L1916.35 113.529C1916.5 113.461 1916.18 113.598 1915.87 113.734Z" fill="white" stroke="#1D1D1B" stroke-width="0.2698" stroke-miterlimit="10" stroke-linecap="round" stroke-linejoin="round"/>
<path d="M1915.87 113.732C1916.18 113.595 1916.35 113.527 1916.35 113.527C1916.18 113.595 1916.03 113.663 1915.87 113.732Z" fill="white" stroke="#1D1D1B" stroke-width="0.2698" stroke-miterlimit="10" stroke-linecap="round" stroke-linejoin="round"/>
<path d="M1865.12 111.058L1915.97 113.484C1915.49 113.688 1915.49 113.688 1915.87 113.739C1911.74 114.879 1886.34 123.695 1867.46 157.387L1865.12 111.058Z" fill="#FFD9B6"/>
<path d="M2024.96 136.959C2024.96 136.959 2147.46 149.557 2109.65 255.426C2109.65 255.426 2104.68 218.048 2046.85 232.576C1988.85 247.173 1942.87 302.249 1916.92 346.17C1916.92 346.17 1847.29 333.227 1878.57 251.719C1925.56 124.36 2024.96 136.959 2024.96 136.959Z" fill="#F7BA84"/>
<path d="M1915.87 113.731C1916.03 113.663 1916.18 113.595 1916.35 113.527L1916.28 113.34C1926.25 109.054 2020.17 77.312 2024.81 137.022C2024.81 137.022 1925.4 124.424 1878.36 251.596C1878.36 251.596 1832.52 246.805 1867.31 157.447C1886.34 123.687 1911.74 114.872 1915.87 113.731Z" fill="#FFCC9A"/>
<path d="M1901.2 247.274C1901.2 247.274 1854.09 207.311 1896.57 137.258C1896.57 137.258 1914.36 115.235 1911.87 131.099C1909.38 146.964 1893.87 168.221 1906.1 173.732C1918.35 179.243 1905.01 182.446 1911.46 195.942C1917.85 209.253 1919.97 206.228 1918.41 223.383C1917.06 240.656 1901.2 247.274 1901.2 247.274Z" fill="#E82E2E"/>
<path d="M1923.32 237.119C1924.44 237.271 1902.36 224.158 1910.61 211.313C1918.79 198.281 1929.47 199.818 1924.29 186.406C1919.28 172.924 1915.94 173.724 1922.43 163.326C1928.86 152.741 1934.32 146.589 1930.36 137.727C1926.4 128.864 1925.32 115.38 1935.19 121.911C1945.21 128.375 1980.26 194.45 1952.12 232.971C1923.98 271.493 1923.32 237.119 1923.32 237.119Z" fill="#DB2A2A"/>
<path d="M1948.97 314.627C1948.97 314.627 1911.9 312.192 1899.42 271.916C1886.99 231.827 1909.28 224.559 1928.6 227.449C1947.86 230.152 1961.12 302.85 1959.83 304.463C1958.53 306.078 1948.97 314.627 1948.97 314.627Z" fill="#BC2222"/>
<path d="M1970.31 284.311C1987.49 279.033 2012.52 280.731 2018.7 288.641C2037.24 312.998 2004.21 326.15 1982.71 328.424C1965.05 330.323 1945.63 323.033 1943.5 312.539C1941.06 302.181 1953.13 289.588 1970.31 284.311Z" fill="#DB2A2A"/>
<path d="M2070.2 307.307C2083.16 301.713 2091.52 289.227 2090.39 277.878C2091.22 279.423 2091.89 281.037 2092.4 282.718C2097.3 298.786 2089.53 316.725 2074.98 323C2060.43 329.277 2044.75 321.246 2039.91 305.365C2039.39 303.683 2039.05 301.933 2038.84 300.116C2044.25 309.623 2057.24 312.9 2070.2 307.307Z" fill="#700F0F"/>
<path d="M2063.75 255.099C2065.29 260.142 2069.97 262.567 2074.07 260.798C2078.35 258.961 2080.41 253.423 2078.93 248.566L2063.3 197.389C2061.76 192.347 2057.08 189.921 2052.96 191.691C2048.69 193.528 2046.62 199.066 2048.11 203.922L2063.75 255.099Z" fill="#AF1C1C"/>
<path d="M2031.37 197.208C2035.47 210.659 2047.95 217.541 2059.34 212.633C2070.72 207.726 2076.59 192.939 2072.49 179.487C2068.39 166.037 2055.9 159.155 2044.52 164.062C2033.14 168.969 2027.27 183.757 2031.37 197.208Z" fill="white"/>
<path d="M2040.75 192.721C2042.98 200.006 2049.65 203.686 2055.81 201.031C2061.99 198.375 2065.12 190.474 2062.89 183.189C2060.66 175.905 2053.99 172.225 2047.83 174.88C2041.66 177.535 2038.52 185.436 2040.75 192.721Z" fill="#3F2724"/>
<path d="M2051.36 183.504C2052.04 185.745 2054.19 186.933 2056.1 186.116C2057.99 185.3 2059 182.752 2058.32 180.51C2057.63 178.269 2055.48 177.082 2053.58 177.898C2051.69 178.715 2050.68 181.263 2051.36 183.504Z" fill="white" stroke="#1D1D1B" stroke-width="0.2698" stroke-miterlimit="10" stroke-linecap="round" stroke-linejoin="round"/>
<path d="M2057.78 190.462C2058.06 191.395 2058.98 192.057 2059.93 191.648C2060.72 191.309 2061.29 190.221 2060.94 189.1C2060.6 187.98 2059.73 187.505 2058.79 187.914C2058.05 188.44 2057.49 189.527 2057.78 190.462Z" fill="white" stroke="#1D1D1B" stroke-width="0.2698" stroke-miterlimit="10" stroke-linecap="round" stroke-linejoin="round"/>
<path d="M2012.98 276.947C2014.52 281.989 2019.19 284.414 2023.31 282.646C2027.58 280.809 2029.65 275.27 2028.16 270.414L2012.52 219.237C2010.99 214.194 2006.3 211.769 2002.2 213.538C1997.93 215.375 1995.86 220.913 1997.34 225.77L2012.98 276.947Z" fill="#AF1C1C"/>
<path d="M1980.76 218.985C1984.86 232.435 1997.34 239.318 2008.73 234.41C2020.11 229.503 2025.98 214.715 2021.88 201.264C2017.77 187.813 2005.29 180.931 1993.91 185.839C1982.53 190.746 1976.66 205.533 1980.76 218.985Z" fill="white"/>
<path d="M1989.98 214.571C1992.2 221.855 1998.87 225.535 2005.05 222.88C2011.21 220.225 2014.34 212.324 2012.12 205.039C2009.9 197.754 2003.23 194.074 1997.06 196.729C1991.05 199.317 1987.76 207.286 1989.98 214.571Z" fill="#3F2724"/>
<path d="M2000.75 205.288C2001.43 207.529 2003.58 208.717 2005.48 207.9C2007.38 207.083 2008.39 204.534 2007.71 202.293C2007.02 200.052 2004.87 198.865 2002.97 199.682C2000.91 200.566 2000.06 203.047 2000.75 205.288Z" fill="white" stroke="#1D1D1B" stroke-width="0.2698" stroke-miterlimit="10" stroke-linecap="round" stroke-linejoin="round"/>
<path d="M2007.17 212.246C2007.45 213.181 2008.37 213.842 2009.32 213.434C2010.11 213.094 2010.68 212.007 2010.33 210.886C2009.99 209.765 2009.12 209.29 2008.18 209.698C2007.29 210.294 2006.88 211.313 2007.17 212.246Z" fill="white" stroke="#1D1D1B" stroke-width="0.2698" stroke-miterlimit="10" stroke-linecap="round" stroke-linejoin="round"/>
<path d="M1962.97 461.183C1966.18 459.381 1967.95 455.235 1967.01 450.991C1963.01 432.006 1963.37 411.558 1967.69 388.78C1971.44 369.416 1993.97 352.959 2002.38 348.283C2006.22 346.209 2007.81 340.875 2005.91 336.409C2004.17 331.876 1999.66 330.011 1995.88 332.272C1994.2 333.208 1959.19 353.341 1952.93 384.985C1948.08 410.108 1947.83 433.884 1952.27 455.434C1953.22 460.307 1957.32 463.192 1961.39 461.864C1962.02 461.591 1962.49 461.387 1962.97 461.183Z" fill="#AF1C1C"/>
<path d="M1993.45 461.381C1993.61 461.313 1993.93 461.177 1994.09 461.109C1997.93 459.034 1999.51 453.7 1997.78 449.167C1990.7 431.289 1987.68 411.454 1988.43 388.101C1988.97 368.213 2008.42 346.953 2015.89 340.358C2019.28 337.418 2019.92 331.863 2017.44 327.857C2014.96 323.851 2010.26 323.124 2006.87 326.064C2005.61 327.237 1974.22 355.113 1973.35 387.399C1972.62 413.078 1976.34 436.41 1984.1 456.53C1985.78 460.877 1989.81 462.946 1993.45 461.381Z" fill="#CD3333"/>
<path d="M2022.79 462.502C2022.94 462.433 2023.26 462.298 2023.42 462.229C2027.26 460.155 2028.85 454.82 2027.1 450.287C2019.92 432.036 2013.39 407.159 2009.55 383.453C2005.94 360.494 2024.33 336.942 2024.48 336.874C2027.34 333.322 2027.22 327.667 2024.23 324.306C2021.23 320.946 2016.45 321.102 2013.6 324.654C2012.56 325.945 1989.54 354.868 1994.73 387.081C1998.76 411.976 2005.64 438.602 2013.39 458.092C2015.01 462.252 2019.15 464.066 2022.79 462.502Z" fill="#AF1C1C"/>
<path d="M2054.53 452.228C2055.32 451.888 2055.88 451.429 2056.62 450.902C2059.96 447.773 2060.43 442.287 2057.96 438.28C2047.58 422.46 2036.37 399.811 2028.09 378.008C2020.1 356.512 2033.63 328.713 2033.73 328.458C2035.82 324.175 2034.69 318.741 2031.08 316.281C2027.47 313.822 2022.87 315.168 2020.77 319.449C2019.96 320.86 2003.06 355.185 2014.37 385.188C2023.09 408.485 2034.86 432.372 2046.11 449.298C2047.98 452.506 2051.52 453.522 2054.53 452.228Z" fill="#CD3333"/>
<path d="M2151.86 161.613C2151.86 161.613 2181.53 102.354 2118.82 58.7511C2118.82 58.7511 2095.17 46.9475 2102.68 60.41C2110.35 73.8045 2131.72 85.7456 2122.38 96.7407C2113.03 107.735 2126.47 104.278 2125.09 119.666C2123.7 135.054 2120.79 133.137 2128.07 148.179C2135.3 163.035 2151.86 161.613 2151.86 161.613Z" fill="#E82E2E"/>
<path d="M2128.27 162.887C2127.38 163.482 2143.09 141.086 2131.16 133.112C2119.24 125.139 2110.12 131.6 2110.13 117.01C2110.31 102.354 2113.43 101.434 2104.1 94.8853C2094.6 88.4044 2087.56 85.3014 2088.1 75.3488C2088.64 65.3961 2085.18 52.3043 2078.27 63.0938C2071.37 73.8832 2061.48 151.046 2100.34 172.791C2139.25 194.723 2128.27 162.887 2128.27 162.887Z" fill="#DB2A2A"/>
<path d="M2130.95 246.051C2130.95 246.051 2164.05 226.106 2161.88 183.292C2159.71 140.479 2136.89 144.808 2120.05 156.488C2103.28 168.354 2115.85 241.137 2117.57 242.087C2119.29 243.037 2130.95 246.051 2130.95 246.051Z" fill="#BC2222"/>
<path d="M2112.38 235.656C2100.41 238.06 2085.13 247.174 2083.3 254.087C2077.41 275.219 2100.97 272.689 2115 267.074C2126.5 262.548 2136.76 251.586 2135.81 244.386C2134.76 237.441 2124.42 233.44 2112.38 235.656Z" fill="#DB2A2A"/>
</svg>
