<svg width="980" height="908" viewBox="0 0 980 908" fill="none" xmlns="http://www.w3.org/2000/svg">
<path fill-rule="evenodd" clip-rule="evenodd" d="M406.5 1.054C385.079 2.196 344.858 6.583 310 11.581C210.289 25.876 128.21 50.052 74.487 80.951C56.434 91.335 39.346 104.635 25.671 118.949C10.598 134.726 4.448 145.153 1.429 160.054C-1.654 175.267 0.65 191.449 7.997 206.197C16.136 222.535 19.985 225.938 26.411 222.478C28.445 221.383 30.614 220.952 32.099 221.349C38.243 222.991 62.971 242.845 162.482 326.033C361.823 492.678 408.676 532.814 416.347 543.5C417.822 545.555 418.658 548.548 419 553L419.5 559.5H490H560.5L561 553.412C561.375 548.849 562.231 546.269 564.415 543.12C571.773 532.509 600.623 507.853 812.5 331.097C914.022 246.404 934.251 230.04 945.76 223.295C950.186 220.701 950.272 220.692 953.556 222.46C960.033 225.948 963.587 222.937 971.428 207.314C977.944 194.331 979.456 187.835 979.413 173C979.381 161.708 979.085 159.667 976.353 151.882C972.573 141.107 966.52 131.936 955.386 120.108C936.945 100.518 916.886 86.02 889.558 72.53C844.758 50.414 788.17 32.745 720 19.588C649.281 5.939 619.176 3.354 503.5 0.998C450.543 -0.081 427.557 -0.068 406.5 1.054ZM574.169 105.85C579.486 106.208 584.186 106.85 584.613 107.278C585.887 108.555 582.22 152.817 565 344C551.763 490.97 550 511.448 550 518.238V524H490H430V518.182C430 511.332 427.102 478.332 411.06 302.5C404.486 230.45 398.408 162.705 397.554 151.955C395.719 128.874 395.505 108.424 397.089 107.445C397.688 107.075 403.426 106.44 409.839 106.035C424.355 105.118 560.991 104.965 574.169 105.85ZM385.19 110.25C386.368 111.187 387.054 115.004 387.928 125.5C388.57 133.2 395.137 206.1 402.521 287.5C420.814 489.167 421.925 502.277 420.592 500.917C418.454 498.734 304 123.355 304 118.526C304 116.771 305.354 116.496 328.5 113.563C366.873 108.7 382.12 107.809 385.19 110.25ZM641 112.469C670.82 116.011 676 116.91 676 118.544C676 123.267 560.548 499.785 558.459 501.874C558.171 502.162 558.194 499.946 558.509 496.949C559.049 491.805 561.636 463.051 584.013 213.5C589.043 157.4 593.36 110.87 593.605 110.1C594.218 108.181 612.662 109.103 641 112.469ZM714 123.546C735.027 127.21 762.342 133.337 764.982 134.981C766.247 135.77 766.064 136.719 763.724 141.491C753.856 161.61 569.063 502.396 568.387 501.72C567.734 501.068 619.87 328.702 650.878 229C668.045 173.8 682.808 129.256 686.028 122.945C687.744 119.582 688.387 119.115 690.757 119.513C692.266 119.767 702.725 121.581 714 123.546ZM295.356 126.211C300.808 137.115 310.81 168.889 378.55 390.5C413.282 504.126 412.118 500.216 411.791 502.218C411.63 503.198 406.235 494.383 399.734 482.517C372.139 432.149 267.607 237.445 227.663 162.01C217.843 143.466 213.496 134.317 214.303 133.897C215.59 133.227 242.125 127.692 266.5 123.008C274.75 121.423 283.975 120.21 287 120.313L292.5 120.5L295.356 126.211ZM795.165 142.007C830.308 152.416 853.222 160.791 858.765 165.252C859.754 166.048 859.44 167.062 857.331 169.885C841.333 191.304 582.054 502.467 576.356 507.086C575.219 508.007 575.675 506.584 577.666 503C579.345 499.975 583.782 491.65 587.524 484.5C605.931 449.331 741.547 196.618 762.737 158C774.213 137.086 775.034 135.799 776.534 136.375C777.247 136.648 785.63 139.183 795.165 142.007ZM205.744 139.25C208.474 142.7 318.08 345.33 385.735 472C399.216 497.241 405.68 509.988 404.243 508.5C399.902 504.003 278.958 359.293 204.913 270C119.295 166.752 119.623 167.16 120.963 165.545C123.202 162.847 151.188 152.118 174.947 144.849C197.632 137.909 203.796 136.788 205.744 139.25ZM899.976 183.138C910.918 188.968 936.579 205.717 939.405 208.873C941.278 210.965 941.278 211.036 939.405 213.136C934.117 219.063 836.038 302.084 714.5 403.51C674.35 437.017 629.111 474.796 613.969 487.465C579.968 515.913 582.006 514.309 584.7 510.5C588.603 504.983 817.75 229.895 857.247 183.311L870.125 168.123L880.288 173.093C885.878 175.827 894.738 180.347 899.976 183.138ZM123 184.08C158.987 225.98 390.889 504.111 396.415 512C397.78 513.949 400.733 516.361 353.5 476.947C278.797 414.611 97.153 261.504 54.747 225.129L38.993 211.616L41.736 208.753C50.317 199.797 103.955 168.269 108.973 169.232C109.813 169.394 116.125 176.075 123 184.08ZM426.113 569.033C423.809 570.702 421.423 573.289 420.81 574.783C420.106 576.499 419.523 589.433 419.227 609.872L418.76 642.243L441.029 664.529L463.299 686.815L462.165 723.658C461.435 747.394 460.498 763.399 459.531 768.649C458.705 773.131 454.64 787.756 450.499 801.149C439.366 837.147 438.685 840.982 438.635 868C438.59 891.858 439.572 899.914 443.062 904.352C447.122 909.513 459.601 908.605 462.534 902.935C464.348 899.426 464.761 894.948 465.983 865.5C466.976 841.563 468.268 834.376 475.416 813C479.321 801.323 481.24 799 486.976 799C492.381 799 495.44 801.926 500.434 811.869C507.516 825.97 508.065 828.722 509.032 855C509.974 880.606 511.11 886.876 515.564 891.059C518.926 894.216 526.658 894.37 530.775 891.362C536.682 887.046 537.467 883.591 537.835 860.303C538.33 829.02 537.561 825.382 524.9 799.104L517 782.707V734.595V686.483L539 664.5L561 642.517L560.956 615.509C560.932 600.654 560.522 585.125 560.046 581C559.239 574.015 558.919 573.275 555.386 570.218C550.064 565.613 547.518 565.207 542.056 568.093C534.485 572.093 534.207 573.285 533.396 605.279L532.692 633.058L520.27 645.065C502.709 662.039 501.91 662.5 490 662.5C478.032 662.5 477.282 662.062 459.045 644.393L446 631.753L445.994 606.627C445.991 591.38 445.555 579.936 444.885 577.523C444.27 575.308 442.108 571.873 440.008 569.773C435.275 565.04 431.875 564.859 426.113 569.033ZM482.179 595.226C475.596 597.819 467.301 605.129 464.871 610.479C460.825 619.385 463.486 630.989 471.653 640.046C476.803 645.758 481.902 647.956 490 647.956C498.04 647.956 503.194 645.761 508.207 640.201C522.578 624.262 518.925 605.811 499.555 596.494C491.208 592.479 489.472 592.353 482.179 595.226Z" fill="#7879F1"/>
</svg>
