<svg width="552" height="526" viewBox="0 0 552 526" fill="none" xmlns="http://www.w3.org/2000/svg">
<g id="Frame 1">
<g id="Frame" clip-path="url(#clip0_2_53)">
<path id="Vector" d="M272.73 525.931C217.194 525.931 161.657 525.099 107.244 512.344C76.3901 505.134 47.2198 493.765 26.7444 468.255C-2.70661 431.376 -5.51147 388.674 7.11038 345.972C36.8418 246.981 97.4266 171.837 192.511 127.194C253.376 98.9108 315.925 102.516 374.546 133.849C463.46 181.542 521.801 254.745 546.764 351.796C566.118 427.494 531.057 483.229 454.204 506.798C407.363 521.216 358.838 523.712 310.595 525.654C297.974 526.208 285.352 525.931 272.73 525.931Z" fill="#1098CC"/>
<g id="Frame_2" clip-path="url(#clip1_2_53)">
<path id="Vector_2" d="M362.958 432.8C365.588 442.784 367.867 452.684 367.428 463.176C366.377 489.323 350.423 508.276 324.301 513.438C310.363 516.23 296.426 514.538 282.751 511.153C260.662 505.738 240.763 496.092 224.196 480.692C212.275 469.692 204.561 456.407 201.055 440.838C200.792 436.438 200.441 432.123 200.178 427.723C200.178 423.153 200.178 418.584 200.178 414.1C202.194 401.915 209.908 393.622 219.901 387.022C226.826 382.453 234.627 380.338 243.13 381.692C265.045 385.245 283.102 394.892 295.812 413.423C294.235 404.623 288.712 398.361 282.664 392.269C284.417 390.915 285.995 389.984 287.31 388.715C292.657 383.722 299.231 382.199 305.893 384.315C313.169 386.599 320.707 389.307 326.668 393.622C336.748 400.899 345.777 409.615 355.156 417.738C356.121 419.43 357.085 421.038 358.049 422.73C359.802 425.946 361.38 429.415 362.958 432.8Z" fill="#ED3377"/>
<path id="Vector_3" d="M362.958 432.8C361.38 429.415 359.715 425.946 358.137 422.561C360.065 421.63 362.081 420.869 363.922 419.684C386.275 405.892 406.436 389.646 422.828 369.422C429.665 360.961 435.714 352.076 437.993 341.246C439.045 336.169 436.765 331.007 431.418 330.246C427.298 329.653 423.091 328.638 418.971 328.807C405.296 329.315 391.71 330.245 378.123 331.176C365.851 332.022 353.491 332.953 341.219 333.799C324.564 334.899 307.909 336.761 291.254 336.93C271.005 337.184 250.844 336.084 230.595 335.407C222.355 335.153 214.116 334.307 205.876 333.63C194.217 332.615 182.471 331.515 170.813 330.415C162.485 329.653 154.245 328.384 146.006 328.215C136.451 327.961 126.809 328.469 117.254 328.722C113.572 328.807 112.696 331.515 112.871 334.392C113.134 337.184 113.748 339.976 114.624 342.599C119.796 357.915 129.964 370.353 140.746 382.115C154.684 397.346 170.725 410.376 188.432 421.376C192.201 423.746 196.321 425.607 200.178 427.638C200.441 432.038 200.792 436.353 201.055 440.753C178.263 429.584 158.19 414.692 140.22 397.176C127.247 384.484 115.676 370.776 107.612 354.615C104.105 347.592 101.476 340.315 102.089 332.276C102.615 324.83 105.946 320.345 113.397 318.653C117.605 317.638 122.075 316.792 126.283 317.045C144.603 317.976 162.923 319.245 181.244 320.599C199.389 321.953 217.534 324.153 235.679 325.084C254.438 326.015 273.284 326.692 292.131 326.015C316.324 325.169 340.43 322.969 364.536 321.361C382.155 320.176 399.686 318.992 417.306 318.061C421.776 317.807 426.334 318.569 430.805 319.076C445.093 320.769 451.58 331.176 448.424 345.138C445.794 356.815 439.132 366.63 431.681 375.853C412.747 399.292 389.343 417.738 362.958 432.8Z" fill="#219653"/>
<path id="Vector_4" d="M355.244 417.569C345.777 409.446 336.836 400.73 326.755 393.453C320.795 389.138 313.168 386.43 305.981 384.145C299.319 382.03 292.744 383.553 287.397 388.545C286.082 389.815 284.505 390.83 282.751 392.099C288.712 398.192 294.322 404.369 295.9 413.253C283.19 394.722 265.22 385.076 243.218 381.522C234.715 380.169 227.001 382.199 219.989 386.853C209.996 393.453 202.194 401.83 200.266 413.93C169.848 395.061 154.421 363.076 156.875 341.076C239.361 341.076 321.759 341.076 404.508 341.076C404.595 356.899 399.774 370.945 391.359 383.976C382.33 398.107 369.795 408.853 355.244 417.569ZM175.02 346.999C176.335 354.107 176.949 360.792 178.877 367.222C180.718 373.484 184.926 375.853 190.886 375.515C198.074 375.092 203.86 371.369 204.561 365.361C205.35 359.353 204.736 353.176 204.736 346.999C194.48 346.999 185.451 346.999 175.02 346.999ZM256.805 346.83C248.127 346.83 239.887 346.745 231.647 346.915C230.858 346.915 229.456 348.184 229.456 348.776C229.982 354.445 230.157 360.199 231.559 365.699C232.699 370.099 236.819 372.299 241.552 372.553C246.374 372.807 250.318 370.861 252.86 366.715C256.454 360.622 256.629 354.022 256.805 346.83ZM323.775 347.084C312.117 347.084 301.773 347.084 290.904 347.084C291.605 351.315 292.043 355.207 293.007 358.93C294.41 364.43 297.828 368.153 304.052 368.745C310.1 369.338 315.185 367.138 317.902 361.976C320.269 357.492 321.671 352.499 323.775 347.084ZM358.663 346.999C358.663 351.145 358.049 355.376 358.838 359.353C359.89 364.938 363.572 366.884 369.445 366.122C376.808 365.192 382.856 356.307 382.33 346.999C374.529 346.999 366.903 346.999 358.663 346.999Z" fill="#262322"/>
<path id="Vector_5" d="M355.243 417.569C369.794 408.853 382.329 398.107 391.446 383.892C399.861 370.861 404.594 356.815 404.594 340.992C321.846 340.992 239.36 340.992 156.962 340.992C154.42 362.992 169.936 394.976 200.265 413.93C200.265 418.5 200.265 423.069 200.265 427.553C196.32 425.438 192.2 423.576 188.519 421.292C170.725 410.376 154.683 397.345 140.746 382.115C129.964 370.353 119.796 357.915 114.712 342.599C113.835 339.976 113.134 337.184 112.958 334.392C112.695 331.515 113.66 328.892 117.341 328.722C126.896 328.384 136.538 327.876 146.093 328.215C154.333 328.469 162.573 329.653 170.812 330.415C182.471 331.515 194.216 332.615 205.875 333.63C214.115 334.307 222.355 335.153 230.594 335.407C250.843 336.084 271.004 337.184 291.253 336.93C307.908 336.761 324.563 334.984 341.218 333.799C353.49 332.953 365.85 331.938 378.122 331.176C391.709 330.245 405.383 329.315 418.97 328.807C423.09 328.638 427.298 329.653 431.417 330.245C436.765 331.007 439.044 336.169 437.992 341.245C435.713 352.076 429.664 360.961 422.827 369.422C406.347 389.645 386.274 405.892 363.921 419.684C362.08 420.784 360.064 421.63 358.136 422.561C357.172 420.953 356.207 419.261 355.243 417.569Z" fill="#9FCC57"/>
<path id="Vector_6" d="M175.02 346.999C185.451 346.999 194.48 346.999 204.736 346.999C204.736 353.176 205.35 359.353 204.561 365.361C203.772 371.369 197.987 375.092 190.886 375.515C185.013 375.853 180.718 373.484 178.877 367.222C177.036 360.792 176.335 354.107 175.02 346.999Z" fill="#F5F4F4"/>
<path id="Vector_7" d="M256.805 346.83C256.629 354.022 256.454 360.622 252.86 366.715C250.406 370.861 246.461 372.722 241.552 372.553C236.819 372.299 232.699 370.184 231.559 365.699C230.157 360.199 229.982 354.446 229.456 348.776C229.368 348.184 230.858 346.915 231.647 346.915C239.887 346.746 248.127 346.83 256.805 346.83Z" fill="#F5F4F4"/>
<path id="Vector_8" d="M323.774 347.084C321.67 352.499 320.268 357.492 317.813 361.976C315.008 367.138 310.012 369.338 303.964 368.746C297.828 368.153 294.321 364.43 292.919 358.93C291.955 355.122 291.516 351.23 290.815 347.084C301.86 347.084 312.116 347.084 323.774 347.084Z" fill="#F3F2F1"/>
<path id="Vector_9" d="M358.663 346.999C366.902 346.999 374.616 346.999 382.243 346.999C382.768 356.307 376.808 365.107 369.357 366.122C363.484 366.884 359.802 364.938 358.75 359.353C358.049 355.376 358.663 351.145 358.663 346.999Z" fill="#F3F2F1"/>
</g>
</g>
<g id="Frame_3" clip-path="url(#clip2_2_53)">
<path id="Vector_10" d="M293.67 225.602C297.17 208.002 300.17 190.402 304.27 172.902C308.57 154.502 313.87 136.302 318.67 118.002C320.57 110.802 320.37 110.902 313.87 107.702C292.87 97.402 280.57 80.902 279.97 57.202C279.37 33.402 296.47 11.702 321.07 3.502C350.37 -6.198 383.07 4.802 397.97 29.702C400.57 34.102 402.37 38.902 404.57 43.502C404.57 52.502 404.57 61.502 404.57 70.502C399.97 78.302 396.17 86.602 390.67 93.702C384.07 102.302 374.57 107.402 364.27 110.702C362.57 111.202 360.87 111.902 358.77 112.602C360.97 124.402 362.97 136.102 365.27 147.802C370.37 173.702 375.47 199.602 380.67 225.402C380.77 226.002 380.77 226.702 380.77 227.402C379.07 225.402 377.67 222.202 375.67 221.702C364.77 219.202 353.77 216.102 342.67 215.702C330.57 215.202 318.37 217.602 306.17 218.102C300.27 218.602 295.77 219.802 293.67 225.602ZM365.77 63.202C370.67 63.302 375.47 63.402 380.37 63.502C384.57 63.502 388.87 63.502 393.07 63.502C394.87 54.002 393.07 44.602 388.17 36.402C374.67 14.002 344.07 5.402 319.37 17.202C303.17 24.902 293.47 37.402 291.87 55.702C291.47 59.902 292.57 62.002 297.27 61.502C300.77 61.202 304.27 61.402 307.77 61.402C310.27 61.402 312.77 61.502 315.27 61.502C331.97 62.102 348.87 62.702 365.77 63.202ZM395.37 66.902C359.57 65.802 324.37 64.802 288.77 63.802C290.37 77.302 296.67 87.202 306.87 94.702C319.27 103.702 333.27 107.502 348.57 106.602C363.17 105.802 376.27 101.202 386.37 90.202C392.17 83.902 396.37 76.602 395.37 66.902ZM352.57 149.702C349.77 138.402 347.27 127.902 344.47 117.602C344.07 116.302 341.87 115.002 340.37 114.702C337.97 114.302 335.07 113.702 333.87 117.402C330.37 128.202 326.67 139.002 323.17 149.702C332.77 149.702 342.27 149.702 352.57 149.702ZM307.27 193.102C326.57 193.102 345.87 193.102 365.37 193.102C365.07 187.602 362.97 183.902 357.57 183.802C344.97 183.602 332.37 183.302 319.87 184.002C314.57 184.302 307.47 184.002 307.27 193.102Z" fill="#7A93B4"/>
<path id="Vector_11" d="M159.67 225.702C163.87 205.402 167.77 185.002 172.37 164.802C176.07 148.602 180.67 132.602 185.17 116.602C186.37 112.302 185.77 110.302 181.37 108.402C159.17 99.202 144.87 78.002 146.07 55.302C147.27 32.202 159.77 16.302 180.27 6.50197C207.47 -6.69803 242.77 1.20197 260.17 24.102C280.27 50.602 273.67 86.402 245.17 103.702C238.97 107.502 232.07 110.002 224.97 113.502C226.67 123.002 228.37 133.302 230.37 143.502C235.77 171.002 241.27 198.502 246.67 226.102C246.87 226.902 246.77 227.802 246.77 228.602C245.17 226.302 243.87 222.302 241.87 221.902C229.47 219.002 217.07 215.902 204.47 215.002C194.27 214.302 183.77 216.802 173.47 217.502C167.17 217.802 161.67 218.702 159.67 225.702ZM231.77 63.202C236.57 63.302 241.37 63.402 246.27 63.502C249.47 63.602 252.57 63.602 255.77 63.902C258.87 64.202 259.67 62.902 259.87 59.902C260.37 50.402 257.87 41.802 252.67 34.002C239.57 14.502 211.57 6.50197 188.17 16.002C171.07 23.002 160.07 35.202 157.97 54.102C157.17 61.302 157.47 61.402 164.57 61.402C167.57 61.402 170.57 61.402 173.57 61.402C176.07 61.402 178.57 61.502 180.97 61.502C197.97 62.102 214.87 62.602 231.77 63.202ZM261.77 66.902C225.77 65.802 190.57 64.802 155.37 63.802C155.27 71.502 159.27 81.002 164.97 87.202C186.67 110.502 223.57 113.802 248.47 94.102C256.67 87.502 261.87 78.602 261.77 66.902ZM174.37 192.702C193.27 192.702 212.27 192.702 231.67 192.702C230.77 189.902 229.97 186.902 228.77 184.002C228.37 183.002 227.07 181.902 225.97 181.702C211.07 179.402 196.07 179.102 181.17 182.002C175.97 183.002 174.17 186.002 174.37 192.702ZM201.17 114.102C197.37 125.302 193.67 136.102 190.07 146.802C199.37 146.802 208.27 146.802 217.67 146.802C215.17 136.402 212.87 126.802 210.37 117.302C210.07 116.202 208.17 115.102 206.87 114.702C205.27 114.102 203.37 114.302 201.17 114.102Z" fill="#7A93B4"/>
<path id="Vector_12" d="M159.67 225.702C161.77 218.702 167.17 217.802 173.37 217.402C183.77 216.702 194.17 214.202 204.37 214.902C216.97 215.802 229.47 218.902 241.77 221.802C243.87 222.302 245.07 226.202 246.67 228.502C248.87 232.202 245.77 231.402 244.07 231.402C234.97 231.202 225.87 230.702 216.77 230.502C198.67 230.102 180.57 229.702 162.57 229.402C159.97 229.502 157.67 229.202 159.67 225.702Z" fill="#56CCF2"/>
<path id="Vector_13" d="M293.67 225.602C295.77 219.802 300.27 218.602 306.07 218.302C318.27 217.802 330.47 215.402 342.57 215.902C353.67 216.402 364.67 219.402 375.57 221.902C377.57 222.402 378.97 225.602 380.67 227.602C382.47 230.302 381.77 231.602 378.57 231.502C360.87 230.902 343.07 230.302 325.37 229.802C315.77 229.502 306.07 229.602 296.47 229.502C293.67 229.502 291.47 229.102 293.67 225.602Z" fill="#56CCF2"/>
<path id="Vector_14" d="M395.37 66.902C396.37 76.602 392.17 83.902 386.37 90.202C376.27 101.202 363.17 105.802 348.57 106.602C333.27 107.402 319.27 103.702 306.87 94.702C296.67 87.202 290.27 77.302 288.77 63.802C324.37 64.802 359.57 65.802 395.37 66.902Z" fill="#56CCF2"/>
<path id="Vector_15" d="M307.57 61.402C304.07 61.402 300.57 61.202 297.07 61.502C292.47 61.902 291.37 59.802 291.67 55.702C293.27 37.402 302.97 25.002 319.17 17.202C343.87 5.40199 374.57 14.002 387.97 36.402C392.87 44.602 394.67 54.002 392.87 63.502C388.67 63.502 384.47 63.502 380.17 63.502C383.77 41.802 365.17 27.402 347.07 26.302C324.27 24.802 305.47 41.802 307.57 61.402Z" fill="#FBFCFB"/>
<path id="Vector_16" d="M307.57 61.402C305.47 41.702 324.27 24.802 347.27 26.202C365.27 27.302 383.87 41.702 380.37 63.402C375.47 63.302 370.67 63.202 365.77 63.102C368.47 54.302 366.07 46.902 358.97 41.402C349.37 33.802 338.57 33.202 327.57 38.102C317.57 42.502 313.57 50.502 314.97 61.502C312.57 61.502 310.07 61.502 307.57 61.402Z" fill="#6FBC47"/>
<path id="Vector_17" d="M315.07 61.602C313.67 50.602 317.67 42.602 327.67 38.202C338.57 33.302 349.37 33.902 359.07 41.502C366.17 47.102 368.57 54.402 365.87 63.202C348.87 62.702 331.97 62.102 315.07 61.602ZM349.07 38.702C345.17 38.602 341.57 41.902 341.47 45.702C341.27 49.902 344.97 53.602 349.47 53.502C353.37 53.502 356.87 50.102 356.87 46.202C356.87 42.202 353.37 38.802 349.07 38.702ZM327.87 62.102C329.97 59.102 332.47 57.102 332.07 55.802C331.57 54.002 329.07 51.902 327.17 51.702C325.87 51.602 322.97 54.502 323.07 55.802C323.17 57.702 325.57 59.302 327.87 62.102Z" fill="#272525"/>
<path id="Vector_18" d="M352.57 149.702C342.17 149.702 332.67 149.702 323.07 149.702C326.67 139.002 330.27 128.202 333.77 117.402C334.97 113.802 337.87 114.302 340.27 114.702C341.77 115.002 344.07 116.302 344.37 117.602C347.37 127.902 349.77 138.402 352.57 149.702Z" fill="#56CCF2"/>
<path id="Vector_19" d="M307.27 193.102C307.37 184.002 314.57 184.202 319.77 183.902C332.27 183.202 344.87 183.502 357.47 183.702C362.97 183.802 365.07 187.502 365.27 193.002C345.97 193.102 326.67 193.102 307.27 193.102Z" fill="#56CCF2"/>
<path id="Vector_20" d="M261.77 66.902C261.87 78.602 256.77 87.502 248.47 94.002C223.57 113.702 186.57 110.402 164.97 87.102C159.27 81.002 155.27 71.502 155.37 63.702C190.57 64.802 225.77 65.802 261.77 66.902Z" fill="#56CCF2"/>
<path id="Vector_21" d="M173.57 61.402C170.57 61.402 167.57 61.502 164.57 61.402C157.47 61.302 157.17 61.302 157.97 54.102C160.07 35.202 171.07 22.902 188.17 15.902C211.47 6.40199 239.57 14.302 252.67 33.902C257.87 41.702 260.37 50.302 259.87 59.802C259.67 62.802 258.87 64.102 255.77 63.802C252.67 63.502 249.47 63.502 246.27 63.402C245.67 57.902 246.37 51.802 244.37 46.902C237.37 29.902 216.17 21.702 197.67 28.202C181.47 33.902 173.17 45.302 173.57 61.402Z" fill="#FBFCFB"/>
<path id="Vector_22" d="M173.57 61.402C173.17 45.302 181.47 33.802 197.57 28.202C216.07 21.802 237.27 29.902 244.27 46.902C246.27 51.802 245.67 57.902 246.17 63.402C241.37 63.302 236.57 63.202 231.67 63.102C234.37 53.002 230.77 44.402 221.67 39.102C215.57 35.502 208.97 34.702 201.97 35.502C187.97 37.102 179.47 47.502 180.87 61.502C178.57 61.502 176.07 61.502 173.57 61.402Z" fill="#6FBC47"/>
<path id="Vector_23" d="M181.07 61.502C179.77 47.502 188.17 37.102 202.17 35.502C209.07 34.702 215.67 35.502 221.87 39.102C230.97 44.402 234.57 53.002 231.87 63.102C214.87 62.602 197.97 62.102 181.07 61.502ZM222.87 46.202C222.87 42.202 219.47 38.902 215.17 38.702C211.17 38.502 207.37 42.102 207.27 46.002C207.27 49.802 210.97 53.402 215.07 53.502C219.17 53.602 222.87 50.202 222.87 46.202ZM193.47 49.402C191.27 52.402 188.77 54.402 189.17 55.602C189.67 57.402 191.97 59.702 193.87 60.002C195.07 60.202 197.97 57.402 198.07 55.902C197.97 54.202 195.67 52.402 193.47 49.402Z" fill="#272525"/>
<path id="Vector_24" d="M174.37 192.702C174.17 185.902 176.07 183.002 181.17 182.002C196.07 179.102 211.07 179.402 225.97 181.702C226.97 181.902 228.27 183.002 228.77 184.002C229.97 186.802 230.77 189.902 231.67 192.702C212.27 192.702 193.27 192.702 174.37 192.702Z" fill="#56CCF2"/>
<path id="Vector_25" d="M201.17 114.102C203.37 114.302 205.27 114.202 206.87 114.702C208.17 115.102 210.07 116.202 210.37 117.302C212.97 126.802 215.17 136.402 217.67 146.802C208.27 146.802 199.37 146.802 190.07 146.802C193.77 136.102 197.47 125.202 201.17 114.102Z" fill="#56CCF2"/>
<path id="Vector_26" d="M349.07 38.702C353.37 38.802 356.87 42.302 356.77 46.302C356.77 50.102 353.27 53.502 349.37 53.602C344.97 53.602 341.17 50.002 341.37 45.802C341.57 41.802 345.17 38.502 349.07 38.702Z" fill="#F4F3F2"/>
<path id="Vector_27" d="M327.87 62.102C325.57 59.302 323.27 57.702 323.07 55.802C322.97 54.502 325.87 51.602 327.17 51.702C329.07 51.902 331.57 54.002 332.07 55.802C332.37 57.102 329.87 59.202 327.87 62.102Z" fill="#EEEDEC"/>
<path id="Vector_28" d="M222.87 46.202C222.87 50.202 219.17 53.702 215.07 53.502C210.97 53.302 207.27 49.702 207.27 46.002C207.37 42.102 211.17 38.502 215.17 38.702C219.47 38.802 222.87 42.202 222.87 46.202Z" fill="#F4F3F2"/>
<path id="Vector_29" d="M193.47 49.402C195.67 52.402 197.97 54.102 197.97 55.902C197.97 57.402 195.07 60.202 193.77 60.002C191.97 59.702 189.67 57.502 189.07 55.602C188.77 54.402 191.27 52.402 193.47 49.402Z" fill="#F2F1F1"/>
</g>
</g>
<defs>
<clipPath id="clip0_2_53">
<rect width="552" height="418" fill="white" transform="translate(0 108)"/>
</clipPath>
<clipPath id="clip1_2_53">
<rect width="348" height="198" fill="white" transform="translate(102 317)"/>
</clipPath>
<clipPath id="clip2_2_53">
<rect width="259" height="232" fill="white" transform="translate(146)"/>
</clipPath>
</defs>
</svg>
