<svg width="442" height="491" viewBox="0 0 442 491" fill="none" xmlns="http://www.w3.org/2000/svg">
<g clip-path="url(#clip0_3_2)">
<path d="M3.00346 358.653C7.65401 333.1 12.7274 307.682 16.8846 282.062C20.8306 257.996 23.79 233.795 27.3836 209.662C30.6249 187.962 33.6548 166.262 37.5303 144.697C41.6171 121.713 47.7474 99.1343 57.8235 77.705C74.8756 41.539 103.554 18.6899 143.295 8.27943C159.854 3.95303 176.765 1.65461 193.887 0.708201C212.067 -0.305808 230.246 -0.373408 248.355 1.45181C281.12 4.83184 311.631 13.8903 337.491 34.5085C353.838 47.5554 365.958 63.6444 375.47 81.6938C389.14 107.652 397.314 135.436 402.951 163.829C409.292 195.6 414.859 227.441 420.637 259.28C425.922 288.686 431.559 318.026 439.239 347.026C441.846 356.895 443.326 366.901 440.367 376.973C439.732 379.069 438.535 381.029 437.619 383.125C437.829 379.88 438.041 376.702 438.182 373.458C429.304 396.239 423.103 419.696 417.184 443.965C396.468 430.31 376.034 417.195 354.049 406.514C355.388 407.934 356.656 409.286 357.995 410.705C350.949 411.314 343.902 411.99 336.856 412.599C337.561 409.016 338.266 405.433 338.9 401.85C338.477 401.715 337.984 401.58 337.561 401.445C328.472 423.009 319.381 444.574 310.151 466.476C308.53 464.718 306.981 462.826 305.219 461.068C292.465 448.359 279.711 435.65 266.887 423.009C264.632 420.845 261.813 419.223 259.277 417.331C258.995 416.925 258.714 416.452 258.431 416.046L258.502 416.181C258.431 415.979 258.361 415.843 258.29 415.641C258.15 415.775 258.008 415.911 257.867 415.979C253.429 416.181 248.99 416.316 244.55 416.52C243.353 415.979 243.141 415.979 242.084 417.331C230.81 432.743 219.536 448.157 208.261 463.569C206.148 466.476 204.175 469.383 202.131 472.29C193.464 458.229 185.009 444.371 176.342 430.648C172.678 424.767 168.521 419.155 164.575 413.545C164.363 413.207 163.448 413.342 162.813 413.207C161.616 412.936 160.417 412.666 159.149 412.395C159.925 410.435 160.629 408.475 161.404 406.447C161.545 406.176 161.756 405.906 161.897 405.635C161.897 405.635 161.756 405.501 161.616 405.433C161.474 405.703 161.333 406.042 161.193 406.312C160.488 406.853 159.642 407.258 159.149 407.934C147.03 424.429 134.98 440.991 122.931 457.553C121.803 459.108 120.606 460.73 119.479 462.353C118.985 461.947 118.774 461.812 118.633 461.609C108.698 445.52 98.7625 429.363 88.6864 413.274C86.4315 409.692 83.4722 406.514 80.8651 403.134V403.202C80.8651 402.864 80.7945 402.526 80.7945 402.256C80.5828 402.323 80.3718 402.391 80.1603 402.458C77.6236 401.512 75.087 400.633 72.6208 399.687C73.0436 399.214 73.4663 398.74 73.8186 398.267C51.2705 407.191 30.5545 419.021 9.06324 431.053C9.06324 426.186 9.34513 421.995 8.99281 417.871C7.93586 404.148 6.87892 390.494 5.54013 376.77C5.04689 370.753 3.91948 364.738 3.00346 358.653ZM214.885 320.053C214.251 320.459 213.406 320.797 212.983 321.338C203.33 334.723 193.676 348.107 184.234 361.56C180.781 366.428 177.751 371.565 174.299 376.906C161.686 356.625 148.791 337.156 133.43 319.31C144.352 346.891 158.726 372.714 174.299 398.403C174.933 397.591 175.355 397.118 175.638 396.645C188.109 375.824 200.088 354.732 210.094 332.627C211.926 328.504 213.476 324.312 215.097 320.121C215.238 319.85 215.449 319.58 215.59 319.31C215.59 319.31 215.449 319.175 215.308 319.107C215.097 319.445 215.026 319.783 214.885 320.053ZM267.591 319.986C282.671 294.771 297.115 269.42 307.614 242.11C292.395 259.618 279.781 278.885 267.31 298.692C254.626 278.344 241.731 258.942 226.371 240.42C227.992 250.019 258.783 309.237 267.591 319.986ZM112.221 330.869C121.663 317.214 153.583 258.672 152.244 252.386C137.376 270.435 124.764 289.633 112.291 309.44C99.608 289.092 86.713 269.691 71.3524 251.777C82.204 279.357 96.7194 305.113 112.221 330.869ZM385.053 301.531C369.903 319.107 357.22 338.17 344.889 357.977C340.379 351.014 336.222 344.39 331.854 337.9C327.485 331.41 323.046 324.92 318.465 318.566C313.956 312.347 309.165 306.263 304.514 300.179C304.232 300.381 303.95 300.517 303.598 300.72C314.872 328.03 329.247 353.854 344.889 379.677C360.179 354.124 374.554 328.774 385.053 301.531Z" fill="#100107"/>
<path d="M357.995 410.706C356.656 409.286 355.388 407.934 354.049 406.515C376.034 417.195 396.468 430.31 417.185 443.966C423.174 419.764 429.304 396.239 438.182 373.458C437.971 376.702 437.76 379.88 437.619 383.125C435.998 393.468 434.518 403.811 432.615 414.086C429.868 428.418 426.767 442.749 423.878 457.08C423.738 457.688 423.455 458.297 423.174 459.31C413.168 452.213 403.232 445.385 393.65 438.219C382.657 429.972 371.947 421.387 361.096 412.936C360.11 412.125 359.052 411.45 357.995 410.706Z" fill="#7C9C6E"/>
<path d="M3.00357 358.653C3.91959 364.738 5.04699 370.754 5.6107 376.838C6.94949 390.494 8.00643 404.216 9.06341 417.939C9.34521 422.063 9.13384 426.186 9.13384 431.121C30.625 419.088 51.4116 407.258 73.8892 398.335C73.4664 398.808 73.0437 399.282 72.6914 399.755C51.4116 415.505 29.2157 429.904 6.31532 443.425C4.62421 444.439 2.93311 445.385 0.678294 446.737C0.537368 444.709 0.32598 443.087 0.32598 441.531C-0.378649 415.573 -0.0263347 389.615 2.22847 363.723C2.3694 362.033 2.72172 360.343 3.00357 358.653Z" fill="#7C9D6E"/>
<path d="M162.884 413.274C163.518 413.342 164.434 413.274 164.645 413.613C168.662 419.291 172.748 424.902 176.413 430.716C185.079 444.438 193.535 458.296 202.202 472.357C204.246 469.518 206.218 466.544 208.332 463.637C219.607 448.224 230.88 432.811 242.154 417.398C243.141 416.046 243.352 416.046 244.621 416.587C232.501 441.058 218.479 464.584 203.611 487.568C203.047 488.514 202.343 489.393 201.427 490.678C198.045 484.525 194.733 478.915 191.844 473.101C182.543 454.105 173.453 434.974 164.293 415.979C163.871 415.1 163.377 414.221 162.884 413.274Z" fill="#7C9C6E"/>
<path d="M161.474 406.582C160.699 408.543 159.994 410.503 159.219 412.531C153.794 422.333 148.579 432.27 142.872 441.937C135.192 454.917 127.229 467.761 119.056 481.145C118.422 480.199 118.069 479.726 117.788 479.185C104.752 455.66 92.3507 431.865 82.0628 407.123C81.5695 405.906 81.2879 404.554 80.9357 403.27C83.5428 406.65 86.502 409.827 88.757 413.41C98.8331 429.431 108.698 445.588 118.703 461.744C118.844 461.947 119.056 462.015 119.549 462.488C120.747 460.865 121.874 459.311 123.002 457.688C135.051 441.126 147.1 424.631 159.219 408.07C159.713 407.393 160.558 406.987 161.263 406.447L161.474 406.582Z" fill="#7C9C6E"/>
<path d="M259.277 417.331C261.814 419.223 264.632 420.846 266.887 423.009C279.782 435.582 292.465 448.359 305.219 461.068C306.981 462.826 308.53 464.718 310.151 466.476C319.381 444.574 328.472 423.009 337.561 401.445C337.984 401.58 338.477 401.715 338.9 401.85C338.195 405.433 337.491 409.016 336.857 412.599C332.629 426.93 328.542 441.329 324.173 455.66C321.214 465.192 317.761 474.656 314.45 484.391C313.745 483.917 313.392 483.782 313.111 483.444C294.508 462.894 276.47 441.87 260.405 419.426C259.982 418.75 259.699 418.074 259.277 417.331Z" fill="#7C9C6E"/>
<path d="M80.2306 402.526C80.4424 402.458 80.6534 402.391 80.8651 402.323C80.8651 402.662 80.9357 402.999 80.9357 403.27C80.724 402.999 80.5122 402.796 80.2306 402.526Z" fill="#7C9C6E"/>
<path d="M258.431 416.046C258.713 416.452 258.995 416.925 259.277 417.331C259.066 416.925 258.713 416.52 258.431 416.046Z" fill="#7C9C6E"/>
<path d="M257.938 416.046C258.079 415.911 258.22 415.775 258.361 415.708C258.431 415.911 258.502 416.046 258.572 416.249H258.22L257.938 416.046Z" fill="#7C9C6E"/>
<path d="M267.591 319.986C258.854 309.305 228.062 250.087 226.371 240.42C241.731 258.942 254.627 278.344 267.31 298.692C279.852 278.885 292.395 259.618 307.614 242.11C297.115 269.353 282.671 294.771 267.591 319.986Z" fill="#7B9C6C"/>
<path d="M112.221 330.869C96.7186 305.113 82.204 279.358 71.4228 251.777C86.7836 269.691 99.6786 289.092 112.362 309.44C124.833 289.633 137.447 270.435 152.314 252.386C153.512 258.672 121.593 317.281 112.221 330.869Z" fill="#7B9C6C"/>
<path d="M385.053 301.531C374.554 328.774 360.179 354.124 344.819 379.677C329.176 353.854 314.802 328.03 303.527 300.72C303.81 300.517 304.091 300.382 304.443 300.179C309.094 306.33 313.886 312.347 318.395 318.566C322.975 324.92 327.415 331.41 331.783 337.9C336.152 344.39 340.31 351.014 344.819 357.977C357.22 338.238 369.903 319.107 385.053 301.531Z" fill="#7B9C6C"/>
<path d="M215.026 320.188C213.335 324.379 211.855 328.571 210.023 332.695C200.017 354.732 188.039 375.824 175.567 396.713C175.285 397.186 174.863 397.591 174.228 398.47C158.656 372.849 144.281 346.958 133.36 319.377C148.721 337.292 161.616 356.693 174.228 376.973C177.681 371.565 180.781 366.495 184.163 361.628C193.676 348.175 203.33 334.79 212.912 321.406C213.335 320.797 214.181 320.527 214.814 320.121L215.026 320.188Z" fill="#7B9C6C"/>
<path d="M214.885 320.054C215.026 319.783 215.097 319.445 215.238 319.175C215.308 319.242 215.52 319.377 215.52 319.377C215.378 319.648 215.167 319.918 215.026 320.189L214.885 320.054Z" fill="#7B9C6C"/>
<path d="M161.263 406.447C161.404 406.176 161.545 405.838 161.686 405.568C161.757 405.636 161.968 405.771 161.968 405.771C161.827 406.042 161.616 406.312 161.474 406.582L161.263 406.447Z" fill="#7C9C6E"/>
<g clip-path="url(#clip1_3_2)">
<path d="M211.735 80.4221C211.735 107.378 190.884 128.942 164.723 128.844C138.948 128.844 118 107.181 118 80.5201C118 53.6627 139.141 31.9023 165.109 32.0003C190.884 32.0984 211.735 53.6627 211.735 80.4221ZM200.151 80.4221C200.151 59.8379 184.512 43.5666 164.819 43.5666C145.319 43.6647 129.584 60.034 129.584 80.4221C129.584 101.202 145.126 117.081 165.399 117.081C184.802 117.081 200.248 100.81 200.151 80.4221Z" fill="#219653"/>
<path d="M313 82.7746C312.903 109.73 291.955 130.902 265.601 130.804C239.923 130.706 219.168 108.946 219.265 82.0885C219.265 55.4271 240.696 33.7647 266.663 33.9608C292.438 34.2548 313 55.9172 313 82.7746ZM301.416 82.4806C301.416 61.9945 285.777 45.6251 266.181 45.6251C246.584 45.6251 230.849 61.9945 230.849 82.3826C230.849 102.967 246.391 119.042 266.181 119.042C286.067 119.042 301.416 103.163 301.416 82.4806Z" fill="#219653"/>
<path d="M200.151 80.4221C200.151 100.81 184.802 116.983 165.399 117.081C145.126 117.179 129.584 101.3 129.584 80.4221C129.584 60.0339 145.319 43.5666 164.916 43.5666C184.512 43.6646 200.151 59.9359 200.151 80.4221ZM181.906 84.1468C181.423 74.3448 180.554 66.8953 175.245 61.0141C172.252 57.6815 168.391 54.6429 163.854 56.9953C159.413 59.3478 160.475 64.5429 161.923 67.9735C165.881 77.7755 165.302 87.1854 162.02 96.8894C160.861 100.222 159.896 104.437 163.564 106.691C167.233 108.848 170.804 106.495 173.507 103.947C175.631 101.888 177.658 99.2419 178.72 96.4973C180.361 91.8904 181.23 86.8914 181.906 84.1468Z" fill="#F9EB23"/>
<path d="M301.416 82.4805C301.416 103.163 286.067 119.042 266.084 119.14C246.295 119.14 230.752 103.065 230.752 82.4805C230.752 62.0924 246.488 45.625 266.084 45.7231C285.777 45.625 301.416 61.8963 301.416 82.4805ZM285.005 83.5587C283.943 78.6577 283.653 73.5607 281.626 69.3458C279.792 65.5231 276.51 61.7983 272.938 59.4458C267.532 55.9171 262.995 59.2498 263.767 65.8171C264.153 69.1498 265.795 72.3844 266.084 75.7171C266.567 81.1082 266.567 86.5973 266.277 91.9884C266.084 95.027 264.443 97.9676 264.25 100.908C264.153 103.457 264.54 107.083 266.084 108.162C267.725 109.338 271.78 108.848 273.421 107.476C276.703 104.829 279.792 101.398 281.53 97.6736C283.557 93.5567 283.943 88.4597 285.005 83.5587Z" fill="#F9EB23"/>
<path d="M181.906 84.1469C181.231 86.8915 180.458 91.8905 178.721 96.4974C177.755 99.242 175.632 101.889 173.508 103.947C170.805 106.495 167.233 108.848 163.565 106.691C159.897 104.437 160.862 100.222 162.02 96.8895C165.302 87.1855 165.882 77.7756 161.924 67.9737C160.572 64.543 159.414 59.2499 163.854 56.9954C168.295 54.643 172.156 57.6816 175.246 61.0143C180.555 66.8954 181.424 74.2469 181.906 84.1469Z" fill="#262523"/>
<path d="M285.005 83.5587C283.943 88.4597 283.557 93.4587 281.626 97.7716C279.889 101.594 276.8 104.927 273.517 107.574C271.78 108.946 267.822 109.436 266.181 108.26C264.636 107.181 264.25 103.457 264.347 101.006C264.443 97.9676 266.181 95.027 266.374 92.0864C266.663 86.6953 266.663 81.2062 266.181 75.8151C265.891 72.4825 264.25 69.2478 263.864 65.9151C263.092 59.3478 267.629 56.0151 273.035 59.5438C276.606 61.8963 279.792 65.6211 281.723 69.4438C283.653 73.6587 283.943 78.7557 285.005 83.5587Z" fill="#262523"/>
</g>
<g clip-path="url(#clip2_3_2)">
<path d="M308.079 235.548C296.599 233.65 285.12 231.933 273.706 229.764C251.074 225.606 228.378 223.527 205.484 225.335C183.509 227.052 161.468 228.227 139.427 229.131C133.589 229.402 127.62 228.137 121.913 226.42C106.104 221.72 101.315 200.75 111.679 183.577C118.698 172.008 128.013 165.229 137.918 159.897C153.727 151.31 170.258 146.881 187.182 144.35C202.27 142.091 217.423 141.277 232.576 142.723C257.634 145.073 282.168 150.858 304.668 167.398C312.539 173.183 319.952 180.143 324.675 190.718C327.299 196.593 329.332 203.462 330.185 210.15C332.022 224.16 325.397 233.921 314.311 234.644C312.211 234.825 310.178 234.644 308.079 234.644C308.079 235.006 308.079 235.277 308.079 235.548ZM292.335 175.172C286.038 164.145 278.101 160.168 268.195 164.145C267.08 163.602 266.031 162.789 264.85 162.518C254.879 160.62 244.908 157.998 234.872 157.275C223.064 156.372 211.125 156.191 199.318 157.275C187.576 158.36 175.834 160.62 164.223 163.602C151.038 167.037 138.246 172.641 126.964 183.125C122.372 187.373 118.239 192.164 116.665 199.937C115.681 204.727 116.73 208.885 119.813 210.964C121.125 211.868 122.634 212.681 124.077 213.043C134.179 215.845 144.281 216.297 154.515 215.122C164.682 213.856 174.916 213.675 185.149 213.133C190.593 212.772 196.038 212.5 201.483 212.139C210.076 211.597 218.604 210.783 227.197 210.512C232.51 210.331 237.824 210.964 243.203 211.325C246.22 211.506 249.303 211.868 252.321 212.32C260.914 213.675 269.507 215.212 278.101 216.658C286.563 218.104 295.09 219.912 303.618 220.906C307.882 221.448 312.277 220.725 316.607 220.093C318.968 219.731 320.608 217.291 320.542 213.856C320.477 211.235 320.018 208.523 319.362 205.993C316.738 196.05 311.228 189.362 305.061 183.939C301.125 180.504 296.599 178.064 292.335 175.172Z" fill="#9B51E0"/>
<path d="M292.335 175.172C296.599 178.064 301.06 180.504 305.061 183.939C311.228 189.362 316.738 196.05 319.362 205.993C320.018 208.523 320.477 211.235 320.542 213.856C320.608 217.291 318.968 219.731 316.607 220.093C312.277 220.725 307.882 221.358 303.618 220.906C295.091 219.912 286.628 218.104 278.101 216.658C269.507 215.212 260.914 213.675 252.321 212.32C249.303 211.868 246.286 211.506 243.203 211.325C237.889 210.964 232.576 210.331 227.197 210.512C218.604 210.783 210.076 211.597 201.483 212.139C196.038 212.5 190.593 212.772 185.149 213.133C174.916 213.766 164.682 213.947 154.515 215.122C144.216 216.387 134.114 215.845 124.078 213.043C122.634 212.681 121.126 211.868 119.814 210.964C116.731 208.795 115.681 204.637 116.665 199.937C118.305 192.164 122.438 187.373 126.964 183.125C138.312 172.641 151.104 167.037 164.289 163.602C175.9 160.62 187.642 158.36 199.384 157.275C211.191 156.191 223.13 156.372 234.937 157.275C244.974 158.089 254.945 160.62 264.916 162.518C266.031 162.698 267.146 163.602 268.261 164.145C264.456 167.76 260.521 166.404 256.453 165.048C243.99 161.072 231.33 158.993 218.538 158.812C202.598 158.541 186.92 160.891 171.505 166.223C159.763 170.291 148.152 175.172 138.115 185.114C131.621 191.531 131.884 192.887 134.048 203.462C137.328 201.293 140.543 198.581 144.085 196.954C148.742 194.875 153.596 193.791 158.32 192.345C159.172 192.525 160.025 192.977 160.812 192.887C171.701 192.435 182.656 191.802 193.545 191.35C195.513 190.447 197.481 189.543 199.449 188.729C204.435 188.729 209.354 188.729 214.34 188.639C216.439 188.639 218.538 188.639 220.637 188.729L220.9 188.639L221.162 188.91C221.949 188.91 222.736 189 223.523 189C224.573 189 225.688 188.91 226.738 189.091C233.166 189.904 239.595 190.718 245.958 191.531C248.91 192.435 251.862 193.248 254.814 194.152C267.671 196.683 280.462 199.214 293.319 201.745C299.814 205.36 307.029 206.897 312.146 214.76C313.72 204.908 312.802 200.931 307.62 195.056C305.914 193.158 304.274 191.079 302.306 189.814C297.583 186.56 294.238 181.86 292.335 175.172Z" fill="#BB6BD9"/>
<path d="M158.254 192.345C153.465 193.881 148.611 194.875 144.019 196.954C140.477 198.491 137.263 201.293 133.983 203.462C131.818 192.887 131.556 191.622 138.05 185.114C148.021 175.262 159.697 170.381 171.439 166.223C186.854 160.891 202.532 158.541 218.472 158.812C231.264 158.993 243.924 161.072 256.388 165.048C260.455 166.314 264.391 167.76 268.195 164.145C278.101 160.168 286.038 164.145 292.335 175.172C294.238 181.86 297.583 186.56 302.241 189.723C304.143 190.989 305.849 193.068 307.554 194.966C312.736 200.841 313.655 204.818 312.08 214.67C307.029 206.806 299.814 205.179 293.254 201.654C295.222 202.016 295.091 200.118 294.959 198.491C294.631 194.604 294.369 190.718 293.647 186.922C289.843 168.393 275.805 160.62 264.391 170.652C258.225 176.075 255.666 184.481 254.748 194.062C251.796 193.158 248.844 192.345 245.892 191.441C246.023 186.379 244.777 182.041 242.284 178.425C238.677 173.002 232.904 171.466 227.656 174.358C223.064 176.889 220.44 182.222 220.572 188.82C218.472 188.82 216.373 188.82 214.274 188.729C213.093 182.131 210.207 178.516 206.337 178.968C202.27 179.42 199.58 183.216 199.384 188.729C197.416 189.633 195.448 190.537 193.48 191.35C193.152 184.752 190.2 180.685 186.264 177.973C180.098 173.725 173.604 173.635 167.307 177.16C162.911 179.6 159.369 183.487 158.451 190.447C158.385 190.537 158.254 190.537 158.254 190.627C158.254 190.808 158.254 191.079 158.32 191.26C158.32 191.622 158.32 191.983 158.254 192.345Z" fill="#262324"/>
<path d="M254.814 193.972C255.732 184.391 258.225 175.895 264.456 170.562C275.87 160.529 289.908 168.393 293.713 186.831C294.5 190.537 294.697 194.514 295.025 198.4C295.156 200.027 295.287 201.925 293.319 201.564C280.462 199.033 267.605 196.502 254.814 193.972Z" fill="#FBFAFA"/>
<path d="M158.254 192.345C158.254 191.983 158.254 191.622 158.32 191.26C158.385 191.17 158.516 191.17 158.516 191.079C158.516 190.898 158.516 190.627 158.451 190.447C159.435 183.487 162.977 179.6 167.306 177.16C173.669 173.635 180.098 173.725 186.264 177.973C190.2 180.685 193.152 184.752 193.48 191.35C182.591 191.893 171.636 192.435 160.747 192.887C159.959 192.977 159.107 192.525 158.254 192.345Z" fill="#FBFAFA"/>
<path d="M220.637 188.729C220.506 182.222 223.13 176.798 227.722 174.268C233.035 171.375 238.742 172.912 242.35 178.335C244.777 182.041 246.089 186.379 245.958 191.35C239.529 190.537 233.101 189.723 226.738 188.91C225.688 188.82 224.639 188.82 223.523 188.82C222.736 188.82 221.949 188.729 221.162 188.729L220.9 188.458L220.637 188.729Z" fill="#F9F8F8"/>
<path d="M199.449 188.639C199.712 183.035 202.335 179.329 206.402 178.877C210.273 178.425 213.159 182.041 214.34 188.639C209.354 188.639 204.369 188.639 199.449 188.639Z" fill="#F7F6F6"/>
<path d="M221.162 188.82C221.949 188.82 222.736 188.91 223.523 188.91C222.736 188.82 221.949 188.82 221.162 188.82Z" fill="#262324"/>
<path d="M158.516 190.447C158.516 190.627 158.582 190.898 158.582 191.079C158.582 191.17 158.451 191.17 158.385 191.26C158.385 190.989 158.319 190.808 158.319 190.627C158.254 190.537 158.385 190.537 158.516 190.447Z" fill="#BB6BD9"/>
</g>
</g>
<defs>
<clipPath id="clip0_3_2">
<rect width="442" height="491" fill="white"/>
</clipPath>
<clipPath id="clip1_3_2">
<rect width="195" height="99" fill="white" transform="translate(118 32)"/>
</clipPath>
<clipPath id="clip2_3_2">
<rect width="225" height="94" fill="white" transform="translate(106 142)"/>
</clipPath>
</defs>
</svg>
