<svg width="592" height="579" viewBox="0 0 592 579" fill="none" xmlns="http://www.w3.org/2000/svg">
<path d="M510.788 534.847C491.661 522.008 475.983 511.361 457.797 498.836C449.958 521.382 442.746 542.049 433.653 568.04C422.992 546.746 414.212 529.837 403.864 509.482C397.28 527.645 391.322 543.928 384.11 563.03C370 549.565 357.458 537.665 343.661 524.826C332.686 539.857 322.653 553.322 310.424 569.919C299.136 550.817 289.102 533.594 276.873 512.927C264.644 535.473 253.669 555.514 241.127 578.374C232.034 559.898 223.881 543.302 214.474 524.2C201.932 542.989 190.958 559.585 178.102 579C168.695 554.888 160.229 533.281 150.822 509.482C135.458 528.897 121.034 546.746 106.61 564.909C105.356 564.595 104.415 564.282 103.161 563.969C103.161 544.241 103.161 524.2 103.161 498.836C79.0168 513.553 58.6356 525.766 38.5678 538.292C37.9406 537.665 36.9999 537.039 36.3728 536.413C45.7796 517.937 55.1864 499.149 65.8475 478.168C46.0932 478.168 29.1609 478.168 12.2287 478.168C11.6016 476.916 11.288 475.976 10.6609 474.724C24.7711 461.572 39.1949 448.42 55.8135 433.076C37.3135 423.995 20.6949 415.853 0 405.832C25.7119 392.994 48.9153 381.407 75.8814 367.629C51.4238 355.103 30.4153 344.456 5.33055 331.931C28.2204 323.789 47.9745 317.213 70.2372 309.385C47.9745 291.535 27.5933 275.252 3.76275 255.837C37.9407 250.514 67.4151 245.817 101.593 240.493C79.9575 227.968 61.4577 217.321 39.8221 204.795C64.5933 200.098 86.2287 195.714 111.627 190.704C100.025 176.925 89.6779 164.713 77.1355 149.369C99.0847 148.116 117.271 147.177 135.458 145.924C136.398 144.045 137.653 142.48 138.593 140.601C122.288 127.449 105.669 114.297 89.3644 101.145C90.9322 99.2661 92.1863 97.0741 93.7541 95.1952C118.212 95.1952 142.669 95.1952 171.203 95.1952C157.407 78.9118 146.119 65.4467 134.831 51.9816C135.458 51.0422 136.085 50.1028 136.712 49.4765C154.898 53.8605 173.398 58.5576 194.72 63.881C188.449 41.9611 183.119 23.1725 176.534 0C196.602 9.08113 212.907 15.9703 228.898 23.7988C238.932 28.8091 247.398 29.7485 258.059 24.7382C282.83 13.152 307.915 14.4045 331.746 27.2434C341.466 32.5668 348.678 31.6274 357.458 26.3039C371.568 17.8491 386.305 10.3337 403.551 4.69713C396.025 24.7382 388.186 44.4662 380.661 64.5073C381.288 66.073 381.915 67.6387 382.856 69.2044C406.686 62.6285 430.517 56.0525 457.797 48.537C449.958 77.033 443.059 103.024 435.534 130.58C460.305 133.085 482.254 135.591 507.339 138.096C496.364 157.824 486.958 175.36 475.67 195.714C499.187 198.845 520.508 201.664 545.28 204.795C527.093 220.139 511.415 233.291 491.974 249.888C526.466 252.706 556.881 255.524 592 258.342C565.975 277.444 542.771 294.354 517.373 313.142C542.144 328.173 565.034 341.951 592 358.548C568.169 364.184 549.042 368.882 525.212 374.205C547.788 392.367 567.856 408.337 591.059 426.813C566.602 426.813 545.907 426.813 525.212 426.813C524.271 428.379 523.33 429.631 522.39 431.197C537.441 450.925 552.492 470.34 567.542 490.068C566.602 491.32 565.661 492.573 564.72 493.825C543.712 490.381 523.017 486.936 498.873 482.865C502.949 499.462 506.398 515.119 510.788 534.847Z" fill="#E22222"/>
<g clip-path="url(#clip0_5_55)">
<path d="M221.879 238.432C199.479 237.232 179.479 228.032 167.379 205.932C154.579 182.632 161.579 154.032 183.579 137.432C209.079 118.132 245.379 119.832 269.079 141.232C297.579 167.132 290.979 212.132 255.979 230.532C245.779 235.832 234.979 238.232 221.879 238.432ZM172.979 181.232C172.879 190.932 176.079 199.532 182.079 207.132C199.279 228.732 233.079 232.932 255.979 216.432C281.779 197.732 281.179 162.232 254.279 145.132C234.379 132.532 213.578 132.532 193.578 145.132C180.578 153.232 173.279 165.432 172.979 181.232Z" fill="#7C9D6F"/>
<path d="M172.979 181.232C173.179 165.432 180.478 153.232 193.578 145.132C213.578 132.532 234.379 132.532 254.279 145.132C281.279 162.232 281.779 197.632 255.979 216.432C233.179 232.932 199.279 228.732 182.079 207.132C176.179 199.532 172.979 190.932 172.979 181.232ZM234.078 214.632C239.278 213.232 244.778 212.432 249.678 210.332C261.079 205.432 268.279 196.632 268.879 184.032C269.479 172.232 263.279 163.332 252.979 157.732C238.878 150.132 224.679 150.932 211.679 160.132C195.879 171.332 194.778 191.832 209.078 204.832C216.078 211.232 224.478 213.832 234.078 214.632Z" fill="#FBFCFB"/>
<path d="M234.078 214.632C224.478 213.732 216.078 211.132 209.078 204.832C194.878 191.832 195.878 171.332 211.678 160.132C224.778 150.932 238.878 150.032 252.978 157.732C263.278 163.232 269.378 172.232 268.878 184.032C268.278 196.632 261.078 205.432 249.678 210.332C244.778 212.432 239.278 213.232 234.078 214.632ZM230.878 160.432C225.678 162.332 219.978 163.332 215.378 166.132C204.678 172.532 203.078 185.832 211.278 194.732C221.078 205.332 241.078 205.232 250.678 194.632C257.878 186.732 257.378 175.632 249.478 168.332C244.278 163.632 238.178 161.532 230.878 160.432Z" fill="#8CCDBE"/>
<path d="M230.878 160.432C238.178 161.532 244.378 163.732 249.478 168.432C257.378 175.632 257.778 186.732 250.678 194.732C241.078 205.432 220.978 205.432 211.278 194.832C203.078 185.932 204.678 172.632 215.378 166.232C219.978 163.332 225.578 162.232 230.878 160.432ZM246.378 173.232C246.378 168.832 242.278 164.932 237.678 164.932C233.378 164.832 229.378 168.732 229.278 173.032C229.278 177.432 233.278 181.232 238.078 181.332C242.478 181.332 246.378 177.632 246.378 173.232ZM219.578 183.132C217.178 186.432 214.478 188.732 214.878 190.232C215.478 192.332 218.078 194.832 220.178 195.332C223.078 195.932 225.878 193.532 225.178 190.232C224.678 188.132 222.278 186.432 219.578 183.132Z" fill="#272525"/>
<path d="M246.379 173.232C246.379 177.632 242.479 181.332 237.979 181.232C233.179 181.132 229.179 177.332 229.179 172.932C229.179 168.632 233.179 164.832 237.579 164.832C242.379 164.932 246.479 168.932 246.379 173.232Z" fill="#F2F2F2"/>
<path d="M219.578 183.132C222.278 186.332 224.678 188.032 225.178 190.232C225.878 193.532 223.078 195.832 220.178 195.332C218.078 194.932 215.378 192.332 214.878 190.232C214.478 188.832 217.178 186.532 219.578 183.132Z" fill="#EEEDEC"/>
</g>
<path d="M378.896 296H212.104C190.508 296 173 312.326 173 332.465V419.535C173 439.674 190.508 456 212.104 456H378.896C400.492 456 418 439.674 418 419.535V332.465C418 312.326 400.492 296 378.896 296Z" fill="#262322"/>
<path d="M396.673 309.028C391.963 313.18 387.253 317.332 382.176 321.815C379.401 315.781 376.72 309.887 373.851 303.711C378.151 304.23 382.127 304.702 386.023 305.181L385.936 305.114C386.515 305.288 387.093 305.461 387.68 305.708C390.218 306.232 392.748 306.682 395.301 307.355C395.88 307.528 396.208 308.396 396.673 309.028Z" fill="#F5F4F4"/>
<path d="M200.964 443.033C204.996 438.3 209.029 433.568 213.374 428.46C217.037 434.067 220.586 439.548 224.364 445.282C220.028 445.337 216.02 445.394 212.091 445.434L212.187 445.489C211.588 445.394 210.989 445.299 210.371 445.131C207.779 444.947 205.206 444.836 202.576 444.508C201.977 444.412 201.52 443.597 200.964 443.033Z" fill="#F5F4F4"/>
<path d="M366.731 303.429C366.669 304.133 366.876 304.928 366.506 305.396C363.089 310.232 359.575 315.015 355.886 320.067C352.274 315.679 347.989 310.602 343.782 305.507C349.941 304.873 356.1 304.238 362.355 303.658C363.826 303.63 365.279 303.53 366.731 303.429Z" fill="#F7F6F6"/>
<path d="M230.338 446.015C230.5 445.325 230.406 444.511 230.84 444.094C234.912 439.72 239.072 435.412 243.445 430.859C246.404 435.652 249.932 441.213 253.382 446.781C247.186 446.652 240.991 446.522 234.708 446.327C233.246 446.174 231.792 446.094 230.338 446.015Z" fill="#F7F6F6"/>
<path d="M221.681 302.698C222 303.293 222.638 304.112 222.479 304.484C219.845 309.544 217.052 314.605 214.179 319.814C209.391 315.051 204.762 310.363 200.134 305.749C201.889 305.451 203.645 305.079 205.401 304.781C210.827 304.037 216.254 303.367 221.681 302.698Z" fill="#F5F4F4"/>
<path d="M373.646 445.673C373.472 445.027 373.039 444.099 373.281 443.768C377.025 439.358 380.924 434.98 384.937 430.472C388.508 436.087 391.941 441.598 395.391 447.036C393.609 446.972 391.808 446.982 390.025 446.919C384.554 446.552 379.1 446.112 373.646 445.673Z" fill="#F5F4F4"/>
<path d="M306.433 302.698C302.682 307.981 299.091 312.967 295.181 318.474C291.27 313.265 287.52 308.279 283.37 302.698C291.27 302.698 298.533 302.698 306.433 302.698Z" fill="#F3F2F1"/>
<path d="M290.632 447.963C294.383 442.679 297.974 437.693 301.884 432.186C305.795 437.395 309.546 442.381 313.695 447.963C305.795 447.963 298.533 447.963 290.632 447.963Z" fill="#F3F2F1"/>
<path d="M335.642 305.153C331.013 310.214 326.783 314.753 322.155 319.74C318.883 314.084 315.85 308.8 312.419 302.698C320.319 303.591 327.661 304.335 335.642 305.153Z" fill="#F5F4F4"/>
<path d="M261.423 445.507C266.052 440.447 270.282 435.907 274.91 430.921C278.182 436.577 281.215 441.86 284.647 447.963C276.746 447.07 269.404 446.326 261.423 445.507Z" fill="#F5F4F4"/>
<path d="M279.858 302.698C276.028 307.981 272.516 312.967 268.606 318.4C264.616 313.116 260.865 308.13 256.795 302.698C264.695 302.698 272.037 302.698 279.858 302.698Z" fill="#F5F4F4"/>
<path d="M317.207 447.963C321.037 442.679 324.549 437.693 328.459 432.26C332.45 437.544 336.2 442.53 340.27 447.963C332.37 447.963 325.028 447.963 317.207 447.963Z" fill="#F5F4F4"/>
<path d="M230.619 302.772C238.121 302.772 245.702 302.772 253.204 302.698C249.613 307.833 246.021 312.967 242.111 318.474C238.121 313.042 234.37 307.907 230.619 302.772Z" fill="#F9F8F8"/>
<path d="M366.446 447.888C358.945 447.888 351.363 447.888 343.862 447.963C347.453 442.828 351.044 437.693 354.954 432.186C358.945 437.619 362.695 442.753 366.446 447.888Z" fill="#F9F8F8"/>
<path d="M417.8 185.133C417.1 201.733 407 217.433 389.1 228.233C364.3 243.133 330.8 239.633 309.9 220.133C286.1 197.833 286 162.633 309.8 140.433C338 114.033 385.2 118.233 407.8 149.133C414.4 158.133 417.8 169.033 417.8 185.133ZM405.9 184.233C406 169.533 402.1 160.133 394.9 152.233C375.6 131.033 340.7 129.133 319.2 148.033C298.1 166.533 299.1 197.133 321.4 214.133C340.7 228.933 368.3 229.233 387.8 214.733C399.2 206.133 405.6 194.833 405.9 184.233Z" fill="#7C9D6F"/>
<path d="M405.9 184.232C405.7 194.932 399.2 206.232 387.8 214.732C368.3 229.332 340.7 229.032 321.4 214.132C299.1 197.132 298.1 166.532 319.2 148.032C340.7 129.132 375.6 131.032 394.9 152.232C402.1 160.132 406 169.432 405.9 184.232ZM319.1 181.532C320.1 185.332 320.5 189.432 322.1 192.932C331 212.832 357.7 219.532 377.4 207.032C396.7 194.732 398.3 171.732 380.7 157.232C371.6 149.732 360.8 148.632 349.6 149.732C333.5 151.332 319.8 165.832 319.1 181.532Z" fill="#FBFCFB"/>
<path d="M319.1 181.533C319.8 165.933 333.5 151.333 349.6 149.733C360.8 148.633 371.6 149.733 380.7 157.233C398.3 171.733 396.7 194.733 377.4 207.033C357.7 219.533 331 212.833 322 192.933C320.5 189.333 320 185.333 319.1 181.533ZM355.6 201.833C358.7 200.633 364.9 199.333 369.8 196.033C381.9 188.033 382 173.033 370.6 164.033C359.9 155.533 342.2 156.433 332.6 166.033C324.3 174.433 324.8 186.933 333.8 194.733C339.2 199.433 345.6 201.233 355.6 201.833Z" fill="#8CCDBE"/>
<path d="M355.6 201.833C345.7 201.233 339.2 199.332 333.8 194.732C324.8 187.032 324.3 174.432 332.6 166.032C342.2 156.432 359.9 155.432 370.6 164.032C381.9 173.032 381.8 188.032 369.8 196.032C364.9 199.332 358.7 200.632 355.6 201.833ZM361.3 176.532C365.2 176.632 368.7 173.332 368.9 169.532C369.1 165.332 365.5 161.732 361.1 161.732C357 161.632 353.4 165.132 353.4 169.132C353.5 172.932 357.2 176.432 361.3 176.532ZM343.3 196.732C347 196.532 349.5 194.432 349.5 190.833C349.5 187.132 346.7 185.032 343.3 184.932C339.8 184.832 337.1 187.032 337.1 190.732C337.1 194.532 339.8 196.332 343.3 196.732Z" fill="#252223"/>
<path d="M361.3 176.533C357.2 176.433 353.4 172.933 353.4 169.133C353.4 165.133 357 161.633 361.1 161.733C365.6 161.833 369.1 165.333 368.9 169.533C368.7 173.333 365.2 176.633 361.3 176.533Z" fill="#F2F1F1"/>
<path d="M343.3 196.733C339.8 196.333 337.2 194.433 337.1 190.833C337.1 187.133 339.7 184.933 343.3 185.033C346.8 185.133 349.6 187.233 349.5 190.933C349.5 194.433 347 196.533 343.3 196.733Z" fill="#EEEDEC"/>
<defs>
<clipPath id="clip0_5_55">
<rect width="126" height="115" fill="white" transform="translate(161 124)"/>
</clipPath>
</defs>
</svg>
