<svg width="442" height="491" viewBox="0 0 442 491" fill="none" xmlns="http://www.w3.org/2000/svg">
<g clip-path="url(#clip0_3_2)">
<path d="M3.00346 358.653C7.65401 333.1 12.7274 307.682 16.8846 282.062C20.8306 257.996 23.79 233.795 27.3836 209.662C30.6249 187.962 33.6548 166.262 37.5303 144.697C41.6171 121.713 47.7474 99.1343 57.8235 77.705C74.8756 41.539 103.554 18.6899 143.295 8.27943C159.854 3.95303 176.765 1.65461 193.887 0.708201C212.067 -0.305808 230.246 -0.373408 248.355 1.45181C281.12 4.83184 311.631 13.8903 337.491 34.5085C353.838 47.5554 365.958 63.6444 375.47 81.6938C389.14 107.652 397.314 135.436 402.951 163.829C409.292 195.6 414.859 227.441 420.637 259.28C425.922 288.686 431.559 318.026 439.239 347.026C441.846 356.895 443.326 366.901 440.367 376.973C439.732 379.069 438.535 381.029 437.619 383.125C437.829 379.88 438.041 376.702 438.182 373.458C429.304 396.239 423.103 419.696 417.184 443.965C396.468 430.31 376.034 417.195 354.049 406.514C355.388 407.934 356.656 409.286 357.995 410.705C350.949 411.314 343.902 411.99 336.856 412.599C337.561 409.016 338.266 405.433 338.9 401.85C338.477 401.715 337.984 401.579 337.561 401.445C328.472 423.009 319.381 444.574 310.151 466.476C308.53 464.718 306.981 462.826 305.219 461.068C292.465 448.359 279.711 435.65 266.887 423.009C264.632 420.845 261.813 419.223 259.277 417.331C258.995 416.925 258.714 416.452 258.431 416.046L258.502 416.181C258.431 415.979 258.361 415.843 258.29 415.641C258.15 415.775 258.008 415.911 257.867 415.979C253.429 416.181 248.99 416.316 244.55 416.52C243.353 415.979 243.141 415.979 242.084 417.331C230.81 432.743 219.536 448.157 208.261 463.569C206.148 466.476 204.175 469.383 202.131 472.29C193.464 458.229 185.009 444.371 176.342 430.648C172.678 424.767 168.521 419.155 164.575 413.545C164.363 413.207 163.448 413.342 162.813 413.207C161.616 412.936 160.417 412.666 159.149 412.395C159.925 410.435 160.629 408.475 161.404 406.447C161.545 406.176 161.756 405.906 161.897 405.635C161.897 405.635 161.756 405.501 161.616 405.433C161.474 405.703 161.333 406.042 161.193 406.312C160.488 406.853 159.642 407.258 159.149 407.934C147.03 424.429 134.98 440.991 122.931 457.553C121.803 459.108 120.606 460.73 119.479 462.353C118.985 461.947 118.774 461.812 118.633 461.609C108.698 445.52 98.7625 429.363 88.6864 413.274C86.4314 409.692 83.4722 406.514 80.8651 403.134V403.202C80.8651 402.864 80.7945 402.526 80.7945 402.256C80.5828 402.323 80.3718 402.391 80.1603 402.458C77.6236 401.512 75.087 400.633 72.6208 399.687C73.0436 399.214 73.4663 398.741 73.8186 398.267C51.2705 407.191 30.5545 419.021 9.06324 431.053C9.06324 426.186 9.34513 421.995 8.99281 417.871C7.93586 404.148 6.87892 390.494 5.54013 376.77C5.04689 370.753 3.91948 364.738 3.00346 358.653ZM214.885 320.053C214.251 320.459 213.406 320.797 212.983 321.338C203.33 334.723 193.676 348.107 184.234 361.56C180.781 366.428 177.751 371.565 174.299 376.906C161.686 356.625 148.791 337.156 133.43 319.31C144.352 346.891 158.726 372.714 174.299 398.403C174.933 397.591 175.355 397.118 175.638 396.645C188.109 375.824 200.088 354.732 210.094 332.627C211.926 328.504 213.476 324.312 215.097 320.121C215.238 319.85 215.449 319.58 215.59 319.31C215.59 319.31 215.449 319.175 215.308 319.107C215.097 319.445 215.026 319.783 214.885 320.053ZM267.591 319.986C282.671 294.771 297.115 269.42 307.614 242.11C292.395 259.618 279.781 278.885 267.31 298.692C254.626 278.344 241.731 258.942 226.371 240.42C227.992 250.019 258.783 309.237 267.591 319.986ZM112.221 330.869C121.663 317.214 153.583 258.672 152.244 252.386C137.376 270.435 124.764 289.633 112.291 309.44C99.608 289.092 86.713 269.691 71.3524 251.777C82.204 279.357 96.7194 305.113 112.221 330.869ZM385.053 301.531C369.903 319.107 357.22 338.17 344.889 357.977C340.379 351.014 336.222 344.39 331.854 337.9C327.485 331.41 323.046 324.92 318.465 318.566C313.956 312.347 309.165 306.263 304.514 300.179C304.232 300.381 303.95 300.517 303.598 300.72C314.872 328.03 329.247 353.854 344.889 379.677C360.179 354.124 374.554 328.774 385.053 301.531Z" fill="#10DCE9"/>
<path d="M357.995 410.706C356.656 409.286 355.388 407.934 354.049 406.515C376.034 417.195 396.468 430.31 417.185 443.966C423.174 419.764 429.304 396.239 438.182 373.458C437.971 376.702 437.76 379.88 437.619 383.125C435.998 393.468 434.518 403.811 432.615 414.086C429.868 428.418 426.767 442.749 423.878 457.08C423.738 457.688 423.455 458.297 423.174 459.31C413.168 452.213 403.232 445.385 393.65 438.219C382.657 429.972 371.947 421.387 361.096 412.936C360.11 412.125 359.052 411.45 357.995 410.706Z" fill="#7C9C6E"/>
<path d="M3.00357 358.653C3.91959 364.738 5.04699 370.754 5.6107 376.838C6.94949 390.494 8.00643 404.216 9.06341 417.939C9.34521 422.063 9.13384 426.186 9.13384 431.121C30.625 419.088 51.4116 407.258 73.8892 398.335C73.4664 398.808 73.0437 399.282 72.6914 399.755C51.4116 415.505 29.2157 429.904 6.31532 443.425C4.62421 444.439 2.93311 445.385 0.678294 446.737C0.537368 444.709 0.32598 443.087 0.32598 441.531C-0.378649 415.573 -0.0263347 389.615 2.22847 363.723C2.3694 362.033 2.72172 360.343 3.00357 358.653Z" fill="#7C9D6E"/>
<path d="M162.884 413.274C163.518 413.342 164.434 413.274 164.645 413.613C168.662 419.291 172.748 424.902 176.413 430.716C185.079 444.438 193.535 458.296 202.202 472.357C204.246 469.518 206.218 466.544 208.332 463.637C219.607 448.224 230.88 432.811 242.154 417.398C243.141 416.046 243.352 416.046 244.621 416.587C232.501 441.058 218.479 464.584 203.611 487.568C203.047 488.514 202.343 489.393 201.427 490.678C198.045 484.525 194.733 478.915 191.844 473.101C182.543 454.105 173.453 434.974 164.293 415.979C163.871 415.1 163.377 414.221 162.884 413.274Z" fill="#7C9C6E"/>
<path d="M161.474 406.582C160.699 408.543 159.994 410.503 159.219 412.531C153.794 422.333 148.579 432.27 142.872 441.937C135.192 454.917 127.229 467.761 119.056 481.145C118.422 480.199 118.069 479.726 117.788 479.185C104.752 455.66 92.3507 431.865 82.0628 407.123C81.5695 405.906 81.2879 404.554 80.9357 403.27C83.5428 406.65 86.502 409.827 88.757 413.41C98.8331 429.431 108.698 445.588 118.703 461.744C118.844 461.947 119.056 462.015 119.549 462.488C120.747 460.865 121.874 459.311 123.002 457.688C135.051 441.126 147.1 424.631 159.219 408.07C159.713 407.393 160.558 406.987 161.263 406.447L161.474 406.582Z" fill="#7C9C6E"/>
<path d="M259.277 417.331C261.814 419.223 264.632 420.846 266.887 423.009C279.782 435.582 292.465 448.359 305.219 461.068C306.981 462.826 308.53 464.718 310.151 466.476C319.381 444.574 328.472 423.009 337.561 401.445C337.984 401.58 338.477 401.715 338.9 401.85C338.195 405.433 337.491 409.016 336.857 412.599C332.629 426.93 328.542 441.329 324.173 455.66C321.214 465.192 317.761 474.656 314.45 484.391C313.745 483.917 313.392 483.782 313.111 483.444C294.508 462.894 276.47 441.87 260.405 419.426C259.982 418.75 259.699 418.074 259.277 417.331Z" fill="#7C9C6E"/>
<path d="M80.2306 402.526C80.4424 402.458 80.6534 402.391 80.8651 402.323C80.8651 402.662 80.9357 402.999 80.9357 403.27C80.724 402.999 80.5122 402.796 80.2306 402.526Z" fill="#7C9C6E"/>
<path d="M258.431 416.046C258.713 416.452 258.995 416.925 259.277 417.331C259.066 416.925 258.713 416.52 258.431 416.046Z" fill="#7C9C6E"/>
<path d="M257.938 416.046C258.079 415.911 258.22 415.775 258.361 415.708C258.431 415.911 258.502 416.046 258.572 416.249H258.22L257.938 416.046Z" fill="#7C9C6E"/>
<path d="M267.591 319.986C258.854 309.305 228.062 250.087 226.371 240.42C241.731 258.942 254.627 278.344 267.31 298.692C279.852 278.885 292.395 259.618 307.614 242.11C297.115 269.353 282.671 294.771 267.591 319.986Z" fill="#7B9C6C"/>
<path d="M112.221 330.869C96.7186 305.113 82.204 279.358 71.4228 251.777C86.7836 269.691 99.6786 289.092 112.362 309.44C124.833 289.633 137.447 270.435 152.314 252.386C153.512 258.672 121.593 317.281 112.221 330.869Z" fill="#7B9C6C"/>
<path d="M385.053 301.531C374.554 328.774 360.179 354.124 344.819 379.677C329.176 353.854 314.802 328.03 303.527 300.72C303.81 300.517 304.091 300.382 304.443 300.179C309.094 306.33 313.886 312.347 318.395 318.566C322.975 324.92 327.415 331.41 331.783 337.9C336.152 344.39 340.31 351.014 344.819 357.977C357.22 338.238 369.903 319.107 385.053 301.531Z" fill="#7B9C6C"/>
<path d="M215.026 320.188C213.335 324.379 211.855 328.571 210.023 332.695C200.017 354.732 188.039 375.824 175.567 396.713C175.285 397.186 174.863 397.591 174.228 398.47C158.656 372.849 144.281 346.958 133.36 319.377C148.721 337.292 161.616 356.693 174.228 376.973C177.681 371.565 180.781 366.495 184.163 361.628C193.676 348.175 203.33 334.79 212.912 321.406C213.335 320.797 214.181 320.527 214.814 320.121L215.026 320.188Z" fill="#7B9C6C"/>
<path d="M214.885 320.054C215.026 319.783 215.097 319.445 215.238 319.175C215.308 319.242 215.52 319.377 215.52 319.377C215.378 319.648 215.167 319.918 215.026 320.189L214.885 320.054Z" fill="#7B9C6C"/>
<path d="M161.263 406.447C161.404 406.176 161.545 405.838 161.686 405.568C161.757 405.636 161.968 405.771 161.968 405.771C161.827 406.042 161.616 406.312 161.474 406.582L161.263 406.447Z" fill="#7C9C6E"/>
<g clip-path="url(#clip1_3_2)">
<path d="M313.968 235.558C301.487 234.499 287.911 233.369 274.408 232.168C246.819 229.696 219.229 227.365 191.493 229.625C170.327 231.32 149.233 233.58 128.066 235.205C119.234 235.84 110.33 236.194 101.571 235.417C90.988 234.428 86.0247 227.648 88.7253 217.619C90.696 210.204 93.3966 202.647 97.4839 196.22C116.242 166.911 141.934 144.876 174.779 131.033C202.369 119.451 229.958 120.722 256.964 132.728C288.057 146.571 313.895 166.699 332.872 194.525C337.178 200.81 340.463 207.59 341.485 215.289C342.872 225.6 337.032 233.227 326.303 234.64C322.581 235.064 318.785 235.205 313.968 235.558ZM214.339 217.125C214.339 217.549 214.339 217.972 214.412 218.396C223.389 218.396 232.367 218.325 241.271 218.467C244.629 218.537 247.986 218.961 251.417 219.244C261.489 220.162 271.562 221.08 281.707 221.927C288.203 222.492 294.699 223.128 301.195 223.41C308.786 223.764 316.45 224.187 324.04 223.834C329.953 223.622 332.069 220.374 329.953 214.441C327.982 208.72 325.354 203.07 321.997 197.985C313.092 184.779 301.633 173.62 288.714 163.944C273.459 152.433 256.964 142.969 238.206 137.531C223.024 133.081 207.77 132.516 192.442 136.542C169.305 142.616 150.109 155.258 132.737 170.795C122.665 179.835 113.76 190.005 106.972 201.517C103.469 207.449 101.571 214.229 99.3086 220.727C98.9437 221.715 100.622 224.399 101.644 224.54C105.951 225.176 110.33 225.529 114.636 225.317C121.643 224.964 128.577 223.975 135.511 223.34C146.678 222.351 157.845 221.362 169.013 220.444C184.194 219.314 199.23 218.255 214.339 217.125Z" fill="#BB6BD9"/>
<path d="M214.339 217.125C199.303 218.255 184.194 219.314 169.159 220.515C157.992 221.362 146.824 222.351 135.657 223.41C128.723 224.046 121.716 224.964 114.782 225.388C110.476 225.6 106.097 225.247 101.79 224.611C100.769 224.47 99.0898 221.786 99.4547 220.797C101.717 214.3 103.688 207.52 107.119 201.587C113.906 190.005 122.738 179.835 132.883 170.866C150.255 155.328 169.451 142.686 192.588 136.613C207.916 132.587 223.17 133.223 238.352 137.601C257.11 143.039 273.605 152.574 288.86 164.015C301.706 173.691 313.238 184.779 322.07 198.127C325.427 203.212 328.055 208.862 330.025 214.582C332.142 220.515 329.953 223.693 324.113 223.975C316.523 224.258 308.859 223.905 301.268 223.552C294.772 223.269 288.276 222.634 281.78 222.069C271.708 221.221 261.635 220.232 251.49 219.385C248.132 219.102 244.775 218.679 241.344 218.608C232.367 218.467 223.389 218.537 214.485 218.537C214.339 218.043 214.339 217.619 214.339 217.125ZM130.621 191.629C123.687 197.279 118.578 204.271 115.22 212.393C115.074 212.817 115.074 213.311 115.001 213.805C114.855 215.783 115.731 216.984 117.921 216.984C119.381 216.984 120.84 216.984 122.3 216.772C131.059 215.359 139.744 213.947 148.503 212.464C167.261 209.215 186.092 206.249 205.142 205.684C231.126 204.907 256.599 209.497 282.145 213.099C291.707 214.441 301.414 215.43 311.048 216.207C315.574 216.56 317.471 214.159 316.085 209.992C314.917 206.46 313.384 202.859 311.267 199.822C295.867 177.575 275.065 161.331 250.176 150.102C229.447 140.709 208.646 140.426 187.625 149.89C169.232 158.153 153.174 169.524 138.577 182.943C135.657 185.626 133.248 188.734 130.621 191.629Z" fill="#9B51E0"/>
<path d="M130.548 191.7C133.175 188.734 135.657 185.626 138.577 182.943C153.174 169.524 169.232 158.153 187.625 149.89C208.646 140.426 229.447 140.709 250.176 150.102C275.065 161.402 295.867 177.646 311.267 199.822C313.384 202.859 314.917 206.46 316.085 209.992C317.471 214.159 315.574 216.56 311.048 216.207C301.414 215.43 291.707 214.441 282.145 213.099C256.599 209.427 231.126 204.907 205.142 205.684C186.019 206.249 167.261 209.215 148.503 212.464C139.817 213.947 131.059 215.359 122.3 216.772C120.84 216.984 119.381 216.984 117.921 216.984C115.731 216.984 114.855 215.783 115.001 213.805C115.001 213.311 115.001 212.817 115.22 212.393C118.578 204.271 123.687 197.279 130.548 191.7C132.956 197.985 135.219 204.342 137.628 210.769C141.423 210.133 144.854 209.497 148.503 208.932C147.262 201.87 146.094 195.019 144.927 188.169C139.89 189.369 135.219 190.57 130.548 191.7ZM243.242 179.553C243.899 188.169 244.483 196.432 245.286 204.695C245.359 205.472 246.527 206.743 247.33 206.884C251.563 207.449 255.942 207.732 260.467 208.085C261.562 198.48 262.584 189.087 263.679 179.553C256.745 179.553 250.249 179.553 243.242 179.553ZM161.13 179.553C162.225 189.299 163.32 198.621 164.488 208.155C169.67 207.661 174.487 207.167 179.45 206.743C180.18 197.562 180.91 188.593 181.713 179.553C174.633 179.553 168.137 179.553 161.13 179.553ZM289.298 210.627C290.101 203.494 290.904 196.644 291.707 189.793C286.524 189.793 281.78 189.793 276.744 189.793C277.328 196.573 277.839 203 278.35 209.568C282.218 209.921 285.648 210.274 289.298 210.627Z" fill="#252123"/>
<path d="M243.241 179.553C250.248 179.553 256.744 179.553 263.678 179.553C262.583 189.087 261.562 198.48 260.467 208.085C255.941 207.732 251.635 207.449 247.329 206.884C246.526 206.814 245.358 205.542 245.285 204.695C244.482 196.502 243.898 188.169 243.241 179.553Z" fill="#FAF9F9"/>
<path d="M161.129 179.553C168.136 179.553 174.632 179.553 181.639 179.553C180.909 188.593 180.179 197.562 179.377 206.743C174.413 207.237 169.669 207.661 164.414 208.155C163.392 198.621 162.297 189.299 161.129 179.553Z" fill="#FAF9F9"/>
<path d="M130.548 191.7C135.219 190.57 139.89 189.369 144.927 188.169C146.094 195.019 147.262 201.87 148.503 208.932C144.854 209.568 141.423 210.133 137.628 210.769C135.292 204.342 132.956 197.985 130.548 191.7C130.621 191.629 130.548 191.7 130.548 191.7Z" fill="#F7F6F6"/>
<path d="M289.298 210.627C285.649 210.274 282.218 209.921 278.35 209.568C277.839 203 277.255 196.502 276.744 189.793C281.707 189.793 286.451 189.793 291.707 189.793C290.904 196.644 290.101 203.565 289.298 210.627Z" fill="#F7F6F6"/>
</g>
<g clip-path="url(#clip2_3_2)">
<path d="M212.1 71.4003C212.1 98.9003 190.5 120.9 163.4 120.8C136.7 120.8 115 98.7003 115 71.5003C115 44.1003 136.9 21.9003 163.8 22.0003C190.5 22.1003 212.1 44.1003 212.1 71.4003ZM200.1 71.4003C200.1 50.4003 183.9 33.8003 163.5 33.8003C143.3 33.9003 127 50.6003 127 71.4003C127 92.6003 143.1 108.8 164.1 108.8C184.2 108.8 200.2 92.2003 200.1 71.4003Z" fill="#219653"/>
<path d="M317 73.8004C316.9 101.3 295.2 122.9 267.9 122.8C241.3 122.7 219.8 100.5 219.9 73.1004C219.9 45.9004 242.1 23.8004 269 24.0004C295.7 24.3004 317 46.4004 317 73.8004ZM305 73.5004C305 52.6004 288.8 35.9004 268.5 35.9004C248.2 35.9004 231.9 52.6004 231.9 73.4004C231.9 94.4004 248 110.8 268.5 110.8C289.1 110.8 305 94.6004 305 73.5004Z" fill="#219653"/>
<path d="M200.1 71.4003C200.1 92.2003 184.2 108.7 164.1 108.8C143.1 108.9 127 92.7003 127 71.4003C127 50.6003 143.3 33.8003 163.6 33.8003C183.9 33.9003 200.1 50.5003 200.1 71.4003ZM181.2 75.2003C180.7 65.2003 179.8 57.6003 174.3 51.6003C171.2 48.2003 167.2 45.1003 162.5 47.5003C157.9 49.9003 159 55.2003 160.5 58.7003C164.6 68.7003 164 78.3003 160.6 88.2003C159.4 91.6003 158.4 95.9003 162.2 98.2003C166 100.4 169.7 98.0003 172.5 95.4003C174.7 93.3003 176.8 90.6003 177.9 87.8003C179.6 83.1003 180.5 78.0003 181.2 75.2003Z" fill="#F9EB23"/>
<path d="M305 73.5003C305 94.6003 289.1 110.8 268.4 110.9C247.9 110.9 231.8 94.5003 231.8 73.5003C231.8 52.7003 248.1 35.9003 268.4 36.0003C288.8 35.9003 305 52.5003 305 73.5003ZM288 74.6003C286.9 69.6003 286.6 64.4003 284.5 60.1003C282.6 56.2003 279.2 52.4003 275.5 50.0003C269.9 46.4003 265.2 49.8003 266 56.5003C266.4 59.9003 268.1 63.2003 268.4 66.6003C268.9 72.1003 268.9 77.7003 268.6 83.2003C268.4 86.3003 266.7 89.3003 266.5 92.3003C266.4 94.9003 266.8 98.6003 268.4 99.7003C270.1 100.9 274.3 100.4 276 99.0003C279.4 96.3003 282.6 92.8003 284.4 89.0003C286.5 84.8003 286.9 79.6003 288 74.6003Z" fill="#F9EB23"/>
<path d="M181.2 75.2004C180.5 78.0004 179.7 83.1004 177.9 87.8004C176.9 90.6004 174.7 93.3004 172.5 95.4004C169.7 98.0004 166 100.4 162.2 98.2004C158.4 95.9004 159.4 91.6004 160.6 88.2004C164 78.3004 164.6 68.7004 160.5 58.7004C159.1 55.2004 157.9 49.8004 162.5 47.5004C167.1 45.1004 171.1 48.2004 174.3 51.6004C179.8 57.6004 180.7 65.1004 181.2 75.2004Z" fill="#262523"/>
<path d="M288 74.6003C286.9 79.6003 286.5 84.7003 284.5 89.1003C282.7 93.0003 279.5 96.4003 276.1 99.1003C274.3 100.5 270.2 101 268.5 99.8003C266.9 98.7003 266.5 94.9003 266.6 92.4003C266.7 89.3003 268.5 86.3003 268.7 83.3003C269 77.8003 269 72.2003 268.5 66.7003C268.2 63.3003 266.5 60.0003 266.1 56.6003C265.3 49.9003 270 46.5003 275.6 50.1003C279.3 52.5003 282.6 56.3003 284.6 60.2003C286.6 64.5003 286.9 69.7003 288 74.6003Z" fill="#262523"/>
</g>
</g>
<defs>
<clipPath id="clip0_3_2">
<rect width="442" height="491" fill="white"/>
</clipPath>
<clipPath id="clip1_3_2">
<rect width="254" height="113" fill="white" transform="translate(88 123)"/>
</clipPath>
<clipPath id="clip2_3_2">
<rect width="202" height="101" fill="white" transform="translate(115 22)"/>
</clipPath>
</defs>
</svg>
